%TF.GenerationSoftware,KiCad,Pcbnew,(5.1.6-0-10_14)*%
%TF.CreationDate,2021-08-08T16:08:56+02:00*%
%TF.ProjectId,doorbell,646f6f72-6265-46c6-9c2e-6b696361645f,rev?*%
%TF.SameCoordinates,PX791ddc0PY3ef1480*%
%TF.FileFunction,Copper,L2,Bot*%
%TF.FilePolarity,Positive*%
%FSLAX46Y46*%
G04 Gerber Fmt 4.6, Leading zero omitted, Abs format (unit mm)*
G04 Created by KiCad (PCBNEW (5.1.6-0-10_14)) date 2021-08-08 16:08:56*
%MOMM*%
%LPD*%
G01*
G04 APERTURE LIST*
%TA.AperFunction,Profile*%
%ADD10C,0.150000*%
%TD*%
%TA.AperFunction,ComponentPad*%
%ADD11R,1.700000X1.700000*%
%TD*%
%TA.AperFunction,ComponentPad*%
%ADD12O,1.700000X1.700000*%
%TD*%
%TA.AperFunction,ViaPad*%
%ADD13C,1.600000*%
%TD*%
%TA.AperFunction,Conductor*%
%ADD14C,0.600000*%
%TD*%
%TA.AperFunction,Conductor*%
%ADD15C,0.254000*%
%TD*%
G04 APERTURE END LIST*
D10*
X0Y0D02*
X0Y25000000D01*
X45000000Y0D02*
X0Y0D01*
X45000000Y25000000D02*
X45000000Y0D01*
X0Y25000000D02*
X45000000Y25000000D01*
D11*
%TO.P,J1,1*%
%TO.N,GND*%
X2250000Y22250000D03*
D12*
%TO.P,J1,2*%
%TO.N,/V+*%
X4790000Y22250000D03*
%TO.P,J1,3*%
%TO.N,VCC*%
X7330000Y22250000D03*
%TD*%
D11*
%TO.P,J2,1*%
%TO.N,GND*%
X33750000Y3750000D03*
D12*
%TO.P,J2,2*%
%TO.N,/Rx*%
X36290000Y3750000D03*
%TO.P,J2,3*%
%TO.N,/Tx*%
X38830000Y3750000D03*
%TO.P,J2,4*%
%TO.N,+3V3*%
X41370000Y3750000D03*
%TD*%
D13*
%TO.N,GND*%
X15900000Y9400000D03*
X23000000Y22500000D03*
X17600000Y13900000D03*
X2000000Y7500000D03*
%TO.N,VCC*%
X11400000Y7000000D03*
%TO.N,+3V3*%
X6750000Y5250000D03*
X21900000Y7800000D03*
X43300000Y15100000D03*
X19250014Y20750000D03*
%TO.N,/V+*%
X18400000Y16900000D03*
%TO.N,/Signal*%
X23000000Y17600000D03*
X18800000Y7700000D03*
%TD*%
D14*
%TO.N,VCC*%
X7330000Y22250000D02*
X7330000Y11070000D01*
X7330000Y11070000D02*
X11400000Y7000000D01*
%TO.N,+3V3*%
X18600000Y4500000D02*
X21900000Y7800000D01*
X7500000Y4500000D02*
X18600000Y4500000D01*
X6750000Y5250000D02*
X7500000Y4500000D01*
X41370000Y3750000D02*
X37320000Y7800000D01*
X37320000Y7800000D02*
X21900000Y7800000D01*
X41370000Y13170000D02*
X41370000Y3750000D01*
X43300000Y15100000D02*
X41370000Y13170000D01*
X21900000Y7800000D02*
X25000000Y10900000D01*
X22131370Y20750000D02*
X19250014Y20750000D01*
X25000000Y17881370D02*
X22131370Y20750000D01*
X25000000Y10900000D02*
X25000000Y17881370D01*
%TO.N,/V+*%
X6590000Y24050000D02*
X4790000Y22250000D01*
X18400000Y17900000D02*
X12250000Y24050000D01*
X12250000Y24050000D02*
X6590000Y24050000D01*
X18400000Y16900000D02*
X18400000Y17900000D01*
%TO.N,/Signal*%
X23000000Y17600000D02*
X23000000Y11900000D01*
X23000000Y11900000D02*
X18800000Y7700000D01*
%TD*%
D15*
%TO.N,GND*%
G36*
X4985530Y23615084D02*
G01*
X4925623Y23627000D01*
X4654377Y23627000D01*
X4388344Y23574083D01*
X4137746Y23470282D01*
X3912213Y23319586D01*
X3733997Y23141370D01*
X3725812Y23224482D01*
X3689502Y23344180D01*
X3630537Y23454494D01*
X3551185Y23551185D01*
X3454494Y23630537D01*
X3344180Y23689502D01*
X3224482Y23725812D01*
X3100000Y23738072D01*
X2535750Y23735000D01*
X2377000Y23576250D01*
X2377000Y22377000D01*
X2397000Y22377000D01*
X2397000Y22123000D01*
X2377000Y22123000D01*
X2377000Y20923750D01*
X2535750Y20765000D01*
X3100000Y20761928D01*
X3224482Y20774188D01*
X3344180Y20810498D01*
X3454494Y20869463D01*
X3551185Y20948815D01*
X3630537Y21045506D01*
X3689502Y21155820D01*
X3725812Y21275518D01*
X3733997Y21358630D01*
X3912213Y21180414D01*
X4137746Y21029718D01*
X4388344Y20925917D01*
X4654377Y20873000D01*
X4925623Y20873000D01*
X5191656Y20925917D01*
X5442254Y21029718D01*
X5667787Y21180414D01*
X5859586Y21372213D01*
X6010282Y21597746D01*
X6060000Y21717776D01*
X6109718Y21597746D01*
X6260414Y21372213D01*
X6452213Y21180414D01*
X6503000Y21146479D01*
X6503001Y11110624D01*
X6499000Y11070000D01*
X6514967Y10907880D01*
X6562256Y10751990D01*
X6639048Y10608321D01*
X6716498Y10513949D01*
X6742395Y10482394D01*
X6773948Y10456499D01*
X10077438Y7153008D01*
X10073000Y7130698D01*
X10073000Y6869302D01*
X10123996Y6612928D01*
X10224028Y6371430D01*
X10369252Y6154087D01*
X10554087Y5969252D01*
X10771430Y5824028D01*
X11012928Y5723996D01*
X11269302Y5673000D01*
X11530698Y5673000D01*
X11787072Y5723996D01*
X12028570Y5824028D01*
X12245913Y5969252D01*
X12430748Y6154087D01*
X12575972Y6371430D01*
X12676004Y6612928D01*
X12727000Y6869302D01*
X12727000Y7130698D01*
X12676004Y7387072D01*
X12575972Y7628570D01*
X12430748Y7845913D01*
X12245913Y8030748D01*
X12028570Y8175972D01*
X11787072Y8276004D01*
X11530698Y8327000D01*
X11269302Y8327000D01*
X11246992Y8322562D01*
X8157000Y11412553D01*
X8157000Y21146479D01*
X8207787Y21180414D01*
X8399586Y21372213D01*
X8550282Y21597746D01*
X8654083Y21848344D01*
X8707000Y22114377D01*
X8707000Y22385623D01*
X8654083Y22651656D01*
X8550282Y22902254D01*
X8399586Y23127787D01*
X8304373Y23223000D01*
X11907447Y23223000D01*
X17376892Y17753553D01*
X17369252Y17745913D01*
X17224028Y17528570D01*
X17123996Y17287072D01*
X17073000Y17030698D01*
X17073000Y16769302D01*
X17123996Y16512928D01*
X17224028Y16271430D01*
X17369252Y16054087D01*
X17554087Y15869252D01*
X17771430Y15724028D01*
X18012928Y15623996D01*
X18269302Y15573000D01*
X18530698Y15573000D01*
X18787072Y15623996D01*
X19028570Y15724028D01*
X19245913Y15869252D01*
X19430748Y16054087D01*
X19575972Y16271430D01*
X19676004Y16512928D01*
X19727000Y16769302D01*
X19727000Y17030698D01*
X19676004Y17287072D01*
X19575972Y17528570D01*
X19430748Y17745913D01*
X19245913Y17930748D01*
X19226709Y17943580D01*
X19215034Y18062120D01*
X19167745Y18218010D01*
X19090952Y18361679D01*
X19090951Y18361681D01*
X19013502Y18456053D01*
X19013496Y18456059D01*
X18987606Y18487606D01*
X18956059Y18513496D01*
X13071553Y24398000D01*
X28873000Y24398000D01*
X28873000Y23500000D01*
X28876081Y23472194D01*
X28883887Y23448553D01*
X28896155Y23426889D01*
X28912414Y23408034D01*
X31012414Y21408034D01*
X31029443Y21394403D01*
X31051399Y21382667D01*
X31075224Y21375440D01*
X31100000Y21373000D01*
X38500000Y21373000D01*
X38524776Y21375440D01*
X38548601Y21382667D01*
X38570557Y21394403D01*
X38589803Y21410197D01*
X40589803Y23410197D01*
X40605597Y23429443D01*
X40617333Y23451399D01*
X40624560Y23475224D01*
X40627000Y23500000D01*
X40627000Y24398000D01*
X44398000Y24398000D01*
X44398000Y15845263D01*
X44330748Y15945913D01*
X44145913Y16130748D01*
X43928570Y16275972D01*
X43687072Y16376004D01*
X43430698Y16427000D01*
X43169302Y16427000D01*
X42912928Y16376004D01*
X42671430Y16275972D01*
X42454087Y16130748D01*
X42269252Y15945913D01*
X42124028Y15728570D01*
X42023996Y15487072D01*
X41973000Y15230698D01*
X41973000Y14969302D01*
X41977438Y14946991D01*
X40813952Y13783505D01*
X40782394Y13757606D01*
X40756498Y13726051D01*
X40679048Y13631679D01*
X40638002Y13554886D01*
X40602255Y13488009D01*
X40554966Y13332119D01*
X40543000Y13210623D01*
X40543000Y13210614D01*
X40539000Y13170000D01*
X40543000Y13129386D01*
X40543001Y5746553D01*
X37933505Y8356048D01*
X37907606Y8387606D01*
X37781679Y8490952D01*
X37638010Y8567745D01*
X37482120Y8615034D01*
X37360624Y8627000D01*
X37360614Y8627000D01*
X37320000Y8631000D01*
X37279386Y8627000D01*
X23896553Y8627000D01*
X25556054Y10286500D01*
X25587606Y10312394D01*
X25642308Y10379048D01*
X25690952Y10438320D01*
X25767744Y10581989D01*
X25767745Y10581990D01*
X25815034Y10737880D01*
X25827000Y10859376D01*
X25827000Y10859385D01*
X25831000Y10899999D01*
X25827000Y10940613D01*
X25827000Y17840760D01*
X25831000Y17881371D01*
X25827000Y17921982D01*
X25827000Y17921994D01*
X25815034Y18043490D01*
X25767745Y18199380D01*
X25690952Y18343049D01*
X25690951Y18343051D01*
X25613502Y18437423D01*
X25613496Y18437429D01*
X25587606Y18468976D01*
X25556059Y18494866D01*
X22744875Y21306048D01*
X22718976Y21337606D01*
X22593049Y21440952D01*
X22449380Y21517745D01*
X22293490Y21565034D01*
X22171994Y21577000D01*
X22171984Y21577000D01*
X22131370Y21581000D01*
X22090756Y21577000D01*
X20293399Y21577000D01*
X20280762Y21595913D01*
X20095927Y21780748D01*
X19878584Y21925972D01*
X19637086Y22026004D01*
X19380712Y22077000D01*
X19119316Y22077000D01*
X18862942Y22026004D01*
X18621444Y21925972D01*
X18404101Y21780748D01*
X18219266Y21595913D01*
X18074042Y21378570D01*
X17974010Y21137072D01*
X17923014Y20880698D01*
X17923014Y20619302D01*
X17974010Y20362928D01*
X18074042Y20121430D01*
X18219266Y19904087D01*
X18404101Y19719252D01*
X18621444Y19574028D01*
X18862942Y19473996D01*
X19119316Y19423000D01*
X19380712Y19423000D01*
X19637086Y19473996D01*
X19878584Y19574028D01*
X20095927Y19719252D01*
X20280762Y19904087D01*
X20293399Y19923000D01*
X21788817Y19923000D01*
X22798833Y18912983D01*
X22612928Y18876004D01*
X22371430Y18775972D01*
X22154087Y18630748D01*
X21969252Y18445913D01*
X21824028Y18228570D01*
X21723996Y17987072D01*
X21673000Y17730698D01*
X21673000Y17469302D01*
X21723996Y17212928D01*
X21824028Y16971430D01*
X21969252Y16754087D01*
X22154087Y16569252D01*
X22173000Y16556615D01*
X22173001Y12242555D01*
X18953009Y9022562D01*
X18930698Y9027000D01*
X18669302Y9027000D01*
X18412928Y8976004D01*
X18171430Y8875972D01*
X17954087Y8730748D01*
X17769252Y8545913D01*
X17624028Y8328570D01*
X17523996Y8087072D01*
X17473000Y7830698D01*
X17473000Y7569302D01*
X17523996Y7312928D01*
X17624028Y7071430D01*
X17769252Y6854087D01*
X17954087Y6669252D01*
X18171430Y6524028D01*
X18412928Y6423996D01*
X18669302Y6373000D01*
X18930698Y6373000D01*
X19187072Y6423996D01*
X19428570Y6524028D01*
X19506638Y6576191D01*
X18257447Y5327000D01*
X8077000Y5327000D01*
X8077000Y5380698D01*
X8026004Y5637072D01*
X7925972Y5878570D01*
X7780748Y6095913D01*
X7595913Y6280748D01*
X7378570Y6425972D01*
X7137072Y6526004D01*
X6880698Y6577000D01*
X6619302Y6577000D01*
X6362928Y6526004D01*
X6121430Y6425972D01*
X5904087Y6280748D01*
X5719252Y6095913D01*
X5574028Y5878570D01*
X5473996Y5637072D01*
X5423000Y5380698D01*
X5423000Y5119302D01*
X5473996Y4862928D01*
X5574028Y4621430D01*
X5719252Y4404087D01*
X5904087Y4219252D01*
X6121430Y4074028D01*
X6362928Y3973996D01*
X6619302Y3923000D01*
X6880698Y3923000D01*
X6900463Y3926932D01*
X6912394Y3912394D01*
X6943947Y3886499D01*
X6943948Y3886498D01*
X7038319Y3809048D01*
X7138407Y3755550D01*
X7181990Y3732255D01*
X7337880Y3684966D01*
X7459376Y3673000D01*
X7459385Y3673000D01*
X7499999Y3669000D01*
X7540613Y3673000D01*
X18559386Y3673000D01*
X18600000Y3669000D01*
X18640614Y3673000D01*
X18640624Y3673000D01*
X18762120Y3684966D01*
X18918010Y3732255D01*
X19061679Y3809048D01*
X19187606Y3912394D01*
X19213505Y3943952D01*
X19869553Y4600000D01*
X32261928Y4600000D01*
X32265000Y4035750D01*
X32423750Y3877000D01*
X33623000Y3877000D01*
X33623000Y5076250D01*
X33464250Y5235000D01*
X32900000Y5238072D01*
X32775518Y5225812D01*
X32655820Y5189502D01*
X32545506Y5130537D01*
X32448815Y5051185D01*
X32369463Y4954494D01*
X32310498Y4844180D01*
X32274188Y4724482D01*
X32261928Y4600000D01*
X19869553Y4600000D01*
X21746992Y6477438D01*
X21769302Y6473000D01*
X22030698Y6473000D01*
X22287072Y6523996D01*
X22528570Y6624028D01*
X22745913Y6769252D01*
X22930748Y6954087D01*
X22943385Y6973000D01*
X36977447Y6973000D01*
X38823446Y5127000D01*
X38694377Y5127000D01*
X38428344Y5074083D01*
X38177746Y4970282D01*
X37952213Y4819586D01*
X37760414Y4627787D01*
X37609718Y4402254D01*
X37560000Y4282224D01*
X37510282Y4402254D01*
X37359586Y4627787D01*
X37167787Y4819586D01*
X36942254Y4970282D01*
X36691656Y5074083D01*
X36425623Y5127000D01*
X36154377Y5127000D01*
X35888344Y5074083D01*
X35637746Y4970282D01*
X35412213Y4819586D01*
X35233997Y4641370D01*
X35225812Y4724482D01*
X35189502Y4844180D01*
X35130537Y4954494D01*
X35051185Y5051185D01*
X34954494Y5130537D01*
X34844180Y5189502D01*
X34724482Y5225812D01*
X34600000Y5238072D01*
X34035750Y5235000D01*
X33877000Y5076250D01*
X33877000Y3877000D01*
X33897000Y3877000D01*
X33897000Y3623000D01*
X33877000Y3623000D01*
X33877000Y2423750D01*
X34035750Y2265000D01*
X34600000Y2261928D01*
X34724482Y2274188D01*
X34844180Y2310498D01*
X34954494Y2369463D01*
X35051185Y2448815D01*
X35130537Y2545506D01*
X35189502Y2655820D01*
X35225812Y2775518D01*
X35233997Y2858630D01*
X35412213Y2680414D01*
X35637746Y2529718D01*
X35888344Y2425917D01*
X36154377Y2373000D01*
X36425623Y2373000D01*
X36691656Y2425917D01*
X36942254Y2529718D01*
X37167787Y2680414D01*
X37359586Y2872213D01*
X37510282Y3097746D01*
X37560000Y3217776D01*
X37609718Y3097746D01*
X37760414Y2872213D01*
X37952213Y2680414D01*
X38177746Y2529718D01*
X38428344Y2425917D01*
X38694377Y2373000D01*
X38965623Y2373000D01*
X39231656Y2425917D01*
X39482254Y2529718D01*
X39707787Y2680414D01*
X39899586Y2872213D01*
X40050282Y3097746D01*
X40100000Y3217776D01*
X40149718Y3097746D01*
X40300414Y2872213D01*
X40492213Y2680414D01*
X40717746Y2529718D01*
X40968344Y2425917D01*
X41234377Y2373000D01*
X41505623Y2373000D01*
X41771656Y2425917D01*
X42022254Y2529718D01*
X42247787Y2680414D01*
X42439586Y2872213D01*
X42590282Y3097746D01*
X42694083Y3348344D01*
X42747000Y3614377D01*
X42747000Y3885623D01*
X42694083Y4151656D01*
X42590282Y4402254D01*
X42439586Y4627787D01*
X42247787Y4819586D01*
X42197000Y4853521D01*
X42197000Y12827447D01*
X43146991Y13777438D01*
X43169302Y13773000D01*
X43430698Y13773000D01*
X43687072Y13823996D01*
X43928570Y13924028D01*
X44145913Y14069252D01*
X44330748Y14254087D01*
X44398000Y14354737D01*
X44398001Y602000D01*
X602000Y602000D01*
X602000Y2900000D01*
X32261928Y2900000D01*
X32274188Y2775518D01*
X32310498Y2655820D01*
X32369463Y2545506D01*
X32448815Y2448815D01*
X32545506Y2369463D01*
X32655820Y2310498D01*
X32775518Y2274188D01*
X32900000Y2261928D01*
X33464250Y2265000D01*
X33623000Y2423750D01*
X33623000Y3623000D01*
X32423750Y3623000D01*
X32265000Y3464250D01*
X32261928Y2900000D01*
X602000Y2900000D01*
X602000Y21400000D01*
X761928Y21400000D01*
X774188Y21275518D01*
X810498Y21155820D01*
X869463Y21045506D01*
X948815Y20948815D01*
X1045506Y20869463D01*
X1155820Y20810498D01*
X1275518Y20774188D01*
X1400000Y20761928D01*
X1964250Y20765000D01*
X2123000Y20923750D01*
X2123000Y22123000D01*
X923750Y22123000D01*
X765000Y21964250D01*
X761928Y21400000D01*
X602000Y21400000D01*
X602000Y23100000D01*
X761928Y23100000D01*
X765000Y22535750D01*
X923750Y22377000D01*
X2123000Y22377000D01*
X2123000Y23576250D01*
X1964250Y23735000D01*
X1400000Y23738072D01*
X1275518Y23725812D01*
X1155820Y23689502D01*
X1045506Y23630537D01*
X948815Y23551185D01*
X869463Y23454494D01*
X810498Y23344180D01*
X774188Y23224482D01*
X761928Y23100000D01*
X602000Y23100000D01*
X602000Y24398000D01*
X5768445Y24398000D01*
X4985530Y23615084D01*
G37*
X4985530Y23615084D02*
X4925623Y23627000D01*
X4654377Y23627000D01*
X4388344Y23574083D01*
X4137746Y23470282D01*
X3912213Y23319586D01*
X3733997Y23141370D01*
X3725812Y23224482D01*
X3689502Y23344180D01*
X3630537Y23454494D01*
X3551185Y23551185D01*
X3454494Y23630537D01*
X3344180Y23689502D01*
X3224482Y23725812D01*
X3100000Y23738072D01*
X2535750Y23735000D01*
X2377000Y23576250D01*
X2377000Y22377000D01*
X2397000Y22377000D01*
X2397000Y22123000D01*
X2377000Y22123000D01*
X2377000Y20923750D01*
X2535750Y20765000D01*
X3100000Y20761928D01*
X3224482Y20774188D01*
X3344180Y20810498D01*
X3454494Y20869463D01*
X3551185Y20948815D01*
X3630537Y21045506D01*
X3689502Y21155820D01*
X3725812Y21275518D01*
X3733997Y21358630D01*
X3912213Y21180414D01*
X4137746Y21029718D01*
X4388344Y20925917D01*
X4654377Y20873000D01*
X4925623Y20873000D01*
X5191656Y20925917D01*
X5442254Y21029718D01*
X5667787Y21180414D01*
X5859586Y21372213D01*
X6010282Y21597746D01*
X6060000Y21717776D01*
X6109718Y21597746D01*
X6260414Y21372213D01*
X6452213Y21180414D01*
X6503000Y21146479D01*
X6503001Y11110624D01*
X6499000Y11070000D01*
X6514967Y10907880D01*
X6562256Y10751990D01*
X6639048Y10608321D01*
X6716498Y10513949D01*
X6742395Y10482394D01*
X6773948Y10456499D01*
X10077438Y7153008D01*
X10073000Y7130698D01*
X10073000Y6869302D01*
X10123996Y6612928D01*
X10224028Y6371430D01*
X10369252Y6154087D01*
X10554087Y5969252D01*
X10771430Y5824028D01*
X11012928Y5723996D01*
X11269302Y5673000D01*
X11530698Y5673000D01*
X11787072Y5723996D01*
X12028570Y5824028D01*
X12245913Y5969252D01*
X12430748Y6154087D01*
X12575972Y6371430D01*
X12676004Y6612928D01*
X12727000Y6869302D01*
X12727000Y7130698D01*
X12676004Y7387072D01*
X12575972Y7628570D01*
X12430748Y7845913D01*
X12245913Y8030748D01*
X12028570Y8175972D01*
X11787072Y8276004D01*
X11530698Y8327000D01*
X11269302Y8327000D01*
X11246992Y8322562D01*
X8157000Y11412553D01*
X8157000Y21146479D01*
X8207787Y21180414D01*
X8399586Y21372213D01*
X8550282Y21597746D01*
X8654083Y21848344D01*
X8707000Y22114377D01*
X8707000Y22385623D01*
X8654083Y22651656D01*
X8550282Y22902254D01*
X8399586Y23127787D01*
X8304373Y23223000D01*
X11907447Y23223000D01*
X17376892Y17753553D01*
X17369252Y17745913D01*
X17224028Y17528570D01*
X17123996Y17287072D01*
X17073000Y17030698D01*
X17073000Y16769302D01*
X17123996Y16512928D01*
X17224028Y16271430D01*
X17369252Y16054087D01*
X17554087Y15869252D01*
X17771430Y15724028D01*
X18012928Y15623996D01*
X18269302Y15573000D01*
X18530698Y15573000D01*
X18787072Y15623996D01*
X19028570Y15724028D01*
X19245913Y15869252D01*
X19430748Y16054087D01*
X19575972Y16271430D01*
X19676004Y16512928D01*
X19727000Y16769302D01*
X19727000Y17030698D01*
X19676004Y17287072D01*
X19575972Y17528570D01*
X19430748Y17745913D01*
X19245913Y17930748D01*
X19226709Y17943580D01*
X19215034Y18062120D01*
X19167745Y18218010D01*
X19090952Y18361679D01*
X19090951Y18361681D01*
X19013502Y18456053D01*
X19013496Y18456059D01*
X18987606Y18487606D01*
X18956059Y18513496D01*
X13071553Y24398000D01*
X28873000Y24398000D01*
X28873000Y23500000D01*
X28876081Y23472194D01*
X28883887Y23448553D01*
X28896155Y23426889D01*
X28912414Y23408034D01*
X31012414Y21408034D01*
X31029443Y21394403D01*
X31051399Y21382667D01*
X31075224Y21375440D01*
X31100000Y21373000D01*
X38500000Y21373000D01*
X38524776Y21375440D01*
X38548601Y21382667D01*
X38570557Y21394403D01*
X38589803Y21410197D01*
X40589803Y23410197D01*
X40605597Y23429443D01*
X40617333Y23451399D01*
X40624560Y23475224D01*
X40627000Y23500000D01*
X40627000Y24398000D01*
X44398000Y24398000D01*
X44398000Y15845263D01*
X44330748Y15945913D01*
X44145913Y16130748D01*
X43928570Y16275972D01*
X43687072Y16376004D01*
X43430698Y16427000D01*
X43169302Y16427000D01*
X42912928Y16376004D01*
X42671430Y16275972D01*
X42454087Y16130748D01*
X42269252Y15945913D01*
X42124028Y15728570D01*
X42023996Y15487072D01*
X41973000Y15230698D01*
X41973000Y14969302D01*
X41977438Y14946991D01*
X40813952Y13783505D01*
X40782394Y13757606D01*
X40756498Y13726051D01*
X40679048Y13631679D01*
X40638002Y13554886D01*
X40602255Y13488009D01*
X40554966Y13332119D01*
X40543000Y13210623D01*
X40543000Y13210614D01*
X40539000Y13170000D01*
X40543000Y13129386D01*
X40543001Y5746553D01*
X37933505Y8356048D01*
X37907606Y8387606D01*
X37781679Y8490952D01*
X37638010Y8567745D01*
X37482120Y8615034D01*
X37360624Y8627000D01*
X37360614Y8627000D01*
X37320000Y8631000D01*
X37279386Y8627000D01*
X23896553Y8627000D01*
X25556054Y10286500D01*
X25587606Y10312394D01*
X25642308Y10379048D01*
X25690952Y10438320D01*
X25767744Y10581989D01*
X25767745Y10581990D01*
X25815034Y10737880D01*
X25827000Y10859376D01*
X25827000Y10859385D01*
X25831000Y10899999D01*
X25827000Y10940613D01*
X25827000Y17840760D01*
X25831000Y17881371D01*
X25827000Y17921982D01*
X25827000Y17921994D01*
X25815034Y18043490D01*
X25767745Y18199380D01*
X25690952Y18343049D01*
X25690951Y18343051D01*
X25613502Y18437423D01*
X25613496Y18437429D01*
X25587606Y18468976D01*
X25556059Y18494866D01*
X22744875Y21306048D01*
X22718976Y21337606D01*
X22593049Y21440952D01*
X22449380Y21517745D01*
X22293490Y21565034D01*
X22171994Y21577000D01*
X22171984Y21577000D01*
X22131370Y21581000D01*
X22090756Y21577000D01*
X20293399Y21577000D01*
X20280762Y21595913D01*
X20095927Y21780748D01*
X19878584Y21925972D01*
X19637086Y22026004D01*
X19380712Y22077000D01*
X19119316Y22077000D01*
X18862942Y22026004D01*
X18621444Y21925972D01*
X18404101Y21780748D01*
X18219266Y21595913D01*
X18074042Y21378570D01*
X17974010Y21137072D01*
X17923014Y20880698D01*
X17923014Y20619302D01*
X17974010Y20362928D01*
X18074042Y20121430D01*
X18219266Y19904087D01*
X18404101Y19719252D01*
X18621444Y19574028D01*
X18862942Y19473996D01*
X19119316Y19423000D01*
X19380712Y19423000D01*
X19637086Y19473996D01*
X19878584Y19574028D01*
X20095927Y19719252D01*
X20280762Y19904087D01*
X20293399Y19923000D01*
X21788817Y19923000D01*
X22798833Y18912983D01*
X22612928Y18876004D01*
X22371430Y18775972D01*
X22154087Y18630748D01*
X21969252Y18445913D01*
X21824028Y18228570D01*
X21723996Y17987072D01*
X21673000Y17730698D01*
X21673000Y17469302D01*
X21723996Y17212928D01*
X21824028Y16971430D01*
X21969252Y16754087D01*
X22154087Y16569252D01*
X22173000Y16556615D01*
X22173001Y12242555D01*
X18953009Y9022562D01*
X18930698Y9027000D01*
X18669302Y9027000D01*
X18412928Y8976004D01*
X18171430Y8875972D01*
X17954087Y8730748D01*
X17769252Y8545913D01*
X17624028Y8328570D01*
X17523996Y8087072D01*
X17473000Y7830698D01*
X17473000Y7569302D01*
X17523996Y7312928D01*
X17624028Y7071430D01*
X17769252Y6854087D01*
X17954087Y6669252D01*
X18171430Y6524028D01*
X18412928Y6423996D01*
X18669302Y6373000D01*
X18930698Y6373000D01*
X19187072Y6423996D01*
X19428570Y6524028D01*
X19506638Y6576191D01*
X18257447Y5327000D01*
X8077000Y5327000D01*
X8077000Y5380698D01*
X8026004Y5637072D01*
X7925972Y5878570D01*
X7780748Y6095913D01*
X7595913Y6280748D01*
X7378570Y6425972D01*
X7137072Y6526004D01*
X6880698Y6577000D01*
X6619302Y6577000D01*
X6362928Y6526004D01*
X6121430Y6425972D01*
X5904087Y6280748D01*
X5719252Y6095913D01*
X5574028Y5878570D01*
X5473996Y5637072D01*
X5423000Y5380698D01*
X5423000Y5119302D01*
X5473996Y4862928D01*
X5574028Y4621430D01*
X5719252Y4404087D01*
X5904087Y4219252D01*
X6121430Y4074028D01*
X6362928Y3973996D01*
X6619302Y3923000D01*
X6880698Y3923000D01*
X6900463Y3926932D01*
X6912394Y3912394D01*
X6943947Y3886499D01*
X6943948Y3886498D01*
X7038319Y3809048D01*
X7138407Y3755550D01*
X7181990Y3732255D01*
X7337880Y3684966D01*
X7459376Y3673000D01*
X7459385Y3673000D01*
X7499999Y3669000D01*
X7540613Y3673000D01*
X18559386Y3673000D01*
X18600000Y3669000D01*
X18640614Y3673000D01*
X18640624Y3673000D01*
X18762120Y3684966D01*
X18918010Y3732255D01*
X19061679Y3809048D01*
X19187606Y3912394D01*
X19213505Y3943952D01*
X19869553Y4600000D01*
X32261928Y4600000D01*
X32265000Y4035750D01*
X32423750Y3877000D01*
X33623000Y3877000D01*
X33623000Y5076250D01*
X33464250Y5235000D01*
X32900000Y5238072D01*
X32775518Y5225812D01*
X32655820Y5189502D01*
X32545506Y5130537D01*
X32448815Y5051185D01*
X32369463Y4954494D01*
X32310498Y4844180D01*
X32274188Y4724482D01*
X32261928Y4600000D01*
X19869553Y4600000D01*
X21746992Y6477438D01*
X21769302Y6473000D01*
X22030698Y6473000D01*
X22287072Y6523996D01*
X22528570Y6624028D01*
X22745913Y6769252D01*
X22930748Y6954087D01*
X22943385Y6973000D01*
X36977447Y6973000D01*
X38823446Y5127000D01*
X38694377Y5127000D01*
X38428344Y5074083D01*
X38177746Y4970282D01*
X37952213Y4819586D01*
X37760414Y4627787D01*
X37609718Y4402254D01*
X37560000Y4282224D01*
X37510282Y4402254D01*
X37359586Y4627787D01*
X37167787Y4819586D01*
X36942254Y4970282D01*
X36691656Y5074083D01*
X36425623Y5127000D01*
X36154377Y5127000D01*
X35888344Y5074083D01*
X35637746Y4970282D01*
X35412213Y4819586D01*
X35233997Y4641370D01*
X35225812Y4724482D01*
X35189502Y4844180D01*
X35130537Y4954494D01*
X35051185Y5051185D01*
X34954494Y5130537D01*
X34844180Y5189502D01*
X34724482Y5225812D01*
X34600000Y5238072D01*
X34035750Y5235000D01*
X33877000Y5076250D01*
X33877000Y3877000D01*
X33897000Y3877000D01*
X33897000Y3623000D01*
X33877000Y3623000D01*
X33877000Y2423750D01*
X34035750Y2265000D01*
X34600000Y2261928D01*
X34724482Y2274188D01*
X34844180Y2310498D01*
X34954494Y2369463D01*
X35051185Y2448815D01*
X35130537Y2545506D01*
X35189502Y2655820D01*
X35225812Y2775518D01*
X35233997Y2858630D01*
X35412213Y2680414D01*
X35637746Y2529718D01*
X35888344Y2425917D01*
X36154377Y2373000D01*
X36425623Y2373000D01*
X36691656Y2425917D01*
X36942254Y2529718D01*
X37167787Y2680414D01*
X37359586Y2872213D01*
X37510282Y3097746D01*
X37560000Y3217776D01*
X37609718Y3097746D01*
X37760414Y2872213D01*
X37952213Y2680414D01*
X38177746Y2529718D01*
X38428344Y2425917D01*
X38694377Y2373000D01*
X38965623Y2373000D01*
X39231656Y2425917D01*
X39482254Y2529718D01*
X39707787Y2680414D01*
X39899586Y2872213D01*
X40050282Y3097746D01*
X40100000Y3217776D01*
X40149718Y3097746D01*
X40300414Y2872213D01*
X40492213Y2680414D01*
X40717746Y2529718D01*
X40968344Y2425917D01*
X41234377Y2373000D01*
X41505623Y2373000D01*
X41771656Y2425917D01*
X42022254Y2529718D01*
X42247787Y2680414D01*
X42439586Y2872213D01*
X42590282Y3097746D01*
X42694083Y3348344D01*
X42747000Y3614377D01*
X42747000Y3885623D01*
X42694083Y4151656D01*
X42590282Y4402254D01*
X42439586Y4627787D01*
X42247787Y4819586D01*
X42197000Y4853521D01*
X42197000Y12827447D01*
X43146991Y13777438D01*
X43169302Y13773000D01*
X43430698Y13773000D01*
X43687072Y13823996D01*
X43928570Y13924028D01*
X44145913Y14069252D01*
X44330748Y14254087D01*
X44398000Y14354737D01*
X44398001Y602000D01*
X602000Y602000D01*
X602000Y2900000D01*
X32261928Y2900000D01*
X32274188Y2775518D01*
X32310498Y2655820D01*
X32369463Y2545506D01*
X32448815Y2448815D01*
X32545506Y2369463D01*
X32655820Y2310498D01*
X32775518Y2274188D01*
X32900000Y2261928D01*
X33464250Y2265000D01*
X33623000Y2423750D01*
X33623000Y3623000D01*
X32423750Y3623000D01*
X32265000Y3464250D01*
X32261928Y2900000D01*
X602000Y2900000D01*
X602000Y21400000D01*
X761928Y21400000D01*
X774188Y21275518D01*
X810498Y21155820D01*
X869463Y21045506D01*
X948815Y20948815D01*
X1045506Y20869463D01*
X1155820Y20810498D01*
X1275518Y20774188D01*
X1400000Y20761928D01*
X1964250Y20765000D01*
X2123000Y20923750D01*
X2123000Y22123000D01*
X923750Y22123000D01*
X765000Y21964250D01*
X761928Y21400000D01*
X602000Y21400000D01*
X602000Y23100000D01*
X761928Y23100000D01*
X765000Y22535750D01*
X923750Y22377000D01*
X2123000Y22377000D01*
X2123000Y23576250D01*
X1964250Y23735000D01*
X1400000Y23738072D01*
X1275518Y23725812D01*
X1155820Y23689502D01*
X1045506Y23630537D01*
X948815Y23551185D01*
X869463Y23454494D01*
X810498Y23344180D01*
X774188Y23224482D01*
X761928Y23100000D01*
X602000Y23100000D01*
X602000Y24398000D01*
X5768445Y24398000D01*
X4985530Y23615084D01*
%TD*%
M02*
