  0
SECTION
  2
HEADER
  9
$ANGBASE
  50
0.0
  9
$ANGDIR
  70
1
  9
$MEASUREMENT
  70
1
  0
ENDSEC
  0
SECTION
  2
TABLES
  0
TABLE
  2
LTYPE
  70
4
  0
LTYPE
  5
40F
  2
CONTINUOUS
  70
0
  3
Solid line
  72
65
  73
0
  40
0.0
  0
LTYPE
  5
410
  2
DASHDOT
 70
0
  3
Dash Dot ____ _ ____ _
 72
65
 73
4
 40
2.0
 49
1.25
 49
-0.25
 49
0.25
 49
-0.25
  0
LTYPE
  5
411
  2
DASHED
 70
0
  3
Dashed __ __ __ __ __
 72
65
 73
2
 40
0.75
 49
0.5
 49
-0.25
  0
LTYPE
  5
43B
  2
DOTTED
 70
0
  3
Dotted .  .  .  .
 72
65
 73
2
 40
0.2
 49
0.0
 49
-0.2
  0
ENDTAB
  0
TABLE
  2
STYLE
  70
4
  0
STYLE
  2
KICAD
  70
0
  40
0
  41
1
  42
1
  50
0
  71
0
  3
isocp.shx
  0
STYLE
  2
KICADB
  70
0
  40
0
  41
1
  42
1
  50
0
  71
0
  3
isocp.shx
  0
STYLE
  2
KICADI
  70
0
  40
0
  41
1
  42
1
  50
15
  71
0
  3
isocp.shx
  0
STYLE
  2
KICADBI
  70
0
  40
0
  41
1
  42
1
  50
15
  71
0
  3
isocp.shx
  0
ENDTAB
  0
TABLE
  2
LAYER
  70
1
  0
LAYER
  2
BLACK
  70
0
  62
7
  6
CONTINUOUS
  0
ENDTAB
  0
ENDSEC
  0
SECTION
  2
ENTITIES
0
LINE
8
BLACK
6
CONTINUOUS
10
43.0037
20
25.075
11
43.0147
21
25.0739
0
LINE
8
BLACK
6
CONTINUOUS
10
43.0147
20
25.0739
11
43.0288
21
25.0696
0
LINE
8
BLACK
6
CONTINUOUS
10
43.0288
20
25.0696
11
43.0419
21
25.0627
0
LINE
8
BLACK
6
CONTINUOUS
10
43.0419
20
25.0627
11
43.0533
21
25.0533
0
LINE
8
BLACK
6
CONTINUOUS
10
43.0533
20
25.0533
11
43.0627
21
25.0419
0
LINE
8
BLACK
6
CONTINUOUS
10
43.0627
20
25.0419
11
43.0696
21
25.0288
0
LINE
8
BLACK
6
CONTINUOUS
10
43.0696
20
25.0288
11
43.0739
21
25.0147
0
LINE
8
BLACK
6
CONTINUOUS
10
43.0739
20
25.0147
11
43.0754
21
25
0
LINE
8
BLACK
6
CONTINUOUS
10
43.0754
20
25
11
43.075
21
24.9963
0
LINE
8
BLACK
6
CONTINUOUS
10
43.075
20
24.9963
11
43.075
21
0.003675
0
LINE
8
BLACK
6
CONTINUOUS
10
43.075
20
0.003675
11
43.0754
21
0
0
LINE
8
BLACK
6
CONTINUOUS
10
43.0754
20
0
11
43.0739
21
-0.014702
0
LINE
8
BLACK
6
CONTINUOUS
10
43.0739
20
-0.014702
11
43.0696
21
-0.02884
0
LINE
8
BLACK
6
CONTINUOUS
10
43.0696
20
-0.02884
11
43.0627
21
-0.041869
0
LINE
8
BLACK
6
CONTINUOUS
10
43.0627
20
-0.041869
11
43.0533
21
-0.053289
0
LINE
8
BLACK
6
CONTINUOUS
10
43.0533
20
-0.053289
11
43.0419
21
-0.062661
0
LINE
8
BLACK
6
CONTINUOUS
10
43.0419
20
-0.062661
11
43.0288
21
-0.069625
0
LINE
8
BLACK
6
CONTINUOUS
10
43.0288
20
-0.069625
11
43.0147
21
-0.073914
0
LINE
8
BLACK
6
CONTINUOUS
10
43.0147
20
-0.073914
11
43.0037
21
-0.075
0
LINE
8
BLACK
6
CONTINUOUS
10
43.0037
20
-0.075
11
43
21
-0.075362
0
LINE
8
BLACK
6
CONTINUOUS
10
43
20
-0.075362
11
42.9963
21
-0.075
0
LINE
8
BLACK
6
CONTINUOUS
10
42.9963
20
-0.075
11
0.003675
21
-0.075
0
LINE
8
BLACK
6
CONTINUOUS
10
0.003675
20
-0.075
11
0
21
-0.075362
0
LINE
8
BLACK
6
CONTINUOUS
10
0
20
-0.075362
11
-0.014702
21
-0.073914
0
LINE
8
BLACK
6
CONTINUOUS
10
-0.014702
20
-0.073914
11
-0.02884
21
-0.069625
0
LINE
8
BLACK
6
CONTINUOUS
10
-0.02884
20
-0.069625
11
-0.041869
21
-0.062661
0
LINE
8
BLACK
6
CONTINUOUS
10
-0.041869
20
-0.062661
11
-0.053289
21
-0.053289
0
LINE
8
BLACK
6
CONTINUOUS
10
-0.053289
20
-0.053289
11
-0.062661
21
-0.041869
0
LINE
8
BLACK
6
CONTINUOUS
10
-0.062661
20
-0.041869
11
-0.069625
21
-0.02884
0
LINE
8
BLACK
6
CONTINUOUS
10
-0.069625
20
-0.02884
11
-0.073914
21
-0.014702
0
LINE
8
BLACK
6
CONTINUOUS
10
-0.073914
20
-0.014702
11
-0.075362
21
0
0
LINE
8
BLACK
6
CONTINUOUS
10
-0.075362
20
0
11
-0.075
21
0.003676
0
LINE
8
BLACK
6
CONTINUOUS
10
-0.075
20
0.003676
11
-0.074999
21
24.9963
0
LINE
8
BLACK
6
CONTINUOUS
10
-0.074999
20
24.9963
11
-0.075362
21
25
0
LINE
8
BLACK
6
CONTINUOUS
10
-0.075362
20
25
11
-0.073914
21
25.0147
0
LINE
8
BLACK
6
CONTINUOUS
10
-0.073914
20
25.0147
11
-0.069625
21
25.0288
0
LINE
8
BLACK
6
CONTINUOUS
10
-0.069625
20
25.0288
11
-0.062661
21
25.0419
0
LINE
8
BLACK
6
CONTINUOUS
10
-0.062661
20
25.0419
11
-0.053289
21
25.0533
0
LINE
8
BLACK
6
CONTINUOUS
10
-0.053289
20
25.0533
11
-0.041869
21
25.0627
0
LINE
8
BLACK
6
CONTINUOUS
10
-0.041869
20
25.0627
11
-0.02884
21
25.0696
0
LINE
8
BLACK
6
CONTINUOUS
10
-0.02884
20
25.0696
11
-0.014702
21
25.0739
0
LINE
8
BLACK
6
CONTINUOUS
10
-0.014702
20
25.0739
11
-0.003675
21
25.075
0
LINE
8
BLACK
6
CONTINUOUS
10
-0.003675
20
25.075
11
0
21
25.0754
0
LINE
8
BLACK
6
CONTINUOUS
10
0
20
25.0754
11
0.003675
21
25.075
0
LINE
8
BLACK
6
CONTINUOUS
10
0.003675
20
25.075
11
42.9963
21
25.075
0
LINE
8
BLACK
6
CONTINUOUS
10
42.9963
20
25.075
11
43
21
25.0754
0
LINE
8
BLACK
6
CONTINUOUS
10
43
20
25.0754
11
43.0037
21
25.075
0
LINE
8
BLACK
6
CONTINUOUS
10
0.075
20
24.925
11
0.075
21
0.075
0
LINE
8
BLACK
6
CONTINUOUS
10
0.075
20
0.075
11
42.925
21
0.075
0
LINE
8
BLACK
6
CONTINUOUS
10
42.925
20
0.075
11
42.925
21
24.925
0
LINE
8
BLACK
6
CONTINUOUS
10
42.925
20
24.925
11
0.075
21
24.925
0
LINE
8
BLACK
6
CONTINUOUS
10
19.2334
20
23.2693
11
19.3789
21
23.209
0
LINE
8
BLACK
6
CONTINUOUS
10
19.3789
20
23.209
11
19.51
21
23.1214
0
LINE
8
BLACK
6
CONTINUOUS
10
19.51
20
23.1214
11
19.6214
21
23.01
0
LINE
8
BLACK
6
CONTINUOUS
10
19.6214
20
23.01
11
19.709
21
22.8789
0
LINE
8
BLACK
6
CONTINUOUS
10
19.709
20
22.8789
11
19.7693
21
22.7334
0
LINE
8
BLACK
6
CONTINUOUS
10
19.7693
20
22.7334
11
19.7759
21
22.7
0
LINE
8
BLACK
6
CONTINUOUS
10
19.7759
20
22.7
11
23.7241
21
22.7
0
LINE
8
BLACK
6
CONTINUOUS
10
23.7241
20
22.7
11
23.7307
21
22.7334
0
LINE
8
BLACK
6
CONTINUOUS
10
23.7307
20
22.7334
11
23.791
21
22.8789
0
LINE
8
BLACK
6
CONTINUOUS
10
23.791
20
22.8789
11
23.8786
21
23.01
0
LINE
8
BLACK
6
CONTINUOUS
10
23.8786
20
23.01
11
23.99
21
23.1214
0
LINE
8
BLACK
6
CONTINUOUS
10
23.99
20
23.1214
11
24.1211
21
23.209
0
LINE
8
BLACK
6
CONTINUOUS
10
24.1211
20
23.209
11
24.2666
21
23.2693
0
LINE
8
BLACK
6
CONTINUOUS
10
24.2666
20
23.2693
11
24.4212
21
23.3
0
LINE
8
BLACK
6
CONTINUOUS
10
24.4212
20
23.3
11
24.5788
21
23.3
0
LINE
8
BLACK
6
CONTINUOUS
10
24.5788
20
23.3
11
24.7333
21
23.2693
0
LINE
8
BLACK
6
CONTINUOUS
10
24.7333
20
23.2693
11
24.8789
21
23.209
0
LINE
8
BLACK
6
CONTINUOUS
10
24.8789
20
23.209
11
25.01
21
23.1214
0
LINE
8
BLACK
6
CONTINUOUS
10
25.01
20
23.1214
11
25.1214
21
23.01
0
LINE
8
BLACK
6
CONTINUOUS
10
25.1214
20
23.01
11
25.2089
21
22.8789
0
LINE
8
BLACK
6
CONTINUOUS
10
25.2089
20
22.8789
11
25.2693
21
22.7334
0
LINE
8
BLACK
6
CONTINUOUS
10
25.2693
20
22.7334
11
25.3
21
22.5788
0
LINE
8
BLACK
6
CONTINUOUS
10
25.3
20
22.5788
11
25.3
21
22.4212
0
LINE
8
BLACK
6
CONTINUOUS
10
25.3
20
22.4212
11
25.2693
21
22.2666
0
LINE
8
BLACK
6
CONTINUOUS
10
25.2693
20
22.2666
11
25.2089
21
22.1211
0
LINE
8
BLACK
6
CONTINUOUS
10
25.2089
20
22.1211
11
25.1214
21
21.99
0
LINE
8
BLACK
6
CONTINUOUS
10
25.1214
20
21.99
11
25.01
21
21.8786
0
LINE
8
BLACK
6
CONTINUOUS
10
25.01
20
21.8786
11
24.8789
21
21.791
0
LINE
8
BLACK
6
CONTINUOUS
10
24.8789
20
21.791
11
24.7333
21
21.7307
0
LINE
8
BLACK
6
CONTINUOUS
10
24.7333
20
21.7307
11
24.5788
21
21.7
0
LINE
8
BLACK
6
CONTINUOUS
10
24.5788
20
21.7
11
24.4212
21
21.7
0
LINE
8
BLACK
6
CONTINUOUS
10
24.4212
20
21.7
11
24.2666
21
21.7307
0
LINE
8
BLACK
6
CONTINUOUS
10
24.2666
20
21.7307
11
24.1211
21
21.791
0
LINE
8
BLACK
6
CONTINUOUS
10
24.1211
20
21.791
11
23.99
21
21.8786
0
LINE
8
BLACK
6
CONTINUOUS
10
23.99
20
21.8786
11
23.8786
21
21.99
0
LINE
8
BLACK
6
CONTINUOUS
10
23.8786
20
21.99
11
23.791
21
22.1211
0
LINE
8
BLACK
6
CONTINUOUS
10
23.791
20
22.1211
11
23.7307
21
22.2666
0
LINE
8
BLACK
6
CONTINUOUS
10
23.7307
20
22.2666
11
23.7241
21
22.3
0
LINE
8
BLACK
6
CONTINUOUS
10
23.7241
20
22.3
11
19.7759
21
22.3
0
LINE
8
BLACK
6
CONTINUOUS
10
19.7759
20
22.3
11
19.7693
21
22.2666
0
LINE
8
BLACK
6
CONTINUOUS
10
19.7693
20
22.2666
11
19.709
21
22.1211
0
LINE
8
BLACK
6
CONTINUOUS
10
19.709
20
22.1211
11
19.6214
21
21.99
0
LINE
8
BLACK
6
CONTINUOUS
10
19.6214
20
21.99
11
19.51
21
21.8786
0
LINE
8
BLACK
6
CONTINUOUS
10
19.51
20
21.8786
11
19.3789
21
21.791
0
LINE
8
BLACK
6
CONTINUOUS
10
19.3789
20
21.791
11
19.2334
21
21.7307
0
LINE
8
BLACK
6
CONTINUOUS
10
19.2334
20
21.7307
11
19.2
21
21.7241
0
LINE
8
BLACK
6
CONTINUOUS
10
19.2
20
21.7241
11
19.2
21
7.77589
0
LINE
8
BLACK
6
CONTINUOUS
10
19.2
20
7.77589
11
19.2334
21
7.76926
0
LINE
8
BLACK
6
CONTINUOUS
10
19.2334
20
7.76926
11
19.3789
21
7.70895
0
LINE
8
BLACK
6
CONTINUOUS
10
19.3789
20
7.70895
11
19.51
21
7.6214
0
LINE
8
BLACK
6
CONTINUOUS
10
19.51
20
7.6214
11
19.6214
21
7.50997
0
LINE
8
BLACK
6
CONTINUOUS
10
19.6214
20
7.50997
11
19.709
21
7.37894
0
LINE
8
BLACK
6
CONTINUOUS
10
19.709
20
7.37894
11
19.7693
21
7.23335
0
LINE
8
BLACK
6
CONTINUOUS
10
19.7693
20
7.23335
11
19.8
21
7.07879
0
LINE
8
BLACK
6
CONTINUOUS
10
19.8
20
7.07879
11
19.8
21
6.92121
0
LINE
8
BLACK
6
CONTINUOUS
10
19.8
20
6.92121
11
19.7693
21
6.76665
0
LINE
8
BLACK
6
CONTINUOUS
10
19.7693
20
6.76665
11
19.709
21
6.62106
0
LINE
8
BLACK
6
CONTINUOUS
10
19.709
20
6.62106
11
19.6901
21
6.59278
0
LINE
8
BLACK
6
CONTINUOUS
10
19.6901
20
6.59278
11
19.8828
21
6.4
0
LINE
8
BLACK
6
CONTINUOUS
10
19.8828
20
6.4
11
35.8241
21
6.4
0
LINE
8
BLACK
6
CONTINUOUS
10
35.8241
20
6.4
11
35.8307
21
6.43335
0
LINE
8
BLACK
6
CONTINUOUS
10
35.8307
20
6.43335
11
35.891
21
6.57894
0
LINE
8
BLACK
6
CONTINUOUS
10
35.891
20
6.57894
11
35.9786
21
6.70997
0
LINE
8
BLACK
6
CONTINUOUS
10
35.9786
20
6.70997
11
36.09
21
6.8214
0
LINE
8
BLACK
6
CONTINUOUS
10
36.09
20
6.8214
11
36.2211
21
6.90895
0
LINE
8
BLACK
6
CONTINUOUS
10
36.2211
20
6.90895
11
36.3666
21
6.96926
0
LINE
8
BLACK
6
CONTINUOUS
10
36.3666
20
6.96926
11
36.5212
21
7
0
LINE
8
BLACK
6
CONTINUOUS
10
36.5212
20
7
11
36.6788
21
7
0
LINE
8
BLACK
6
CONTINUOUS
10
36.6788
20
7
11
36.8334
21
6.96926
0
LINE
8
BLACK
6
CONTINUOUS
10
36.8334
20
6.96926
11
36.9789
21
6.90895
0
LINE
8
BLACK
6
CONTINUOUS
10
36.9789
20
6.90895
11
37.11
21
6.8214
0
LINE
8
BLACK
6
CONTINUOUS
10
37.11
20
6.8214
11
37.2214
21
6.70997
0
LINE
8
BLACK
6
CONTINUOUS
10
37.2214
20
6.70997
11
37.309
21
6.57894
0
LINE
8
BLACK
6
CONTINUOUS
10
37.309
20
6.57894
11
37.3693
21
6.43335
0
LINE
8
BLACK
6
CONTINUOUS
10
37.3693
20
6.43335
11
37.3759
21
6.4
0
LINE
8
BLACK
6
CONTINUOUS
10
37.3759
20
6.4
11
40.5241
21
6.4
0
LINE
8
BLACK
6
CONTINUOUS
10
40.5241
20
6.4
11
40.5307
21
6.43335
0
LINE
8
BLACK
6
CONTINUOUS
10
40.5307
20
6.43335
11
40.591
21
6.57894
0
LINE
8
BLACK
6
CONTINUOUS
10
40.591
20
6.57894
11
40.6786
21
6.70997
0
LINE
8
BLACK
6
CONTINUOUS
10
40.6786
20
6.70997
11
40.79
21
6.8214
0
LINE
8
BLACK
6
CONTINUOUS
10
40.79
20
6.8214
11
40.9211
21
6.90895
0
LINE
8
BLACK
6
CONTINUOUS
10
40.9211
20
6.90895
11
41.0666
21
6.96926
0
LINE
8
BLACK
6
CONTINUOUS
10
41.0666
20
6.96926
11
41.2212
21
7
0
LINE
8
BLACK
6
CONTINUOUS
10
41.2212
20
7
11
41.3788
21
7
0
LINE
8
BLACK
6
CONTINUOUS
10
41.3788
20
7
11
41.5334
21
6.96926
0
LINE
8
BLACK
6
CONTINUOUS
10
41.5334
20
6.96926
11
41.6789
21
6.90895
0
LINE
8
BLACK
6
CONTINUOUS
10
41.6789
20
6.90895
11
41.81
21
6.8214
0
LINE
8
BLACK
6
CONTINUOUS
10
41.81
20
6.8214
11
41.9214
21
6.70997
0
LINE
8
BLACK
6
CONTINUOUS
10
41.9214
20
6.70997
11
42.009
21
6.57894
0
LINE
8
BLACK
6
CONTINUOUS
10
42.009
20
6.57894
11
42.0693
21
6.43335
0
LINE
8
BLACK
6
CONTINUOUS
10
42.0693
20
6.43335
11
42.1
21
6.27879
0
LINE
8
BLACK
6
CONTINUOUS
10
42.1
20
6.27879
11
42.1
21
6.12121
0
LINE
8
BLACK
6
CONTINUOUS
10
42.1
20
6.12121
11
42.0693
21
5.96665
0
LINE
8
BLACK
6
CONTINUOUS
10
42.0693
20
5.96665
11
42.009
21
5.82106
0
LINE
8
BLACK
6
CONTINUOUS
10
42.009
20
5.82106
11
41.9214
21
5.69003
0
LINE
8
BLACK
6
CONTINUOUS
10
41.9214
20
5.69003
11
41.81
21
5.5786
0
LINE
8
BLACK
6
CONTINUOUS
10
41.81
20
5.5786
11
41.6789
21
5.49105
0
LINE
8
BLACK
6
CONTINUOUS
10
41.6789
20
5.49105
11
41.5334
21
5.43074
0
LINE
8
BLACK
6
CONTINUOUS
10
41.5334
20
5.43074
11
41.3788
21
5.4
0
LINE
8
BLACK
6
CONTINUOUS
10
41.3788
20
5.4
11
41.2212
21
5.4
0
LINE
8
BLACK
6
CONTINUOUS
10
41.2212
20
5.4
11
41.0666
21
5.43074
0
LINE
8
BLACK
6
CONTINUOUS
10
41.0666
20
5.43074
11
40.9211
21
5.49105
0
LINE
8
BLACK
6
CONTINUOUS
10
40.9211
20
5.49105
11
40.79
21
5.5786
0
LINE
8
BLACK
6
CONTINUOUS
10
40.79
20
5.5786
11
40.6786
21
5.69003
0
LINE
8
BLACK
6
CONTINUOUS
10
40.6786
20
5.69003
11
40.591
21
5.82106
0
LINE
8
BLACK
6
CONTINUOUS
10
40.591
20
5.82106
11
40.5307
21
5.96665
0
LINE
8
BLACK
6
CONTINUOUS
10
40.5307
20
5.96665
11
40.5241
21
6
0
LINE
8
BLACK
6
CONTINUOUS
10
40.5241
20
6
11
37.3759
21
6
0
LINE
8
BLACK
6
CONTINUOUS
10
37.3759
20
6
11
37.3693
21
5.96665
0
LINE
8
BLACK
6
CONTINUOUS
10
37.3693
20
5.96665
11
37.309
21
5.82106
0
LINE
8
BLACK
6
CONTINUOUS
10
37.309
20
5.82106
11
37.2214
21
5.69003
0
LINE
8
BLACK
6
CONTINUOUS
10
37.2214
20
5.69003
11
37.11
21
5.5786
0
LINE
8
BLACK
6
CONTINUOUS
10
37.11
20
5.5786
11
36.9789
21
5.49105
0
LINE
8
BLACK
6
CONTINUOUS
10
36.9789
20
5.49105
11
36.8334
21
5.43074
0
LINE
8
BLACK
6
CONTINUOUS
10
36.8334
20
5.43074
11
36.6788
21
5.4
0
LINE
8
BLACK
6
CONTINUOUS
10
36.6788
20
5.4
11
36.5212
21
5.4
0
LINE
8
BLACK
6
CONTINUOUS
10
36.5212
20
5.4
11
36.3666
21
5.43074
0
LINE
8
BLACK
6
CONTINUOUS
10
36.3666
20
5.43074
11
36.2211
21
5.49105
0
LINE
8
BLACK
6
CONTINUOUS
10
36.2211
20
5.49105
11
36.09
21
5.5786
0
LINE
8
BLACK
6
CONTINUOUS
10
36.09
20
5.5786
11
35.9786
21
5.69003
0
LINE
8
BLACK
6
CONTINUOUS
10
35.9786
20
5.69003
11
35.891
21
5.82106
0
LINE
8
BLACK
6
CONTINUOUS
10
35.891
20
5.82106
11
35.8307
21
5.96665
0
LINE
8
BLACK
6
CONTINUOUS
10
35.8307
20
5.96665
11
35.8241
21
6
0
LINE
8
BLACK
6
CONTINUOUS
10
35.8241
20
6
11
19.8098
21
6
0
LINE
8
BLACK
6
CONTINUOUS
10
19.8098
20
6
11
19.8
21
5.99903
0
LINE
8
BLACK
6
CONTINUOUS
10
19.8
20
5.99903
11
19.7902
21
6
0
LINE
8
BLACK
6
CONTINUOUS
10
19.7902
20
6
11
19.7902
21
6
0
LINE
8
BLACK
6
CONTINUOUS
10
19.7902
20
6
11
19.7608
21
6.00289
0
LINE
8
BLACK
6
CONTINUOUS
10
19.7608
20
6.00289
11
19.7231
21
6.01433
0
LINE
8
BLACK
6
CONTINUOUS
10
19.7231
20
6.01433
11
19.6883
21
6.0329
0
LINE
8
BLACK
6
CONTINUOUS
10
19.6883
20
6.0329
11
19.6579
21
6.05789
0
LINE
8
BLACK
6
CONTINUOUS
10
19.6579
20
6.05789
11
19.6516
21
6.06552
0
LINE
8
BLACK
6
CONTINUOUS
10
19.6516
20
6.06552
11
19.4072
21
6.30994
0
LINE
8
BLACK
6
CONTINUOUS
10
19.4072
20
6.30994
11
19.3789
21
6.29105
0
LINE
8
BLACK
6
CONTINUOUS
10
19.3789
20
6.29105
11
19.2334
21
6.23074
0
LINE
8
BLACK
6
CONTINUOUS
10
19.2334
20
6.23074
11
19.0788
21
6.2
0
LINE
8
BLACK
6
CONTINUOUS
10
19.0788
20
6.2
11
18.9212
21
6.2
0
LINE
8
BLACK
6
CONTINUOUS
10
18.9212
20
6.2
11
18.7666
21
6.23074
0
LINE
8
BLACK
6
CONTINUOUS
10
18.7666
20
6.23074
11
18.6211
21
6.29105
0
LINE
8
BLACK
6
CONTINUOUS
10
18.6211
20
6.29105
11
18.5928
21
6.30994
0
LINE
8
BLACK
6
CONTINUOUS
10
18.5928
20
6.30994
11
16.779
21
4.49615
0
LINE
8
BLACK
6
CONTINUOUS
10
16.779
20
4.49615
11
16.779
21
3.35489
0
LINE
8
BLACK
6
CONTINUOUS
10
16.779
20
3.35489
11
16.8123
21
3.34826
0
LINE
8
BLACK
6
CONTINUOUS
10
16.8123
20
3.34826
11
16.9579
21
3.28795
0
LINE
8
BLACK
6
CONTINUOUS
10
16.9579
20
3.28795
11
17.089
21
3.2004
0
LINE
8
BLACK
6
CONTINUOUS
10
17.089
20
3.2004
11
17.2004
21
3.08897
0
LINE
8
BLACK
6
CONTINUOUS
10
17.2004
20
3.08897
11
17.2879
21
2.95794
0
LINE
8
BLACK
6
CONTINUOUS
10
17.2879
20
2.95794
11
17.3482
21
2.81235
0
LINE
8
BLACK
6
CONTINUOUS
10
17.3482
20
2.81235
11
17.379
21
2.65779
0
LINE
8
BLACK
6
CONTINUOUS
10
17.379
20
2.65779
11
17.379
21
2.50021
0
LINE
8
BLACK
6
CONTINUOUS
10
17.379
20
2.50021
11
17.3482
21
2.34565
0
LINE
8
BLACK
6
CONTINUOUS
10
17.3482
20
2.34565
11
17.2879
21
2.20006
0
LINE
8
BLACK
6
CONTINUOUS
10
17.2879
20
2.20006
11
17.2004
21
2.06903
0
LINE
8
BLACK
6
CONTINUOUS
10
17.2004
20
2.06903
11
17.089
21
1.9576
0
LINE
8
BLACK
6
CONTINUOUS
10
17.089
20
1.9576
11
16.9579
21
1.87005
0
LINE
8
BLACK
6
CONTINUOUS
10
16.9579
20
1.87005
11
16.8123
21
1.80974
0
LINE
8
BLACK
6
CONTINUOUS
10
16.8123
20
1.80974
11
16.6578
21
1.779
0
LINE
8
BLACK
6
CONTINUOUS
10
16.6578
20
1.779
11
16.5002
21
1.779
0
LINE
8
BLACK
6
CONTINUOUS
10
16.5002
20
1.779
11
16.3456
21
1.80974
0
LINE
8
BLACK
6
CONTINUOUS
10
16.3456
20
1.80974
11
16.2
21
1.87005
0
LINE
8
BLACK
6
CONTINUOUS
10
16.2
20
1.87005
11
16.069
21
1.9576
0
LINE
8
BLACK
6
CONTINUOUS
10
16.069
20
1.9576
11
15.9576
21
2.06903
0
LINE
8
BLACK
6
CONTINUOUS
10
15.9576
20
2.06903
11
15.87
21
2.20006
0
LINE
8
BLACK
6
CONTINUOUS
10
15.87
20
2.20006
11
15.8097
21
2.34565
0
LINE
8
BLACK
6
CONTINUOUS
10
15.8097
20
2.34565
11
15.8031
21
2.379
0
LINE
8
BLACK
6
CONTINUOUS
10
15.8031
20
2.379
11
8.63081
21
2.379
0
LINE
8
BLACK
6
CONTINUOUS
10
8.63081
20
2.379
11
8.621
21
2.37803
0
LINE
8
BLACK
6
CONTINUOUS
10
8.621
20
2.37803
11
8.61119
21
2.379
0
LINE
8
BLACK
6
CONTINUOUS
10
8.61119
20
2.379
11
8.61118
21
2.379
0
LINE
8
BLACK
6
CONTINUOUS
10
8.61118
20
2.379
11
8.58564
21
2.38151
0
LINE
8
BLACK
6
CONTINUOUS
10
8.58564
20
2.38151
11
8.58179
21
2.38189
0
LINE
8
BLACK
6
CONTINUOUS
10
8.58179
20
2.38189
11
8.54409
21
2.39333
0
LINE
8
BLACK
6
CONTINUOUS
10
8.54409
20
2.39333
11
8.50935
21
2.4119
0
LINE
8
BLACK
6
CONTINUOUS
10
8.50935
20
2.4119
11
8.4789
21
2.43689
0
LINE
8
BLACK
6
CONTINUOUS
10
8.4789
20
2.43689
11
8.47264
21
2.44452
0
LINE
8
BLACK
6
CONTINUOUS
10
8.47264
20
2.44452
11
1.90722
21
9.00994
0
LINE
8
BLACK
6
CONTINUOUS
10
1.90722
20
9.00994
11
1.87894
21
8.99105
0
LINE
8
BLACK
6
CONTINUOUS
10
1.87894
20
8.99105
11
1.73335
21
8.93074
0
LINE
8
BLACK
6
CONTINUOUS
10
1.73335
20
8.93074
11
1.57879
21
8.9
0
LINE
8
BLACK
6
CONTINUOUS
10
1.57879
20
8.9
11
1.42121
21
8.9
0
LINE
8
BLACK
6
CONTINUOUS
10
1.42121
20
8.9
11
1.26665
21
8.93074
0
LINE
8
BLACK
6
CONTINUOUS
10
1.26665
20
8.93074
11
1.12106
21
8.99105
0
LINE
8
BLACK
6
CONTINUOUS
10
1.12106
20
8.99105
11
0.99003
21
9.0786
0
LINE
8
BLACK
6
CONTINUOUS
10
0.99003
20
9.0786
11
0.878599
21
9.19003
0
LINE
8
BLACK
6
CONTINUOUS
10
0.878599
20
9.19003
11
0.791049
21
9.32106
0
LINE
8
BLACK
6
CONTINUOUS
10
0.791049
20
9.32106
11
0.730743
21
9.46665
0
LINE
8
BLACK
6
CONTINUOUS
10
0.730743
20
9.46665
11
0.7
21
9.62121
0
LINE
8
BLACK
6
CONTINUOUS
10
0.7
20
9.62121
11
0.7
21
9.77879
0
LINE
8
BLACK
6
CONTINUOUS
10
0.7
20
9.77879
11
0.730743
21
9.93335
0
LINE
8
BLACK
6
CONTINUOUS
10
0.730743
20
9.93335
11
0.791049
21
10.0789
0
LINE
8
BLACK
6
CONTINUOUS
10
0.791049
20
10.0789
11
0.878599
21
10.21
0
LINE
8
BLACK
6
CONTINUOUS
10
0.878599
20
10.21
11
0.99003
21
10.3214
0
LINE
8
BLACK
6
CONTINUOUS
10
0.99003
20
10.3214
11
1.12106
21
10.409
0
LINE
8
BLACK
6
CONTINUOUS
10
1.12106
20
10.409
11
1.26665
21
10.4693
0
LINE
8
BLACK
6
CONTINUOUS
10
1.26665
20
10.4693
11
1.42121
21
10.5
0
LINE
8
BLACK
6
CONTINUOUS
10
1.42121
20
10.5
11
1.57879
21
10.5
0
LINE
8
BLACK
6
CONTINUOUS
10
1.57879
20
10.5
11
1.73335
21
10.4693
0
LINE
8
BLACK
6
CONTINUOUS
10
1.73335
20
10.4693
11
1.87894
21
10.409
0
LINE
8
BLACK
6
CONTINUOUS
10
1.87894
20
10.409
11
2.00997
21
10.3214
0
LINE
8
BLACK
6
CONTINUOUS
10
2.00997
20
10.3214
11
2.1214
21
10.21
0
LINE
8
BLACK
6
CONTINUOUS
10
2.1214
20
10.21
11
2.20895
21
10.0789
0
LINE
8
BLACK
6
CONTINUOUS
10
2.20895
20
10.0789
11
2.26926
21
9.93335
0
LINE
8
BLACK
6
CONTINUOUS
10
2.26926
20
9.93335
11
2.3
21
9.77879
0
LINE
8
BLACK
6
CONTINUOUS
10
2.3
20
9.77879
11
2.3
21
9.62121
0
LINE
8
BLACK
6
CONTINUOUS
10
2.3
20
9.62121
11
2.26926
21
9.46665
0
LINE
8
BLACK
6
CONTINUOUS
10
2.26926
20
9.46665
11
2.20895
21
9.32106
0
LINE
8
BLACK
6
CONTINUOUS
10
2.20895
20
9.32106
11
2.19006
21
9.29278
0
LINE
8
BLACK
6
CONTINUOUS
10
2.19006
20
9.29278
11
8.70384
21
2.779
0
LINE
8
BLACK
6
CONTINUOUS
10
8.70384
20
2.779
11
15.8031
21
2.779
0
LINE
8
BLACK
6
CONTINUOUS
10
15.8031
20
2.779
11
15.8097
21
2.81235
0
LINE
8
BLACK
6
CONTINUOUS
10
15.8097
20
2.81235
11
15.87
21
2.95794
0
LINE
8
BLACK
6
CONTINUOUS
10
15.87
20
2.95794
11
15.9576
21
3.08897
0
LINE
8
BLACK
6
CONTINUOUS
10
15.9576
20
3.08897
11
16.069
21
3.2004
0
LINE
8
BLACK
6
CONTINUOUS
10
16.069
20
3.2004
11
16.2
21
3.28795
0
LINE
8
BLACK
6
CONTINUOUS
10
16.2
20
3.28795
11
16.3456
21
3.34826
0
LINE
8
BLACK
6
CONTINUOUS
10
16.3456
20
3.34826
11
16.379
21
3.35489
0
LINE
8
BLACK
6
CONTINUOUS
10
16.379
20
3.35489
11
16.379
21
4.56918
0
LINE
8
BLACK
6
CONTINUOUS
10
16.379
20
4.56918
11
16.378
21
4.57899
0
LINE
8
BLACK
6
CONTINUOUS
10
16.378
20
4.57899
11
16.379
21
4.5888
0
LINE
8
BLACK
6
CONTINUOUS
10
16.379
20
4.5888
11
16.379
21
4.5888
0
LINE
8
BLACK
6
CONTINUOUS
10
16.379
20
4.5888
11
16.3819
21
4.6182
0
LINE
8
BLACK
6
CONTINUOUS
10
16.3819
20
4.6182
11
16.3933
21
4.6559
0
LINE
8
BLACK
6
CONTINUOUS
10
16.3933
20
4.6559
11
16.4119
21
4.69064
0
LINE
8
BLACK
6
CONTINUOUS
10
16.4119
20
4.69064
11
16.4369
21
4.72109
0
LINE
8
BLACK
6
CONTINUOUS
10
16.4369
20
4.72109
11
16.4445
21
4.72736
0
LINE
8
BLACK
6
CONTINUOUS
10
16.4445
20
4.72736
11
18.3099
21
6.59278
0
LINE
8
BLACK
6
CONTINUOUS
10
18.3099
20
6.59278
11
18.291
21
6.62106
0
LINE
8
BLACK
6
CONTINUOUS
10
18.291
20
6.62106
11
18.2307
21
6.76665
0
LINE
8
BLACK
6
CONTINUOUS
10
18.2307
20
6.76665
11
18.2
21
6.92121
0
LINE
8
BLACK
6
CONTINUOUS
10
18.2
20
6.92121
11
18.2
21
7.07879
0
LINE
8
BLACK
6
CONTINUOUS
10
18.2
20
7.07879
11
18.2307
21
7.23335
0
LINE
8
BLACK
6
CONTINUOUS
10
18.2307
20
7.23335
11
18.291
21
7.37894
0
LINE
8
BLACK
6
CONTINUOUS
10
18.291
20
7.37894
11
18.3786
21
7.50997
0
LINE
8
BLACK
6
CONTINUOUS
10
18.3786
20
7.50997
11
18.49
21
7.6214
0
LINE
8
BLACK
6
CONTINUOUS
10
18.49
20
7.6214
11
18.6211
21
7.70895
0
LINE
8
BLACK
6
CONTINUOUS
10
18.6211
20
7.70895
11
18.7666
21
7.76926
0
LINE
8
BLACK
6
CONTINUOUS
10
18.7666
20
7.76926
11
18.8
21
7.77589
0
LINE
8
BLACK
6
CONTINUOUS
10
18.8
20
7.77589
11
18.8
21
21.7241
0
LINE
8
BLACK
6
CONTINUOUS
10
18.8
20
21.7241
11
18.7666
21
21.7307
0
LINE
8
BLACK
6
CONTINUOUS
10
18.7666
20
21.7307
11
18.6211
21
21.791
0
LINE
8
BLACK
6
CONTINUOUS
10
18.6211
20
21.791
11
18.49
21
21.8786
0
LINE
8
BLACK
6
CONTINUOUS
10
18.49
20
21.8786
11
18.3786
21
21.99
0
LINE
8
BLACK
6
CONTINUOUS
10
18.3786
20
21.99
11
18.291
21
22.1211
0
LINE
8
BLACK
6
CONTINUOUS
10
18.291
20
22.1211
11
18.2307
21
22.2666
0
LINE
8
BLACK
6
CONTINUOUS
10
18.2307
20
22.2666
11
18.2
21
22.4212
0
LINE
8
BLACK
6
CONTINUOUS
10
18.2
20
22.4212
11
18.2
21
22.5788
0
LINE
8
BLACK
6
CONTINUOUS
10
18.2
20
22.5788
11
18.2307
21
22.7334
0
LINE
8
BLACK
6
CONTINUOUS
10
18.2307
20
22.7334
11
18.291
21
22.8789
0
LINE
8
BLACK
6
CONTINUOUS
10
18.291
20
22.8789
11
18.3786
21
23.01
0
LINE
8
BLACK
6
CONTINUOUS
10
18.3786
20
23.01
11
18.49
21
23.1214
0
LINE
8
BLACK
6
CONTINUOUS
10
18.49
20
23.1214
11
18.6211
21
23.209
0
LINE
8
BLACK
6
CONTINUOUS
10
18.6211
20
23.209
11
18.7666
21
23.2693
0
LINE
8
BLACK
6
CONTINUOUS
10
18.7666
20
23.2693
11
18.9212
21
23.3
0
LINE
8
BLACK
6
CONTINUOUS
10
18.9212
20
23.3
11
19.0788
21
23.3
0
LINE
8
BLACK
6
CONTINUOUS
10
19.0788
20
23.3
11
19.2334
21
23.2693
0
LINE
8
BLACK
6
CONTINUOUS
10
6.58335
20
18.9193
11
6.72894
21
18.859
0
LINE
8
BLACK
6
CONTINUOUS
10
6.72894
20
18.859
11
6.85997
21
18.7714
0
LINE
8
BLACK
6
CONTINUOUS
10
6.85997
20
18.7714
11
6.9714
21
18.66
0
LINE
8
BLACK
6
CONTINUOUS
10
6.9714
20
18.66
11
7.05895
21
18.5289
0
LINE
8
BLACK
6
CONTINUOUS
10
7.05895
20
18.5289
11
7.11926
21
18.3834
0
LINE
8
BLACK
6
CONTINUOUS
10
7.11926
20
18.3834
11
7.12589
21
18.35
0
LINE
8
BLACK
6
CONTINUOUS
10
7.12589
20
18.35
11
14.1402
21
18.35
0
LINE
8
BLACK
6
CONTINUOUS
10
14.1402
20
18.35
11
14.15
21
18.351
0
LINE
8
BLACK
6
CONTINUOUS
10
14.15
20
18.351
11
14.1598
21
18.35
0
LINE
8
BLACK
6
CONTINUOUS
10
14.1598
20
18.35
11
14.1598
21
18.35
0
LINE
8
BLACK
6
CONTINUOUS
10
14.1598
20
18.35
11
14.1892
21
18.3471
0
LINE
8
BLACK
6
CONTINUOUS
10
14.1892
20
18.3471
11
14.2269
21
18.3357
0
LINE
8
BLACK
6
CONTINUOUS
10
14.2269
20
18.3357
11
14.2617
21
18.3171
0
LINE
8
BLACK
6
CONTINUOUS
10
14.2617
20
18.3171
11
14.2921
21
18.2921
0
LINE
8
BLACK
6
CONTINUOUS
10
14.2921
20
18.2921
11
14.2984
21
18.2845
0
LINE
8
BLACK
6
CONTINUOUS
10
14.2984
20
18.2845
11
15.9928
21
16.5901
0
LINE
8
BLACK
6
CONTINUOUS
10
15.9928
20
16.5901
11
16.0211
21
16.609
0
LINE
8
BLACK
6
CONTINUOUS
10
16.0211
20
16.609
11
16.1666
21
16.6693
0
LINE
8
BLACK
6
CONTINUOUS
10
16.1666
20
16.6693
11
16.3212
21
16.7
0
LINE
8
BLACK
6
CONTINUOUS
10
16.3212
20
16.7
11
16.4788
21
16.7
0
LINE
8
BLACK
6
CONTINUOUS
10
16.4788
20
16.7
11
16.6334
21
16.6693
0
LINE
8
BLACK
6
CONTINUOUS
10
16.6334
20
16.6693
11
16.7789
21
16.609
0
LINE
8
BLACK
6
CONTINUOUS
10
16.7789
20
16.609
11
16.91
21
16.5214
0
LINE
8
BLACK
6
CONTINUOUS
10
16.91
20
16.5214
11
17.0214
21
16.41
0
LINE
8
BLACK
6
CONTINUOUS
10
17.0214
20
16.41
11
17.109
21
16.2789
0
LINE
8
BLACK
6
CONTINUOUS
10
17.109
20
16.2789
11
17.1693
21
16.1334
0
LINE
8
BLACK
6
CONTINUOUS
10
17.1693
20
16.1334
11
17.2
21
15.9788
0
LINE
8
BLACK
6
CONTINUOUS
10
17.2
20
15.9788
11
17.2
21
15.8212
0
LINE
8
BLACK
6
CONTINUOUS
10
17.2
20
15.8212
11
17.1693
21
15.6667
0
LINE
8
BLACK
6
CONTINUOUS
10
17.1693
20
15.6667
11
17.109
21
15.5211
0
LINE
8
BLACK
6
CONTINUOUS
10
17.109
20
15.5211
11
17.0214
21
15.39
0
LINE
8
BLACK
6
CONTINUOUS
10
17.0214
20
15.39
11
16.91
21
15.2786
0
LINE
8
BLACK
6
CONTINUOUS
10
16.91
20
15.2786
11
16.7789
21
15.1911
0
LINE
8
BLACK
6
CONTINUOUS
10
16.7789
20
15.1911
11
16.6334
21
15.1307
0
LINE
8
BLACK
6
CONTINUOUS
10
16.6334
20
15.1307
11
16.4788
21
15.1
0
LINE
8
BLACK
6
CONTINUOUS
10
16.4788
20
15.1
11
16.3212
21
15.1
0
LINE
8
BLACK
6
CONTINUOUS
10
16.3212
20
15.1
11
16.1666
21
15.1307
0
LINE
8
BLACK
6
CONTINUOUS
10
16.1666
20
15.1307
11
16.0211
21
15.1911
0
LINE
8
BLACK
6
CONTINUOUS
10
16.0211
20
15.1911
11
15.89
21
15.2786
0
LINE
8
BLACK
6
CONTINUOUS
10
15.89
20
15.2786
11
15.7786
21
15.39
0
LINE
8
BLACK
6
CONTINUOUS
10
15.7786
20
15.39
11
15.691
21
15.5211
0
LINE
8
BLACK
6
CONTINUOUS
10
15.691
20
15.5211
11
15.6307
21
15.6667
0
LINE
8
BLACK
6
CONTINUOUS
10
15.6307
20
15.6667
11
15.6
21
15.8212
0
LINE
8
BLACK
6
CONTINUOUS
10
15.6
20
15.8212
11
15.6
21
15.9788
0
LINE
8
BLACK
6
CONTINUOUS
10
15.6
20
15.9788
11
15.6307
21
16.1334
0
LINE
8
BLACK
6
CONTINUOUS
10
15.6307
20
16.1334
11
15.691
21
16.2789
0
LINE
8
BLACK
6
CONTINUOUS
10
15.691
20
16.2789
11
15.7099
21
16.3072
0
LINE
8
BLACK
6
CONTINUOUS
10
15.7099
20
16.3072
11
14.0672
21
17.95
0
LINE
8
BLACK
6
CONTINUOUS
10
14.0672
20
17.95
11
7.12589
21
17.95
0
LINE
8
BLACK
6
CONTINUOUS
10
7.12589
20
17.95
11
7.11926
21
17.9166
0
LINE
8
BLACK
6
CONTINUOUS
10
7.11926
20
17.9166
11
7.05895
21
17.7711
0
LINE
8
BLACK
6
CONTINUOUS
10
7.05895
20
17.7711
11
6.9714
21
17.64
0
LINE
8
BLACK
6
CONTINUOUS
10
6.9714
20
17.64
11
6.9
21
17.5686
0
LINE
8
BLACK
6
CONTINUOUS
10
6.9
20
17.5686
11
6.9
21
14.9759
0
LINE
8
BLACK
6
CONTINUOUS
10
6.9
20
14.9759
11
6.93335
21
14.9693
0
LINE
8
BLACK
6
CONTINUOUS
10
6.93335
20
14.9693
11
7.07895
21
14.909
0
LINE
8
BLACK
6
CONTINUOUS
10
7.07895
20
14.909
11
7.20997
21
14.8214
0
LINE
8
BLACK
6
CONTINUOUS
10
7.20997
20
14.8214
11
7.3214
21
14.71
0
LINE
8
BLACK
6
CONTINUOUS
10
7.3214
20
14.71
11
7.40895
21
14.5789
0
LINE
8
BLACK
6
CONTINUOUS
10
7.40895
20
14.5789
11
7.46926
21
14.4334
0
LINE
8
BLACK
6
CONTINUOUS
10
7.46926
20
14.4334
11
7.5
21
14.2788
0
LINE
8
BLACK
6
CONTINUOUS
10
7.5
20
14.2788
11
7.5
21
14.1212
0
LINE
8
BLACK
6
CONTINUOUS
10
7.5
20
14.1212
11
7.46926
21
13.9666
0
LINE
8
BLACK
6
CONTINUOUS
10
7.46926
20
13.9666
11
7.40895
21
13.8211
0
LINE
8
BLACK
6
CONTINUOUS
10
7.40895
20
13.8211
11
7.3214
21
13.69
0
LINE
8
BLACK
6
CONTINUOUS
10
7.3214
20
13.69
11
7.20997
21
13.5786
0
LINE
8
BLACK
6
CONTINUOUS
10
7.20997
20
13.5786
11
7.07895
21
13.491
0
LINE
8
BLACK
6
CONTINUOUS
10
7.07895
20
13.491
11
6.93335
21
13.4307
0
LINE
8
BLACK
6
CONTINUOUS
10
6.93335
20
13.4307
11
6.9
21
13.4241
0
LINE
8
BLACK
6
CONTINUOUS
10
6.9
20
13.4241
11
6.9
21
11.5759
0
LINE
8
BLACK
6
CONTINUOUS
10
6.9
20
11.5759
11
6.93335
21
11.5693
0
LINE
8
BLACK
6
CONTINUOUS
10
6.93335
20
11.5693
11
7.07894
21
11.509
0
LINE
8
BLACK
6
CONTINUOUS
10
7.07894
20
11.509
11
7.20997
21
11.4214
0
LINE
8
BLACK
6
CONTINUOUS
10
7.20997
20
11.4214
11
7.3214
21
11.31
0
LINE
8
BLACK
6
CONTINUOUS
10
7.3214
20
11.31
11
7.40895
21
11.1789
0
LINE
8
BLACK
6
CONTINUOUS
10
7.40895
20
11.1789
11
7.46926
21
11.0334
0
LINE
8
BLACK
6
CONTINUOUS
10
7.46926
20
11.0334
11
7.5
21
10.8788
0
LINE
8
BLACK
6
CONTINUOUS
10
7.5
20
10.8788
11
7.5
21
10.7212
0
LINE
8
BLACK
6
CONTINUOUS
10
7.5
20
10.7212
11
7.46926
21
10.5666
0
LINE
8
BLACK
6
CONTINUOUS
10
7.46926
20
10.5666
11
7.40895
21
10.4211
0
LINE
8
BLACK
6
CONTINUOUS
10
7.40895
20
10.4211
11
7.3214
21
10.29
0
LINE
8
BLACK
6
CONTINUOUS
10
7.3214
20
10.29
11
7.20997
21
10.1786
0
LINE
8
BLACK
6
CONTINUOUS
10
7.20997
20
10.1786
11
7.07894
21
10.091
0
LINE
8
BLACK
6
CONTINUOUS
10
7.07894
20
10.091
11
6.93335
21
10.0307
0
LINE
8
BLACK
6
CONTINUOUS
10
6.93335
20
10.0307
11
6.77879
21
10
0
LINE
8
BLACK
6
CONTINUOUS
10
6.77879
20
10
11
6.62121
21
10
0
LINE
8
BLACK
6
CONTINUOUS
10
6.62121
20
10
11
6.46665
21
10.0307
0
LINE
8
BLACK
6
CONTINUOUS
10
6.46665
20
10.0307
11
6.32106
21
10.091
0
LINE
8
BLACK
6
CONTINUOUS
10
6.32106
20
10.091
11
6.19003
21
10.1786
0
LINE
8
BLACK
6
CONTINUOUS
10
6.19003
20
10.1786
11
6.0786
21
10.29
0
LINE
8
BLACK
6
CONTINUOUS
10
6.0786
20
10.29
11
5.99105
21
10.4211
0
LINE
8
BLACK
6
CONTINUOUS
10
5.99105
20
10.4211
11
5.93074
21
10.5666
0
LINE
8
BLACK
6
CONTINUOUS
10
5.93074
20
10.5666
11
5.9
21
10.7212
0
LINE
8
BLACK
6
CONTINUOUS
10
5.9
20
10.7212
11
5.9
21
10.8788
0
LINE
8
BLACK
6
CONTINUOUS
10
5.9
20
10.8788
11
5.93074
21
11.0334
0
LINE
8
BLACK
6
CONTINUOUS
10
5.93074
20
11.0334
11
5.99105
21
11.1789
0
LINE
8
BLACK
6
CONTINUOUS
10
5.99105
20
11.1789
11
6.0786
21
11.31
0
LINE
8
BLACK
6
CONTINUOUS
10
6.0786
20
11.31
11
6.19003
21
11.4214
0
LINE
8
BLACK
6
CONTINUOUS
10
6.19003
20
11.4214
11
6.32106
21
11.509
0
LINE
8
BLACK
6
CONTINUOUS
10
6.32106
20
11.509
11
6.46665
21
11.5693
0
LINE
8
BLACK
6
CONTINUOUS
10
6.46665
20
11.5693
11
6.5
21
11.5759
0
LINE
8
BLACK
6
CONTINUOUS
10
6.5
20
11.5759
11
6.5
21
13.4241
0
LINE
8
BLACK
6
CONTINUOUS
10
6.5
20
13.4241
11
6.46665
21
13.4307
0
LINE
8
BLACK
6
CONTINUOUS
10
6.46665
20
13.4307
11
6.32106
21
13.491
0
LINE
8
BLACK
6
CONTINUOUS
10
6.32106
20
13.491
11
6.19003
21
13.5786
0
LINE
8
BLACK
6
CONTINUOUS
10
6.19003
20
13.5786
11
6.0786
21
13.69
0
LINE
8
BLACK
6
CONTINUOUS
10
6.0786
20
13.69
11
5.99105
21
13.8211
0
LINE
8
BLACK
6
CONTINUOUS
10
5.99105
20
13.8211
11
5.93075
21
13.9666
0
LINE
8
BLACK
6
CONTINUOUS
10
5.93075
20
13.9666
11
5.9
21
14.1212
0
LINE
8
BLACK
6
CONTINUOUS
10
5.9
20
14.1212
11
5.9
21
14.2788
0
LINE
8
BLACK
6
CONTINUOUS
10
5.9
20
14.2788
11
5.93075
21
14.4334
0
LINE
8
BLACK
6
CONTINUOUS
10
5.93075
20
14.4334
11
5.99105
21
14.5789
0
LINE
8
BLACK
6
CONTINUOUS
10
5.99105
20
14.5789
11
6.0786
21
14.71
0
LINE
8
BLACK
6
CONTINUOUS
10
6.0786
20
14.71
11
6.19003
21
14.8214
0
LINE
8
BLACK
6
CONTINUOUS
10
6.19003
20
14.8214
11
6.32106
21
14.909
0
LINE
8
BLACK
6
CONTINUOUS
10
6.32106
20
14.909
11
6.46665
21
14.9693
0
LINE
8
BLACK
6
CONTINUOUS
10
6.46665
20
14.9693
11
6.5
21
14.9759
0
LINE
8
BLACK
6
CONTINUOUS
10
6.5
20
14.9759
11
6.5
21
17.3642
0
LINE
8
BLACK
6
CONTINUOUS
10
6.5
20
17.3642
11
6.42879
21
17.35
0
LINE
8
BLACK
6
CONTINUOUS
10
6.42879
20
17.35
11
6.27121
21
17.35
0
LINE
8
BLACK
6
CONTINUOUS
10
6.27121
20
17.35
11
6.11665
21
17.3807
0
LINE
8
BLACK
6
CONTINUOUS
10
6.11665
20
17.3807
11
5.97106
21
17.441
0
LINE
8
BLACK
6
CONTINUOUS
10
5.97106
20
17.441
11
5.84003
21
17.5286
0
LINE
8
BLACK
6
CONTINUOUS
10
5.84003
20
17.5286
11
5.7286
21
17.64
0
LINE
8
BLACK
6
CONTINUOUS
10
5.7286
20
17.64
11
5.64105
21
17.7711
0
LINE
8
BLACK
6
CONTINUOUS
10
5.64105
20
17.7711
11
5.58074
21
17.9166
0
LINE
8
BLACK
6
CONTINUOUS
10
5.58074
20
17.9166
11
5.55
21
18.0712
0
LINE
8
BLACK
6
CONTINUOUS
10
5.55
20
18.0712
11
5.55
21
18.2288
0
LINE
8
BLACK
6
CONTINUOUS
10
5.55
20
18.2288
11
5.58074
21
18.3834
0
LINE
8
BLACK
6
CONTINUOUS
10
5.58074
20
18.3834
11
5.64105
21
18.5289
0
LINE
8
BLACK
6
CONTINUOUS
10
5.64105
20
18.5289
11
5.7286
21
18.66
0
LINE
8
BLACK
6
CONTINUOUS
10
5.7286
20
18.66
11
5.84003
21
18.7714
0
LINE
8
BLACK
6
CONTINUOUS
10
5.84003
20
18.7714
11
5.97106
21
18.859
0
LINE
8
BLACK
6
CONTINUOUS
10
5.97106
20
18.859
11
6.11665
21
18.9193
0
LINE
8
BLACK
6
CONTINUOUS
10
6.11665
20
18.9193
11
6.27121
21
18.95
0
LINE
8
BLACK
6
CONTINUOUS
10
6.27121
20
18.95
11
6.42879
21
18.95
0
LINE
8
BLACK
6
CONTINUOUS
10
6.42879
20
18.95
11
6.58335
21
18.9193
0
LINE
8
BLACK
6
CONTINUOUS
10
38.3739
20
24.525
11
38.3739
21
24.525
0
LINE
8
BLACK
6
CONTINUOUS
10
38.3739
20
24.525
11
38.3739
21
24.525
0
LINE
8
BLACK
6
CONTINUOUS
10
38.3739
20
24.525
11
38.3748
21
24.525
0
LINE
8
BLACK
6
CONTINUOUS
10
38.3748
20
24.525
11
38.3867
21
24.5237
0
LINE
8
BLACK
6
CONTINUOUS
10
38.3867
20
24.5237
11
38.3985
21
24.5224
0
LINE
8
BLACK
6
CONTINUOUS
10
38.3985
20
24.5224
11
38.399
21
24.5223
0
LINE
8
BLACK
6
CONTINUOUS
10
38.399
20
24.5223
11
38.3994
21
24.5222
0
LINE
8
BLACK
6
CONTINUOUS
10
38.3994
20
24.5222
11
38.4108
21
24.5186
0
LINE
8
BLACK
6
CONTINUOUS
10
38.4108
20
24.5186
11
38.4222
21
24.5151
0
LINE
8
BLACK
6
CONTINUOUS
10
38.4222
20
24.5151
11
38.4226
21
24.5149
0
LINE
8
BLACK
6
CONTINUOUS
10
38.4226
20
24.5149
11
38.423
21
24.5147
0
LINE
8
BLACK
6
CONTINUOUS
10
38.423
20
24.5147
11
38.4335
21
24.509
0
LINE
8
BLACK
6
CONTINUOUS
10
38.4335
20
24.509
11
38.444
21
24.5033
0
LINE
8
BLACK
6
CONTINUOUS
10
38.444
20
24.5033
11
38.4444
21
24.503
0
LINE
8
BLACK
6
CONTINUOUS
10
38.4444
20
24.503
11
38.4448
21
24.5028
0
LINE
8
BLACK
6
CONTINUOUS
10
38.4448
20
24.5028
11
38.4539
21
24.4951
0
LINE
8
BLACK
6
CONTINUOUS
10
38.4539
20
24.4951
11
38.4631
21
24.4875
0
LINE
8
BLACK
6
CONTINUOUS
10
38.4631
20
24.4875
11
38.4634
21
24.4871
0
LINE
8
BLACK
6
CONTINUOUS
10
38.4634
20
24.4871
11
38.4637
21
24.4869
0
LINE
8
BLACK
6
CONTINUOUS
10
38.4637
20
24.4869
11
38.4712
21
24.4775
0
LINE
8
BLACK
6
CONTINUOUS
10
38.4712
20
24.4775
11
38.4788
21
24.4683
0
LINE
8
BLACK
6
CONTINUOUS
10
38.4788
20
24.4683
11
38.479
21
24.4679
0
LINE
8
BLACK
6
CONTINUOUS
10
38.479
20
24.4679
11
38.4793
21
24.4675
0
LINE
8
BLACK
6
CONTINUOUS
10
38.4793
20
24.4675
11
38.4848
21
24.4569
0
LINE
8
BLACK
6
CONTINUOUS
10
38.4848
20
24.4569
11
38.4904
21
24.4464
0
LINE
8
BLACK
6
CONTINUOUS
10
38.4904
20
24.4464
11
38.4905
21
24.446
0
LINE
8
BLACK
6
CONTINUOUS
10
38.4905
20
24.446
11
38.4908
21
24.4456
0
LINE
8
BLACK
6
CONTINUOUS
10
38.4908
20
24.4456
11
38.4941
21
24.4341
0
LINE
8
BLACK
6
CONTINUOUS
10
38.4941
20
24.4341
11
38.4976
21
24.4227
0
LINE
8
BLACK
6
CONTINUOUS
10
38.4976
20
24.4227
11
38.4976
21
24.4222
0
LINE
8
BLACK
6
CONTINUOUS
10
38.4976
20
24.4222
11
38.4977
21
24.4218
0
LINE
8
BLACK
6
CONTINUOUS
10
38.4977
20
24.4218
11
38.4988
21
24.4099
0
LINE
8
BLACK
6
CONTINUOUS
10
38.4988
20
24.4099
11
38.5
21
24.398
0
LINE
8
BLACK
6
CONTINUOUS
10
38.5
20
24.398
11
38.5
21
21.627
0
LINE
8
BLACK
6
CONTINUOUS
10
38.5
20
21.627
11
38.5
21
21.6261
0
LINE
8
BLACK
6
CONTINUOUS
10
38.5
20
21.6261
11
38.5
21
21.6261
0
LINE
8
BLACK
6
CONTINUOUS
10
38.5
20
21.6261
11
38.5
21
21.6261
0
LINE
8
BLACK
6
CONTINUOUS
10
38.5
20
21.6261
11
38.5
21
21.6252
0
LINE
8
BLACK
6
CONTINUOUS
10
38.5
20
21.6252
11
38.4987
21
21.6133
0
LINE
8
BLACK
6
CONTINUOUS
10
38.4987
20
21.6133
11
38.4974
21
21.6015
0
LINE
8
BLACK
6
CONTINUOUS
10
38.4974
20
21.6015
11
38.4973
21
21.601
0
LINE
8
BLACK
6
CONTINUOUS
10
38.4973
20
21.601
11
38.4972
21
21.6006
0
LINE
8
BLACK
6
CONTINUOUS
10
38.4972
20
21.6006
11
38.4936
21
21.5892
0
LINE
8
BLACK
6
CONTINUOUS
10
38.4936
20
21.5892
11
38.4901
21
21.5778
0
LINE
8
BLACK
6
CONTINUOUS
10
38.4901
20
21.5778
11
38.4899
21
21.5774
0
LINE
8
BLACK
6
CONTINUOUS
10
38.4899
20
21.5774
11
38.4897
21
21.577
0
LINE
8
BLACK
6
CONTINUOUS
10
38.4897
20
21.577
11
38.484
21
21.5665
0
LINE
8
BLACK
6
CONTINUOUS
10
38.484
20
21.5665
11
38.4783
21
21.556
0
LINE
8
BLACK
6
CONTINUOUS
10
38.4783
20
21.556
11
38.478
21
21.5556
0
LINE
8
BLACK
6
CONTINUOUS
10
38.478
20
21.5556
11
38.4778
21
21.5552
0
LINE
8
BLACK
6
CONTINUOUS
10
38.4778
20
21.5552
11
38.4701
21
21.5461
0
LINE
8
BLACK
6
CONTINUOUS
10
38.4701
20
21.5461
11
38.4625
21
21.5369
0
LINE
8
BLACK
6
CONTINUOUS
10
38.4625
20
21.5369
11
38.4621
21
21.5366
0
LINE
8
BLACK
6
CONTINUOUS
10
38.4621
20
21.5366
11
38.4619
21
21.5363
0
LINE
8
BLACK
6
CONTINUOUS
10
38.4619
20
21.5363
11
38.4525
21
21.5288
0
LINE
8
BLACK
6
CONTINUOUS
10
38.4525
20
21.5288
11
38.4433
21
21.5212
0
LINE
8
BLACK
6
CONTINUOUS
10
38.4433
20
21.5212
11
38.4429
21
21.521
0
LINE
8
BLACK
6
CONTINUOUS
10
38.4429
20
21.521
11
38.4425
21
21.5207
0
LINE
8
BLACK
6
CONTINUOUS
10
38.4425
20
21.5207
11
38.4319
21
21.5152
0
LINE
8
BLACK
6
CONTINUOUS
10
38.4319
20
21.5152
11
38.4214
21
21.5096
0
LINE
8
BLACK
6
CONTINUOUS
10
38.4214
20
21.5096
11
38.421
21
21.5095
0
LINE
8
BLACK
6
CONTINUOUS
10
38.421
20
21.5095
11
38.4206
21
21.5092
0
LINE
8
BLACK
6
CONTINUOUS
10
38.4206
20
21.5092
11
38.4091
21
21.5059
0
LINE
8
BLACK
6
CONTINUOUS
10
38.4091
20
21.5059
11
38.3977
21
21.5024
0
LINE
8
BLACK
6
CONTINUOUS
10
38.3977
20
21.5024
11
38.3972
21
21.5024
0
LINE
8
BLACK
6
CONTINUOUS
10
38.3972
20
21.5024
11
38.3968
21
21.5023
0
LINE
8
BLACK
6
CONTINUOUS
10
38.3968
20
21.5023
11
38.3849
21
21.5012
0
LINE
8
BLACK
6
CONTINUOUS
10
38.3849
20
21.5012
11
38.373
21
21.5
0
LINE
8
BLACK
6
CONTINUOUS
10
38.373
20
21.5
11
29.0526
21
21.5
0
LINE
8
BLACK
6
CONTINUOUS
10
29.0526
20
21.5
11
29.0522
21
21.5
0
LINE
8
BLACK
6
CONTINUOUS
10
29.0522
20
21.5
11
29.0522
21
21.5
0
LINE
8
BLACK
6
CONTINUOUS
10
29.0522
20
21.5
11
29.0521
21
21.5
0
LINE
8
BLACK
6
CONTINUOUS
10
29.0521
20
21.5
11
29.0508
21
21.5
0
LINE
8
BLACK
6
CONTINUOUS
10
29.0508
20
21.5
11
29.0392
21
21.5013
0
LINE
8
BLACK
6
CONTINUOUS
10
29.0392
20
21.5013
11
29.0275
21
21.5025
0
LINE
8
BLACK
6
CONTINUOUS
10
29.0275
20
21.5025
11
29.0269
21
21.5027
0
LINE
8
BLACK
6
CONTINUOUS
10
29.0269
20
21.5027
11
29.0262
21
21.5028
0
LINE
8
BLACK
6
CONTINUOUS
10
29.0262
20
21.5028
11
29.015
21
21.5063
0
LINE
8
BLACK
6
CONTINUOUS
10
29.015
20
21.5063
11
29.0038
21
21.5098
0
LINE
8
BLACK
6
CONTINUOUS
10
29.0038
20
21.5098
11
29.0032
21
21.5101
0
LINE
8
BLACK
6
CONTINUOUS
10
29.0032
20
21.5101
11
29.0026
21
21.5103
0
LINE
8
BLACK
6
CONTINUOUS
10
29.0026
20
21.5103
11
28.9923
21
21.5159
0
LINE
8
BLACK
6
CONTINUOUS
10
28.9923
20
21.5159
11
28.982
21
21.5215
0
LINE
8
BLACK
6
CONTINUOUS
10
28.982
20
21.5215
11
28.9814
21
21.5219
0
LINE
8
BLACK
6
CONTINUOUS
10
28.9814
20
21.5219
11
28.9809
21
21.5222
0
LINE
8
BLACK
6
CONTINUOUS
10
28.9809
20
21.5222
11
28.9719
21
21.5298
0
LINE
8
BLACK
6
CONTINUOUS
10
28.9719
20
21.5298
11
28.9628
21
21.5372
0
LINE
8
BLACK
6
CONTINUOUS
10
28.9628
20
21.5372
11
27.0372
21
23.4628
0
LINE
8
BLACK
6
CONTINUOUS
10
27.0372
20
23.4628
11
27.0369
21
23.4631
0
LINE
8
BLACK
6
CONTINUOUS
10
27.0369
20
23.4631
11
27.0369
21
23.4631
0
LINE
8
BLACK
6
CONTINUOUS
10
27.0369
20
23.4631
11
27.0369
21
23.4631
0
LINE
8
BLACK
6
CONTINUOUS
10
27.0369
20
23.4631
11
27.036
21
23.4641
0
LINE
8
BLACK
6
CONTINUOUS
10
27.036
20
23.4641
11
27.0286
21
23.4732
0
LINE
8
BLACK
6
CONTINUOUS
10
27.0286
20
23.4732
11
27.0212
21
23.4823
0
LINE
8
BLACK
6
CONTINUOUS
10
27.0212
20
23.4823
11
27.0209
21
23.4829
0
LINE
8
BLACK
6
CONTINUOUS
10
27.0209
20
23.4829
11
27.0205
21
23.4834
0
LINE
8
BLACK
6
CONTINUOUS
10
27.0205
20
23.4834
11
27.0151
21
23.4938
0
LINE
8
BLACK
6
CONTINUOUS
10
27.0151
20
23.4938
11
27.0096
21
23.5042
0
LINE
8
BLACK
6
CONTINUOUS
10
27.0096
20
23.5042
11
27.0094
21
23.5048
0
LINE
8
BLACK
6
CONTINUOUS
10
27.0094
20
23.5048
11
27.0091
21
23.5054
0
LINE
8
BLACK
6
CONTINUOUS
10
27.0091
20
23.5054
11
27.0058
21
23.5167
0
LINE
8
BLACK
6
CONTINUOUS
10
27.0058
20
23.5167
11
27.0024
21
23.5279
0
LINE
8
BLACK
6
CONTINUOUS
10
27.0024
20
23.5279
11
27.0024
21
23.5286
0
LINE
8
BLACK
6
CONTINUOUS
10
27.0024
20
23.5286
11
27.0022
21
23.5292
0
LINE
8
BLACK
6
CONTINUOUS
10
27.0022
20
23.5292
11
27.0011
21
23.5409
0
LINE
8
BLACK
6
CONTINUOUS
10
27.0011
20
23.5409
11
27
21
23.5526
0
LINE
8
BLACK
6
CONTINUOUS
10
27
20
23.5526
11
27
21
24.398
0
LINE
8
BLACK
6
CONTINUOUS
10
27
20
24.398
11
27
21
24.3989
0
LINE
8
BLACK
6
CONTINUOUS
10
27
20
24.3989
11
27
21
24.3989
0
LINE
8
BLACK
6
CONTINUOUS
10
27
20
24.3989
11
27
21
24.3989
0
LINE
8
BLACK
6
CONTINUOUS
10
27
20
24.3989
11
27
21
24.3998
0
LINE
8
BLACK
6
CONTINUOUS
10
27
20
24.3998
11
27.0013
21
24.4117
0
LINE
8
BLACK
6
CONTINUOUS
10
27.0013
20
24.4117
11
27.0026
21
24.4235
0
LINE
8
BLACK
6
CONTINUOUS
10
27.0026
20
24.4235
11
27.0027
21
24.424
0
LINE
8
BLACK
6
CONTINUOUS
10
27.0027
20
24.424
11
27.0028
21
24.4244
0
LINE
8
BLACK
6
CONTINUOUS
10
27.0028
20
24.4244
11
27.0064
21
24.4358
0
LINE
8
BLACK
6
CONTINUOUS
10
27.0064
20
24.4358
11
27.0099
21
24.4472
0
LINE
8
BLACK
6
CONTINUOUS
10
27.0099
20
24.4472
11
27.0101
21
24.4476
0
LINE
8
BLACK
6
CONTINUOUS
10
27.0101
20
24.4476
11
27.0103
21
24.448
0
LINE
8
BLACK
6
CONTINUOUS
10
27.0103
20
24.448
11
27.016
21
24.4585
0
LINE
8
BLACK
6
CONTINUOUS
10
27.016
20
24.4585
11
27.0217
21
24.469
0
LINE
8
BLACK
6
CONTINUOUS
10
27.0217
20
24.469
11
27.022
21
24.4694
0
LINE
8
BLACK
6
CONTINUOUS
10
27.022
20
24.4694
11
27.0222
21
24.4698
0
LINE
8
BLACK
6
CONTINUOUS
10
27.0222
20
24.4698
11
27.0299
21
24.4789
0
LINE
8
BLACK
6
CONTINUOUS
10
27.0299
20
24.4789
11
27.0375
21
24.4881
0
LINE
8
BLACK
6
CONTINUOUS
10
27.0375
20
24.4881
11
27.0379
21
24.4884
0
LINE
8
BLACK
6
CONTINUOUS
10
27.0379
20
24.4884
11
27.0381
21
24.4887
0
LINE
8
BLACK
6
CONTINUOUS
10
27.0381
20
24.4887
11
27.0475
21
24.4962
0
LINE
8
BLACK
6
CONTINUOUS
10
27.0475
20
24.4962
11
27.0567
21
24.5038
0
LINE
8
BLACK
6
CONTINUOUS
10
27.0567
20
24.5038
11
27.0571
21
24.504
0
LINE
8
BLACK
6
CONTINUOUS
10
27.0571
20
24.504
11
27.0575
21
24.5043
0
LINE
8
BLACK
6
CONTINUOUS
10
27.0575
20
24.5043
11
27.0681
21
24.5098
0
LINE
8
BLACK
6
CONTINUOUS
10
27.0681
20
24.5098
11
27.0786
21
24.5154
0
LINE
8
BLACK
6
CONTINUOUS
10
27.0786
20
24.5154
11
27.079
21
24.5155
0
LINE
8
BLACK
6
CONTINUOUS
10
27.079
20
24.5155
11
27.0794
21
24.5158
0
LINE
8
BLACK
6
CONTINUOUS
10
27.0794
20
24.5158
11
27.0909
21
24.5191
0
LINE
8
BLACK
6
CONTINUOUS
10
27.0909
20
24.5191
11
27.1023
21
24.5226
0
LINE
8
BLACK
6
CONTINUOUS
10
27.1023
20
24.5226
11
27.1028
21
24.5226
0
LINE
8
BLACK
6
CONTINUOUS
10
27.1028
20
24.5226
11
27.1032
21
24.5227
0
LINE
8
BLACK
6
CONTINUOUS
10
27.1032
20
24.5227
11
27.1151
21
24.5238
0
LINE
8
BLACK
6
CONTINUOUS
10
27.1151
20
24.5238
11
27.127
21
24.525
0
LINE
8
BLACK
6
CONTINUOUS
10
27.127
20
24.525
11
38.373
21
24.525
0
LINE
8
BLACK
6
CONTINUOUS
10
38.373
20
24.525
11
38.3739
21
24.525
0
CIRCLE
8
BLACK
10
32.5
20
23.4
40
0.3
0
CIRCLE
8
BLACK
10
6.7
20
10.8
40
0.3
0
CIRCLE
8
BLACK
10
6.7
20
14.2
40
0.3
0
CIRCLE
8
BLACK
10
6.35
20
18.15
40
0.3
0
CIRCLE
8
BLACK
10
16.4
20
15.9
40
0.3
0
CIRCLE
8
BLACK
10
19
20
22.5
40
0.3
0
CIRCLE
8
BLACK
10
24.5
20
22.5
40
0.3
0
CIRCLE
8
BLACK
10
41.3
20
6.2
40
0.3
0
CIRCLE
8
BLACK
10
19
20
7
40
0.3
0
CIRCLE
8
BLACK
10
1.5
20
9.7
40
0.3
0
CIRCLE
8
BLACK
10
36.6
20
6.2
40
0.3
0
CIRCLE
8
BLACK
10
16.579
20
2.579
40
0.3
  0
ENDSEC
  0
EOF
