  0
SECTION
  2
HEADER
  9
$ANGBASE
  50
0.0
  9
$ANGDIR
  70
1
  9
$MEASUREMENT
  70
1
  0
ENDSEC
  0
SECTION
  2
TABLES
  0
TABLE
  2
LTYPE
  70
4
  0
LTYPE
  5
40F
  2
CONTINUOUS
  70
0
  3
Solid line
  72
65
  73
0
  40
0.0
  0
LTYPE
  5
410
  2
DASHDOT
 70
0
  3
Dash Dot ____ _ ____ _
 72
65
 73
4
 40
2.0
 49
1.25
 49
-0.25
 49
0.25
 49
-0.25
  0
LTYPE
  5
411
  2
DASHED
 70
0
  3
Dashed __ __ __ __ __
 72
65
 73
2
 40
0.75
 49
0.5
 49
-0.25
  0
LTYPE
  5
43B
  2
DOTTED
 70
0
  3
Dotted .  .  .  .
 72
65
 73
2
 40
0.2
 49
0.0
 49
-0.2
  0
ENDTAB
  0
TABLE
  2
STYLE
  70
4
  0
STYLE
  2
KICAD
  70
0
  40
0
  41
1
  42
1
  50
0
  71
0
  3
isocp.shx
  0
STYLE
  2
KICADB
  70
0
  40
0
  41
1
  42
1
  50
0
  71
0
  3
isocp.shx
  0
STYLE
  2
KICADI
  70
0
  40
0
  41
1
  42
1
  50
15
  71
0
  3
isocp.shx
  0
STYLE
  2
KICADBI
  70
0
  40
0
  41
1
  42
1
  50
15
  71
0
  3
isocp.shx
  0
ENDTAB
  0
TABLE
  2
LAYER
  70
1
  0
LAYER
  2
BLACK
  70
0
  62
7
  6
CONTINUOUS
  0
ENDTAB
  0
ENDSEC
  0
SECTION
  2
ENTITIES
0
LINE
8
BLACK
6
CONTINUOUS
10
43.0037
20
25.075
11
43.0147
21
25.0739
0
LINE
8
BLACK
6
CONTINUOUS
10
43.0147
20
25.0739
11
43.0288
21
25.0696
0
LINE
8
BLACK
6
CONTINUOUS
10
43.0288
20
25.0696
11
43.0419
21
25.0627
0
LINE
8
BLACK
6
CONTINUOUS
10
43.0419
20
25.0627
11
43.0533
21
25.0533
0
LINE
8
BLACK
6
CONTINUOUS
10
43.0533
20
25.0533
11
43.0627
21
25.0419
0
LINE
8
BLACK
6
CONTINUOUS
10
43.0627
20
25.0419
11
43.0696
21
25.0288
0
LINE
8
BLACK
6
CONTINUOUS
10
43.0696
20
25.0288
11
43.0739
21
25.0147
0
LINE
8
BLACK
6
CONTINUOUS
10
43.0739
20
25.0147
11
43.0754
21
25
0
LINE
8
BLACK
6
CONTINUOUS
10
43.0754
20
25
11
43.075
21
24.9963
0
LINE
8
BLACK
6
CONTINUOUS
10
43.075
20
24.9963
11
43.075
21
0.003675
0
LINE
8
BLACK
6
CONTINUOUS
10
43.075
20
0.003675
11
43.0754
21
0
0
LINE
8
BLACK
6
CONTINUOUS
10
43.0754
20
0
11
43.0739
21
-0.014702
0
LINE
8
BLACK
6
CONTINUOUS
10
43.0739
20
-0.014702
11
43.0696
21
-0.02884
0
LINE
8
BLACK
6
CONTINUOUS
10
43.0696
20
-0.02884
11
43.0627
21
-0.041869
0
LINE
8
BLACK
6
CONTINUOUS
10
43.0627
20
-0.041869
11
43.0533
21
-0.053289
0
LINE
8
BLACK
6
CONTINUOUS
10
43.0533
20
-0.053289
11
43.0419
21
-0.062661
0
LINE
8
BLACK
6
CONTINUOUS
10
43.0419
20
-0.062661
11
43.0288
21
-0.069625
0
LINE
8
BLACK
6
CONTINUOUS
10
43.0288
20
-0.069625
11
43.0147
21
-0.073914
0
LINE
8
BLACK
6
CONTINUOUS
10
43.0147
20
-0.073914
11
43.0037
21
-0.075
0
LINE
8
BLACK
6
CONTINUOUS
10
43.0037
20
-0.075
11
43
21
-0.075362
0
LINE
8
BLACK
6
CONTINUOUS
10
43
20
-0.075362
11
42.9963
21
-0.075
0
LINE
8
BLACK
6
CONTINUOUS
10
42.9963
20
-0.075
11
0.003675
21
-0.075
0
LINE
8
BLACK
6
CONTINUOUS
10
0.003675
20
-0.075
11
0
21
-0.075362
0
LINE
8
BLACK
6
CONTINUOUS
10
0
20
-0.075362
11
-0.014702
21
-0.073914
0
LINE
8
BLACK
6
CONTINUOUS
10
-0.014702
20
-0.073914
11
-0.02884
21
-0.069625
0
LINE
8
BLACK
6
CONTINUOUS
10
-0.02884
20
-0.069625
11
-0.041869
21
-0.062661
0
LINE
8
BLACK
6
CONTINUOUS
10
-0.041869
20
-0.062661
11
-0.053289
21
-0.053289
0
LINE
8
BLACK
6
CONTINUOUS
10
-0.053289
20
-0.053289
11
-0.062661
21
-0.041869
0
LINE
8
BLACK
6
CONTINUOUS
10
-0.062661
20
-0.041869
11
-0.069625
21
-0.02884
0
LINE
8
BLACK
6
CONTINUOUS
10
-0.069625
20
-0.02884
11
-0.073914
21
-0.014702
0
LINE
8
BLACK
6
CONTINUOUS
10
-0.073914
20
-0.014702
11
-0.075362
21
0
0
LINE
8
BLACK
6
CONTINUOUS
10
-0.075362
20
0
11
-0.075
21
0.003676
0
LINE
8
BLACK
6
CONTINUOUS
10
-0.075
20
0.003676
11
-0.074999
21
24.9963
0
LINE
8
BLACK
6
CONTINUOUS
10
-0.074999
20
24.9963
11
-0.075362
21
25
0
LINE
8
BLACK
6
CONTINUOUS
10
-0.075362
20
25
11
-0.073914
21
25.0147
0
LINE
8
BLACK
6
CONTINUOUS
10
-0.073914
20
25.0147
11
-0.069625
21
25.0288
0
LINE
8
BLACK
6
CONTINUOUS
10
-0.069625
20
25.0288
11
-0.062661
21
25.0419
0
LINE
8
BLACK
6
CONTINUOUS
10
-0.062661
20
25.0419
11
-0.053289
21
25.0533
0
LINE
8
BLACK
6
CONTINUOUS
10
-0.053289
20
25.0533
11
-0.041869
21
25.0627
0
LINE
8
BLACK
6
CONTINUOUS
10
-0.041869
20
25.0627
11
-0.02884
21
25.0696
0
LINE
8
BLACK
6
CONTINUOUS
10
-0.02884
20
25.0696
11
-0.014702
21
25.0739
0
LINE
8
BLACK
6
CONTINUOUS
10
-0.014702
20
25.0739
11
-0.003675
21
25.075
0
LINE
8
BLACK
6
CONTINUOUS
10
-0.003675
20
25.075
11
0
21
25.0754
0
LINE
8
BLACK
6
CONTINUOUS
10
0
20
25.0754
11
0.003675
21
25.075
0
LINE
8
BLACK
6
CONTINUOUS
10
0.003675
20
25.075
11
42.9963
21
25.075
0
LINE
8
BLACK
6
CONTINUOUS
10
42.9963
20
25.075
11
43
21
25.0754
0
LINE
8
BLACK
6
CONTINUOUS
10
43
20
25.0754
11
43.0037
21
25.075
0
LINE
8
BLACK
6
CONTINUOUS
10
0.075
20
24.925
11
0.075
21
0.075
0
LINE
8
BLACK
6
CONTINUOUS
10
0.075
20
0.075
11
42.925
21
0.075
0
LINE
8
BLACK
6
CONTINUOUS
10
42.925
20
0.075
11
42.925
21
24.925
0
LINE
8
BLACK
6
CONTINUOUS
10
42.925
20
24.925
11
0.075
21
24.925
  0
ENDSEC
  0
EOF
