%TF.GenerationSoftware,KiCad,Pcbnew,(5.1.6-0-10_14)*%
%TF.CreationDate,2021-08-08T16:08:56+02:00*%
%TF.ProjectId,doorbell,646f6f72-6265-46c6-9c2e-6b696361645f,rev?*%
%TF.SameCoordinates,PX791ddc0PY3ef1480*%
%TF.FileFunction,Copper,L1,Top*%
%TF.FilePolarity,Positive*%
%FSLAX46Y46*%
G04 Gerber Fmt 4.6, Leading zero omitted, Abs format (unit mm)*
G04 Created by KiCad (PCBNEW (5.1.6-0-10_14)) date 2021-08-08 16:08:56*
%MOMM*%
%LPD*%
G01*
G04 APERTURE LIST*
%TA.AperFunction,Profile*%
%ADD10C,0.150000*%
%TD*%
%TA.AperFunction,SMDPad,CuDef*%
%ADD11R,1.500000X1.000000*%
%TD*%
%TA.AperFunction,SMDPad,CuDef*%
%ADD12R,0.650000X1.050000*%
%TD*%
%TA.AperFunction,SMDPad,CuDef*%
%ADD13R,0.800000X1.900000*%
%TD*%
%TA.AperFunction,ComponentPad*%
%ADD14R,1.700000X1.700000*%
%TD*%
%TA.AperFunction,ComponentPad*%
%ADD15O,1.700000X1.700000*%
%TD*%
%TA.AperFunction,SMDPad,CuDef*%
%ADD16R,2.000001X3.500001*%
%TD*%
%TA.AperFunction,SMDPad,CuDef*%
%ADD17R,0.650000X1.060000*%
%TD*%
%TA.AperFunction,ViaPad*%
%ADD18C,1.600000*%
%TD*%
%TA.AperFunction,Conductor*%
%ADD19C,0.500000*%
%TD*%
%TA.AperFunction,Conductor*%
%ADD20C,0.400000*%
%TD*%
%TA.AperFunction,Conductor*%
%ADD21C,0.600000*%
%TD*%
%TA.AperFunction,Conductor*%
%ADD22C,0.800000*%
%TD*%
%TA.AperFunction,Conductor*%
%ADD23C,0.254000*%
%TD*%
G04 APERTURE END LIST*
D10*
X0Y0D02*
X0Y25000000D01*
X45000000Y0D02*
X0Y0D01*
X45000000Y25000000D02*
X45000000Y0D01*
X0Y25000000D02*
X45000000Y25000000D01*
%TO.P,R9,1*%
%TO.N,VCC*%
%TA.AperFunction,SMDPad,CuDef*%
G36*
G01*
X14350000Y20512500D02*
X14350000Y20987500D01*
G75*
G02*
X14587500Y21225000I237500J0D01*
G01*
X15162500Y21225000D01*
G75*
G02*
X15400000Y20987500I0J-237500D01*
G01*
X15400000Y20512500D01*
G75*
G02*
X15162500Y20275000I-237500J0D01*
G01*
X14587500Y20275000D01*
G75*
G02*
X14350000Y20512500I0J237500D01*
G01*
G37*
%TD.AperFunction*%
%TO.P,R9,2*%
%TO.N,/V-*%
%TA.AperFunction,SMDPad,CuDef*%
G36*
G01*
X16100000Y20512500D02*
X16100000Y20987500D01*
G75*
G02*
X16337500Y21225000I237500J0D01*
G01*
X16912500Y21225000D01*
G75*
G02*
X17150000Y20987500I0J-237500D01*
G01*
X17150000Y20512500D01*
G75*
G02*
X16912500Y20275000I-237500J0D01*
G01*
X16337500Y20275000D01*
G75*
G02*
X16100000Y20512500I0J237500D01*
G01*
G37*
%TD.AperFunction*%
%TD*%
%TO.P,R2,2*%
%TO.N,+3V3*%
%TA.AperFunction,SMDPad,CuDef*%
G36*
G01*
X43043750Y17562500D02*
X43556250Y17562500D01*
G75*
G02*
X43775000Y17343750I0J-218750D01*
G01*
X43775000Y16906250D01*
G75*
G02*
X43556250Y16687500I-218750J0D01*
G01*
X43043750Y16687500D01*
G75*
G02*
X42825000Y16906250I0J218750D01*
G01*
X42825000Y17343750D01*
G75*
G02*
X43043750Y17562500I218750J0D01*
G01*
G37*
%TD.AperFunction*%
%TO.P,R2,1*%
%TO.N,/CH_PD*%
%TA.AperFunction,SMDPad,CuDef*%
G36*
G01*
X43043750Y19137500D02*
X43556250Y19137500D01*
G75*
G02*
X43775000Y18918750I0J-218750D01*
G01*
X43775000Y18481250D01*
G75*
G02*
X43556250Y18262500I-218750J0D01*
G01*
X43043750Y18262500D01*
G75*
G02*
X42825000Y18481250I0J218750D01*
G01*
X42825000Y18918750D01*
G75*
G02*
X43043750Y19137500I218750J0D01*
G01*
G37*
%TD.AperFunction*%
%TD*%
D11*
%TO.P,U2,7*%
%TO.N,Net-(U2-Pad7)*%
X41100000Y20698060D03*
%TO.P,U2,6*%
%TO.N,/CH_PD*%
X41100000Y18699080D03*
%TO.P,U2,1*%
%TO.N,GND*%
X41100000Y8701640D03*
%TO.P,U2,14*%
%TO.N,/GPIO0*%
X28900000Y8701640D03*
%TO.P,U2,13*%
%TO.N,/GPIO2*%
X28900000Y10700620D03*
%TO.P,U2,10*%
%TO.N,Net-(U2-Pad10)*%
X28900000Y16697560D03*
%TO.P,U2,11*%
%TO.N,/Signal*%
X28900000Y14701120D03*
%TO.P,U2,9*%
%TO.N,Net-(U2-Pad9)*%
X28900000Y18699080D03*
%TO.P,U2,12*%
%TO.N,/GPIO15*%
X28900000Y12702140D03*
%TO.P,U2,5*%
%TO.N,Net-(U2-Pad5)*%
X41100000Y16697560D03*
%TO.P,U2,2*%
%TO.N,Net-(U2-Pad2)*%
X41100000Y10700620D03*
%TO.P,U2,4*%
%TO.N,/Rx*%
X41100000Y14701120D03*
%TO.P,U2,3*%
%TO.N,/Tx*%
X41100000Y12702140D03*
%TO.P,U2,8*%
%TO.N,+3V3*%
X28900000Y20698060D03*
%TD*%
D12*
%TO.P,SW1,1*%
%TO.N,/GPIO0*%
X27425000Y925000D03*
X27425000Y5075000D03*
%TO.P,SW1,2*%
%TO.N,GND*%
X29575000Y925000D03*
X29575000Y5075000D03*
%TD*%
%TO.P,C4,1*%
%TO.N,+3V3*%
%TA.AperFunction,SMDPad,CuDef*%
G36*
G01*
X25037500Y20175000D02*
X24562500Y20175000D01*
G75*
G02*
X24325000Y20412500I0J237500D01*
G01*
X24325000Y20987500D01*
G75*
G02*
X24562500Y21225000I237500J0D01*
G01*
X25037500Y21225000D01*
G75*
G02*
X25275000Y20987500I0J-237500D01*
G01*
X25275000Y20412500D01*
G75*
G02*
X25037500Y20175000I-237500J0D01*
G01*
G37*
%TD.AperFunction*%
%TO.P,C4,2*%
%TO.N,GND*%
%TA.AperFunction,SMDPad,CuDef*%
G36*
G01*
X25037500Y21925000D02*
X24562500Y21925000D01*
G75*
G02*
X24325000Y22162500I0J237500D01*
G01*
X24325000Y22737500D01*
G75*
G02*
X24562500Y22975000I237500J0D01*
G01*
X25037500Y22975000D01*
G75*
G02*
X25275000Y22737500I0J-237500D01*
G01*
X25275000Y22162500D01*
G75*
G02*
X25037500Y21925000I-237500J0D01*
G01*
G37*
%TD.AperFunction*%
%TD*%
D13*
%TO.P,Q1,1*%
%TO.N,Net-(Q1-Pad1)*%
X24050000Y13500000D03*
%TO.P,Q1,2*%
%TO.N,GND*%
X25950000Y13500000D03*
%TO.P,Q1,3*%
%TO.N,/Signal*%
X25000000Y16500000D03*
%TD*%
%TO.P,Q2,3*%
%TO.N,Net-(Q1-Pad1)*%
X21000000Y16500000D03*
%TO.P,Q2,2*%
%TO.N,GND*%
X21950000Y13500000D03*
%TO.P,Q2,1*%
%TO.N,Net-(Q2-Pad1)*%
X20050000Y13500000D03*
%TD*%
%TO.P,R3,1*%
%TO.N,+3V3*%
%TA.AperFunction,SMDPad,CuDef*%
G36*
G01*
X23600000Y6762500D02*
X23600000Y7237500D01*
G75*
G02*
X23837500Y7475000I237500J0D01*
G01*
X24412500Y7475000D01*
G75*
G02*
X24650000Y7237500I0J-237500D01*
G01*
X24650000Y6762500D01*
G75*
G02*
X24412500Y6525000I-237500J0D01*
G01*
X23837500Y6525000D01*
G75*
G02*
X23600000Y6762500I0J237500D01*
G01*
G37*
%TD.AperFunction*%
%TO.P,R3,2*%
%TO.N,/GPIO0*%
%TA.AperFunction,SMDPad,CuDef*%
G36*
G01*
X25350000Y6762500D02*
X25350000Y7237500D01*
G75*
G02*
X25587500Y7475000I237500J0D01*
G01*
X26162500Y7475000D01*
G75*
G02*
X26400000Y7237500I0J-237500D01*
G01*
X26400000Y6762500D01*
G75*
G02*
X26162500Y6525000I-237500J0D01*
G01*
X25587500Y6525000D01*
G75*
G02*
X25350000Y6762500I0J237500D01*
G01*
G37*
%TD.AperFunction*%
%TD*%
%TO.P,R4,2*%
%TO.N,/GPIO2*%
%TA.AperFunction,SMDPad,CuDef*%
G36*
G01*
X25350000Y8762500D02*
X25350000Y9237500D01*
G75*
G02*
X25587500Y9475000I237500J0D01*
G01*
X26162500Y9475000D01*
G75*
G02*
X26400000Y9237500I0J-237500D01*
G01*
X26400000Y8762500D01*
G75*
G02*
X26162500Y8525000I-237500J0D01*
G01*
X25587500Y8525000D01*
G75*
G02*
X25350000Y8762500I0J237500D01*
G01*
G37*
%TD.AperFunction*%
%TO.P,R4,1*%
%TO.N,+3V3*%
%TA.AperFunction,SMDPad,CuDef*%
G36*
G01*
X23600000Y8762500D02*
X23600000Y9237500D01*
G75*
G02*
X23837500Y9475000I237500J0D01*
G01*
X24412500Y9475000D01*
G75*
G02*
X24650000Y9237500I0J-237500D01*
G01*
X24650000Y8762500D01*
G75*
G02*
X24412500Y8525000I-237500J0D01*
G01*
X23837500Y8525000D01*
G75*
G02*
X23600000Y8762500I0J237500D01*
G01*
G37*
%TD.AperFunction*%
%TD*%
%TO.P,R5,2*%
%TO.N,GND*%
%TA.AperFunction,SMDPad,CuDef*%
G36*
G01*
X24650000Y11237500D02*
X24650000Y10762500D01*
G75*
G02*
X24412500Y10525000I-237500J0D01*
G01*
X23837500Y10525000D01*
G75*
G02*
X23600000Y10762500I0J237500D01*
G01*
X23600000Y11237500D01*
G75*
G02*
X23837500Y11475000I237500J0D01*
G01*
X24412500Y11475000D01*
G75*
G02*
X24650000Y11237500I0J-237500D01*
G01*
G37*
%TD.AperFunction*%
%TO.P,R5,1*%
%TO.N,/GPIO15*%
%TA.AperFunction,SMDPad,CuDef*%
G36*
G01*
X26400000Y11237500D02*
X26400000Y10762500D01*
G75*
G02*
X26162500Y10525000I-237500J0D01*
G01*
X25587500Y10525000D01*
G75*
G02*
X25350000Y10762500I0J237500D01*
G01*
X25350000Y11237500D01*
G75*
G02*
X25587500Y11475000I237500J0D01*
G01*
X26162500Y11475000D01*
G75*
G02*
X26400000Y11237500I0J-237500D01*
G01*
G37*
%TD.AperFunction*%
%TD*%
%TO.P,R6,1*%
%TO.N,+3V3*%
%TA.AperFunction,SMDPad,CuDef*%
G36*
G01*
X27187500Y18937500D02*
X27187500Y18462500D01*
G75*
G02*
X26950000Y18225000I-237500J0D01*
G01*
X26375000Y18225000D01*
G75*
G02*
X26137500Y18462500I0J237500D01*
G01*
X26137500Y18937500D01*
G75*
G02*
X26375000Y19175000I237500J0D01*
G01*
X26950000Y19175000D01*
G75*
G02*
X27187500Y18937500I0J-237500D01*
G01*
G37*
%TD.AperFunction*%
%TO.P,R6,2*%
%TO.N,/Signal*%
%TA.AperFunction,SMDPad,CuDef*%
G36*
G01*
X25437500Y18937500D02*
X25437500Y18462500D01*
G75*
G02*
X25200000Y18225000I-237500J0D01*
G01*
X24625000Y18225000D01*
G75*
G02*
X24387500Y18462500I0J237500D01*
G01*
X24387500Y18937500D01*
G75*
G02*
X24625000Y19175000I237500J0D01*
G01*
X25200000Y19175000D01*
G75*
G02*
X25437500Y18937500I0J-237500D01*
G01*
G37*
%TD.AperFunction*%
%TD*%
%TO.P,R7,1*%
%TO.N,+3V3*%
%TA.AperFunction,SMDPad,CuDef*%
G36*
G01*
X20762500Y21225000D02*
X21237500Y21225000D01*
G75*
G02*
X21475000Y20987500I0J-237500D01*
G01*
X21475000Y20412500D01*
G75*
G02*
X21237500Y20175000I-237500J0D01*
G01*
X20762500Y20175000D01*
G75*
G02*
X20525000Y20412500I0J237500D01*
G01*
X20525000Y20987500D01*
G75*
G02*
X20762500Y21225000I237500J0D01*
G01*
G37*
%TD.AperFunction*%
%TO.P,R7,2*%
%TO.N,Net-(Q1-Pad1)*%
%TA.AperFunction,SMDPad,CuDef*%
G36*
G01*
X20762500Y19475000D02*
X21237500Y19475000D01*
G75*
G02*
X21475000Y19237500I0J-237500D01*
G01*
X21475000Y18662500D01*
G75*
G02*
X21237500Y18425000I-237500J0D01*
G01*
X20762500Y18425000D01*
G75*
G02*
X20525000Y18662500I0J237500D01*
G01*
X20525000Y19237500D01*
G75*
G02*
X20762500Y19475000I237500J0D01*
G01*
G37*
%TD.AperFunction*%
%TD*%
%TO.P,R8,2*%
%TO.N,GND*%
%TA.AperFunction,SMDPad,CuDef*%
G36*
G01*
X21350000Y10762500D02*
X21350000Y11237500D01*
G75*
G02*
X21587500Y11475000I237500J0D01*
G01*
X22162500Y11475000D01*
G75*
G02*
X22400000Y11237500I0J-237500D01*
G01*
X22400000Y10762500D01*
G75*
G02*
X22162500Y10525000I-237500J0D01*
G01*
X21587500Y10525000D01*
G75*
G02*
X21350000Y10762500I0J237500D01*
G01*
G37*
%TD.AperFunction*%
%TO.P,R8,1*%
%TO.N,Net-(Q2-Pad1)*%
%TA.AperFunction,SMDPad,CuDef*%
G36*
G01*
X19600000Y10762500D02*
X19600000Y11237500D01*
G75*
G02*
X19837500Y11475000I237500J0D01*
G01*
X20412500Y11475000D01*
G75*
G02*
X20650000Y11237500I0J-237500D01*
G01*
X20650000Y10762500D01*
G75*
G02*
X20412500Y10525000I-237500J0D01*
G01*
X19837500Y10525000D01*
G75*
G02*
X19600000Y10762500I0J237500D01*
G01*
G37*
%TD.AperFunction*%
%TD*%
%TO.P,R10,2*%
%TO.N,GND*%
%TA.AperFunction,SMDPad,CuDef*%
G36*
G01*
X15400000Y22737500D02*
X15400000Y22262500D01*
G75*
G02*
X15162500Y22025000I-237500J0D01*
G01*
X14587500Y22025000D01*
G75*
G02*
X14350000Y22262500I0J237500D01*
G01*
X14350000Y22737500D01*
G75*
G02*
X14587500Y22975000I237500J0D01*
G01*
X15162500Y22975000D01*
G75*
G02*
X15400000Y22737500I0J-237500D01*
G01*
G37*
%TD.AperFunction*%
%TO.P,R10,1*%
%TO.N,/V-*%
%TA.AperFunction,SMDPad,CuDef*%
G36*
G01*
X17150000Y22737500D02*
X17150000Y22262500D01*
G75*
G02*
X16912500Y22025000I-237500J0D01*
G01*
X16337500Y22025000D01*
G75*
G02*
X16100000Y22262500I0J237500D01*
G01*
X16100000Y22737500D01*
G75*
G02*
X16337500Y22975000I237500J0D01*
G01*
X16912500Y22975000D01*
G75*
G02*
X17150000Y22737500I0J-237500D01*
G01*
G37*
%TD.AperFunction*%
%TD*%
%TO.P,C3,1*%
%TO.N,+3V3*%
%TA.AperFunction,SMDPad,CuDef*%
G36*
G01*
X26897500Y20175000D02*
X26422500Y20175000D01*
G75*
G02*
X26185000Y20412500I0J237500D01*
G01*
X26185000Y20987500D01*
G75*
G02*
X26422500Y21225000I237500J0D01*
G01*
X26897500Y21225000D01*
G75*
G02*
X27135000Y20987500I0J-237500D01*
G01*
X27135000Y20412500D01*
G75*
G02*
X26897500Y20175000I-237500J0D01*
G01*
G37*
%TD.AperFunction*%
%TO.P,C3,2*%
%TO.N,GND*%
%TA.AperFunction,SMDPad,CuDef*%
G36*
G01*
X26897500Y21925000D02*
X26422500Y21925000D01*
G75*
G02*
X26185000Y22162500I0J237500D01*
G01*
X26185000Y22737500D01*
G75*
G02*
X26422500Y22975000I237500J0D01*
G01*
X26897500Y22975000D01*
G75*
G02*
X27135000Y22737500I0J-237500D01*
G01*
X27135000Y22162500D01*
G75*
G02*
X26897500Y21925000I-237500J0D01*
G01*
G37*
%TD.AperFunction*%
%TD*%
D14*
%TO.P,J1,1*%
%TO.N,GND*%
X2250000Y22250000D03*
D15*
%TO.P,J1,2*%
%TO.N,/V+*%
X4790000Y22250000D03*
%TO.P,J1,3*%
%TO.N,VCC*%
X7330000Y22250000D03*
%TD*%
D14*
%TO.P,J2,1*%
%TO.N,GND*%
X33750000Y3750000D03*
D15*
%TO.P,J2,2*%
%TO.N,/Rx*%
X36290000Y3750000D03*
%TO.P,J2,3*%
%TO.N,/Tx*%
X38830000Y3750000D03*
%TO.P,J2,4*%
%TO.N,+3V3*%
X41370000Y3750000D03*
%TD*%
%TO.P,C1,1*%
%TO.N,VCC*%
%TA.AperFunction,SMDPad,CuDef*%
G36*
G01*
X18825000Y800000D02*
X16675000Y800000D01*
G75*
G02*
X16425000Y1050000I0J250000D01*
G01*
X16425000Y1975000D01*
G75*
G02*
X16675000Y2225000I250000J0D01*
G01*
X18825000Y2225000D01*
G75*
G02*
X19075000Y1975000I0J-250000D01*
G01*
X19075000Y1050000D01*
G75*
G02*
X18825000Y800000I-250000J0D01*
G01*
G37*
%TD.AperFunction*%
%TO.P,C1,2*%
%TO.N,GND*%
%TA.AperFunction,SMDPad,CuDef*%
G36*
G01*
X18825000Y3775000D02*
X16675000Y3775000D01*
G75*
G02*
X16425000Y4025000I0J250000D01*
G01*
X16425000Y4950000D01*
G75*
G02*
X16675000Y5200000I250000J0D01*
G01*
X18825000Y5200000D01*
G75*
G02*
X19075000Y4950000I0J-250000D01*
G01*
X19075000Y4025000D01*
G75*
G02*
X18825000Y3775000I-250000J0D01*
G01*
G37*
%TD.AperFunction*%
%TD*%
%TO.P,C2,1*%
%TO.N,VCC*%
%TA.AperFunction,SMDPad,CuDef*%
G36*
G01*
X12575000Y20050000D02*
X10425000Y20050000D01*
G75*
G02*
X10175000Y20300000I0J250000D01*
G01*
X10175000Y21225000D01*
G75*
G02*
X10425000Y21475000I250000J0D01*
G01*
X12575000Y21475000D01*
G75*
G02*
X12825000Y21225000I0J-250000D01*
G01*
X12825000Y20300000D01*
G75*
G02*
X12575000Y20050000I-250000J0D01*
G01*
G37*
%TD.AperFunction*%
%TO.P,C2,2*%
%TO.N,GND*%
%TA.AperFunction,SMDPad,CuDef*%
G36*
G01*
X12575000Y23025000D02*
X10425000Y23025000D01*
G75*
G02*
X10175000Y23275000I0J250000D01*
G01*
X10175000Y24200000D01*
G75*
G02*
X10425000Y24450000I250000J0D01*
G01*
X12575000Y24450000D01*
G75*
G02*
X12825000Y24200000I0J-250000D01*
G01*
X12825000Y23275000D01*
G75*
G02*
X12575000Y23025000I-250000J0D01*
G01*
G37*
%TD.AperFunction*%
%TD*%
%TO.P,C5,1*%
%TO.N,/V+*%
%TA.AperFunction,SMDPad,CuDef*%
G36*
G01*
X4900000Y20237500D02*
X4900000Y19762500D01*
G75*
G02*
X4662500Y19525000I-237500J0D01*
G01*
X4087500Y19525000D01*
G75*
G02*
X3850000Y19762500I0J237500D01*
G01*
X3850000Y20237500D01*
G75*
G02*
X4087500Y20475000I237500J0D01*
G01*
X4662500Y20475000D01*
G75*
G02*
X4900000Y20237500I0J-237500D01*
G01*
G37*
%TD.AperFunction*%
%TO.P,C5,2*%
%TO.N,GND*%
%TA.AperFunction,SMDPad,CuDef*%
G36*
G01*
X3150000Y20237500D02*
X3150000Y19762500D01*
G75*
G02*
X2912500Y19525000I-237500J0D01*
G01*
X2337500Y19525000D01*
G75*
G02*
X2100000Y19762500I0J237500D01*
G01*
X2100000Y20237500D01*
G75*
G02*
X2337500Y20475000I237500J0D01*
G01*
X2912500Y20475000D01*
G75*
G02*
X3150000Y20237500I0J-237500D01*
G01*
G37*
%TD.AperFunction*%
%TD*%
%TO.P,C6,2*%
%TO.N,GND*%
%TA.AperFunction,SMDPad,CuDef*%
G36*
G01*
X2725000Y3075000D02*
X2725000Y925000D01*
G75*
G02*
X2475000Y675000I-250000J0D01*
G01*
X1550000Y675000D01*
G75*
G02*
X1300000Y925000I0J250000D01*
G01*
X1300000Y3075000D01*
G75*
G02*
X1550000Y3325000I250000J0D01*
G01*
X2475000Y3325000D01*
G75*
G02*
X2725000Y3075000I0J-250000D01*
G01*
G37*
%TD.AperFunction*%
%TO.P,C6,1*%
%TO.N,+3V3*%
%TA.AperFunction,SMDPad,CuDef*%
G36*
G01*
X5700000Y3075000D02*
X5700000Y925000D01*
G75*
G02*
X5450000Y675000I-250000J0D01*
G01*
X4525000Y675000D01*
G75*
G02*
X4275000Y925000I0J250000D01*
G01*
X4275000Y3075000D01*
G75*
G02*
X4525000Y3325000I250000J0D01*
G01*
X5450000Y3325000D01*
G75*
G02*
X5700000Y3075000I0J-250000D01*
G01*
G37*
%TD.AperFunction*%
%TD*%
%TO.P,C7,2*%
%TO.N,GND*%
%TA.AperFunction,SMDPad,CuDef*%
G36*
G01*
X2725000Y6325000D02*
X2725000Y4175000D01*
G75*
G02*
X2475000Y3925000I-250000J0D01*
G01*
X1550000Y3925000D01*
G75*
G02*
X1300000Y4175000I0J250000D01*
G01*
X1300000Y6325000D01*
G75*
G02*
X1550000Y6575000I250000J0D01*
G01*
X2475000Y6575000D01*
G75*
G02*
X2725000Y6325000I0J-250000D01*
G01*
G37*
%TD.AperFunction*%
%TO.P,C7,1*%
%TO.N,+3V3*%
%TA.AperFunction,SMDPad,CuDef*%
G36*
G01*
X5700000Y6325000D02*
X5700000Y4175000D01*
G75*
G02*
X5450000Y3925000I-250000J0D01*
G01*
X4525000Y3925000D01*
G75*
G02*
X4275000Y4175000I0J250000D01*
G01*
X4275000Y6325000D01*
G75*
G02*
X4525000Y6575000I250000J0D01*
G01*
X5450000Y6575000D01*
G75*
G02*
X5700000Y6325000I0J-250000D01*
G01*
G37*
%TD.AperFunction*%
%TD*%
%TO.P,D1,1*%
%TO.N,Net-(D1-Pad1)*%
%TA.AperFunction,SMDPad,CuDef*%
G36*
G01*
X13575000Y7537500D02*
X13575000Y7962500D01*
G75*
G02*
X13787500Y8175000I212500J0D01*
G01*
X14587500Y8175000D01*
G75*
G02*
X14800000Y7962500I0J-212500D01*
G01*
X14800000Y7537500D01*
G75*
G02*
X14587500Y7325000I-212500J0D01*
G01*
X13787500Y7325000D01*
G75*
G02*
X13575000Y7537500I0J212500D01*
G01*
G37*
%TD.AperFunction*%
%TO.P,D1,2*%
%TO.N,GND*%
%TA.AperFunction,SMDPad,CuDef*%
G36*
G01*
X15200000Y7537500D02*
X15200000Y7962500D01*
G75*
G02*
X15412500Y8175000I212500J0D01*
G01*
X16212500Y8175000D01*
G75*
G02*
X16425000Y7962500I0J-212500D01*
G01*
X16425000Y7537500D01*
G75*
G02*
X16212500Y7325000I-212500J0D01*
G01*
X15412500Y7325000D01*
G75*
G02*
X15200000Y7537500I0J212500D01*
G01*
G37*
%TD.AperFunction*%
%TD*%
D16*
%TO.P,L1,2*%
%TO.N,+3V3*%
X2500001Y13674999D03*
%TO.P,L1,1*%
%TO.N,Net-(D1-Pad1)*%
X11500001Y13674999D03*
%TD*%
D12*
%TO.P,SW2,1*%
%TO.N,/Signal*%
X21925000Y925000D03*
X21925000Y5075000D03*
%TO.P,SW2,2*%
%TO.N,GND*%
X24075000Y925000D03*
X24075000Y5075000D03*
%TD*%
%TO.P,U1,1*%
%TO.N,Net-(U1-Pad1)*%
%TA.AperFunction,SMDPad,CuDef*%
G36*
G01*
X8050000Y5255000D02*
X8050000Y5555000D01*
G75*
G02*
X8200000Y5705000I150000J0D01*
G01*
X9850000Y5705000D01*
G75*
G02*
X10000000Y5555000I0J-150000D01*
G01*
X10000000Y5255000D01*
G75*
G02*
X9850000Y5105000I-150000J0D01*
G01*
X8200000Y5105000D01*
G75*
G02*
X8050000Y5255000I0J150000D01*
G01*
G37*
%TD.AperFunction*%
%TO.P,U1,2*%
%TO.N,Net-(U1-Pad2)*%
%TA.AperFunction,SMDPad,CuDef*%
G36*
G01*
X8050000Y3985000D02*
X8050000Y4285000D01*
G75*
G02*
X8200000Y4435000I150000J0D01*
G01*
X9850000Y4435000D01*
G75*
G02*
X10000000Y4285000I0J-150000D01*
G01*
X10000000Y3985000D01*
G75*
G02*
X9850000Y3835000I-150000J0D01*
G01*
X8200000Y3835000D01*
G75*
G02*
X8050000Y3985000I0J150000D01*
G01*
G37*
%TD.AperFunction*%
%TO.P,U1,3*%
%TO.N,Net-(U1-Pad3)*%
%TA.AperFunction,SMDPad,CuDef*%
G36*
G01*
X8050000Y2715000D02*
X8050000Y3015000D01*
G75*
G02*
X8200000Y3165000I150000J0D01*
G01*
X9850000Y3165000D01*
G75*
G02*
X10000000Y3015000I0J-150000D01*
G01*
X10000000Y2715000D01*
G75*
G02*
X9850000Y2565000I-150000J0D01*
G01*
X8200000Y2565000D01*
G75*
G02*
X8050000Y2715000I0J150000D01*
G01*
G37*
%TD.AperFunction*%
%TO.P,U1,4*%
%TO.N,+3V3*%
%TA.AperFunction,SMDPad,CuDef*%
G36*
G01*
X8050000Y1445000D02*
X8050000Y1745000D01*
G75*
G02*
X8200000Y1895000I150000J0D01*
G01*
X9850000Y1895000D01*
G75*
G02*
X10000000Y1745000I0J-150000D01*
G01*
X10000000Y1445000D01*
G75*
G02*
X9850000Y1295000I-150000J0D01*
G01*
X8200000Y1295000D01*
G75*
G02*
X8050000Y1445000I0J150000D01*
G01*
G37*
%TD.AperFunction*%
%TO.P,U1,5*%
%TO.N,VCC*%
%TA.AperFunction,SMDPad,CuDef*%
G36*
G01*
X13000000Y1445000D02*
X13000000Y1745000D01*
G75*
G02*
X13150000Y1895000I150000J0D01*
G01*
X14800000Y1895000D01*
G75*
G02*
X14950000Y1745000I0J-150000D01*
G01*
X14950000Y1445000D01*
G75*
G02*
X14800000Y1295000I-150000J0D01*
G01*
X13150000Y1295000D01*
G75*
G02*
X13000000Y1445000I0J150000D01*
G01*
G37*
%TD.AperFunction*%
%TO.P,U1,6*%
%TO.N,GND*%
%TA.AperFunction,SMDPad,CuDef*%
G36*
G01*
X13000000Y2715000D02*
X13000000Y3015000D01*
G75*
G02*
X13150000Y3165000I150000J0D01*
G01*
X14800000Y3165000D01*
G75*
G02*
X14950000Y3015000I0J-150000D01*
G01*
X14950000Y2715000D01*
G75*
G02*
X14800000Y2565000I-150000J0D01*
G01*
X13150000Y2565000D01*
G75*
G02*
X13000000Y2715000I0J150000D01*
G01*
G37*
%TD.AperFunction*%
%TO.P,U1,7*%
%TO.N,VCC*%
%TA.AperFunction,SMDPad,CuDef*%
G36*
G01*
X13000000Y3985000D02*
X13000000Y4285000D01*
G75*
G02*
X13150000Y4435000I150000J0D01*
G01*
X14800000Y4435000D01*
G75*
G02*
X14950000Y4285000I0J-150000D01*
G01*
X14950000Y3985000D01*
G75*
G02*
X14800000Y3835000I-150000J0D01*
G01*
X13150000Y3835000D01*
G75*
G02*
X13000000Y3985000I0J150000D01*
G01*
G37*
%TD.AperFunction*%
%TO.P,U1,8*%
%TO.N,Net-(D1-Pad1)*%
%TA.AperFunction,SMDPad,CuDef*%
G36*
G01*
X13000000Y5255000D02*
X13000000Y5555000D01*
G75*
G02*
X13150000Y5705000I150000J0D01*
G01*
X14800000Y5705000D01*
G75*
G02*
X14950000Y5555000I0J-150000D01*
G01*
X14950000Y5255000D01*
G75*
G02*
X14800000Y5105000I-150000J0D01*
G01*
X13150000Y5105000D01*
G75*
G02*
X13000000Y5255000I0J150000D01*
G01*
G37*
%TD.AperFunction*%
%TD*%
D17*
%TO.P,U3,1*%
%TO.N,Net-(Q2-Pad1)*%
X14800000Y16900000D03*
%TO.P,U3,2*%
%TO.N,GND*%
X15750000Y16900000D03*
%TO.P,U3,3*%
%TO.N,/V+*%
X16700000Y16900000D03*
%TO.P,U3,4*%
%TO.N,/V-*%
X16700000Y19100000D03*
%TO.P,U3,5*%
%TO.N,VCC*%
X14800000Y19100000D03*
%TD*%
D18*
%TO.N,GND*%
X15900000Y9400000D03*
X23000000Y22500000D03*
X17600000Y13900000D03*
X2000000Y7500000D03*
%TO.N,VCC*%
X11400000Y7000000D03*
%TO.N,+3V3*%
X6750000Y5250000D03*
X21900000Y7800000D03*
X43300000Y15100000D03*
X19250014Y20750000D03*
%TO.N,/V+*%
X18400000Y16900000D03*
%TO.N,/Signal*%
X23000000Y17600000D03*
X18800000Y7700000D03*
%TD*%
D19*
%TO.N,GND*%
X24125000Y11225000D02*
X24125000Y11000000D01*
X25950000Y13500000D02*
X25950000Y13050000D01*
X25950000Y13050000D02*
X24125000Y11225000D01*
D20*
X26662500Y22337494D02*
X26499994Y22500000D01*
D21*
X24125000Y11000000D02*
X21875000Y11000000D01*
D20*
X21950000Y11075000D02*
X21875000Y11000000D01*
D21*
X21950000Y13500000D02*
X21950000Y11075000D01*
D20*
X15812500Y9312500D02*
X15812500Y7750000D01*
X15900000Y9400000D02*
X15812500Y9312500D01*
X21500000Y9400000D02*
X15900000Y9400000D01*
X21875000Y9775000D02*
X21500000Y9400000D01*
X21875000Y11000000D02*
X21875000Y9775000D01*
D21*
X26660000Y22450000D02*
X24800000Y22450000D01*
D20*
X23050000Y22450000D02*
X23000000Y22500000D01*
D21*
X24800000Y22450000D02*
X23050000Y22450000D01*
X15750000Y16900000D02*
X15750000Y15750000D01*
X15750000Y15750000D02*
X17600000Y13900000D01*
X2012500Y5250000D02*
X2012500Y2000000D01*
D20*
X2012500Y7487500D02*
X2000000Y7500000D01*
X2012500Y5250000D02*
X2012500Y7487500D01*
D21*
X17087500Y4487500D02*
X17750000Y4487500D01*
X15465000Y2865000D02*
X17087500Y4487500D01*
X13975000Y2865000D02*
X15465000Y2865000D01*
D20*
%TO.N,VCC*%
X14800000Y20675000D02*
X14875000Y20750000D01*
X14800000Y19100000D02*
X14800000Y20675000D01*
X11512500Y20750000D02*
X11500000Y20762500D01*
D21*
X14875000Y20750000D02*
X11512500Y20750000D01*
D20*
X17667500Y1595000D02*
X17750000Y1512500D01*
D21*
X13975000Y1595000D02*
X17667500Y1595000D01*
X12205000Y1595000D02*
X13975000Y1595000D01*
X11400000Y7000000D02*
X11400000Y3400000D01*
X11400000Y3400000D02*
X11400000Y2400000D01*
X11400000Y2400000D02*
X12205000Y1595000D01*
X11400000Y5000000D02*
X11400000Y4400000D01*
X12265000Y4135000D02*
X11400000Y5000000D01*
X13975000Y4135000D02*
X12265000Y4135000D01*
D22*
X8737500Y20762500D02*
X7330000Y22170000D01*
X11500000Y20762500D02*
X8737500Y20762500D01*
D21*
%TO.N,+3V3*%
X24125000Y9000000D02*
X24125000Y7000000D01*
D20*
X28898060Y20700000D02*
X28900000Y20698060D01*
D21*
X24801940Y20698060D02*
X24800000Y20700000D01*
X28900000Y20698060D02*
X24801940Y20698060D01*
X26660000Y18702500D02*
X26662500Y18700000D01*
X26660000Y20700000D02*
X26660000Y18702500D01*
D22*
X4987500Y5250000D02*
X4987500Y2000000D01*
D21*
X5392500Y1595000D02*
X8525000Y1595000D01*
D20*
X4987500Y2000000D02*
X5392500Y1595000D01*
D21*
X4987500Y5250000D02*
X6750000Y5250000D01*
D22*
X4987500Y8412500D02*
X4987500Y5250000D01*
X2500001Y13674999D02*
X2500001Y10899999D01*
X2500001Y10899999D02*
X4987500Y8412500D01*
D21*
X24800000Y20700000D02*
X21000000Y20700000D01*
D20*
X23100000Y9000000D02*
X21900000Y7800000D01*
X24125000Y9000000D02*
X23100000Y9000000D01*
D21*
X43300000Y17125000D02*
X43300000Y15100000D01*
X19300014Y20700000D02*
X19250014Y20750000D01*
X21000000Y20700000D02*
X19300014Y20700000D01*
D19*
%TO.N,Net-(Q1-Pad1)*%
X24050000Y13975000D02*
X24050000Y13500000D01*
X21525000Y16500000D02*
X24050000Y13975000D01*
X21000000Y16500000D02*
X21525000Y16500000D01*
D21*
X21000000Y18950000D02*
X21000000Y16500000D01*
D19*
%TO.N,/Signal*%
X27798880Y14701120D02*
X28900000Y14701120D01*
X26000000Y16500000D02*
X27798880Y14701120D01*
X25000000Y16500000D02*
X26000000Y16500000D01*
D20*
X24912500Y16587500D02*
X25000000Y16500000D01*
D21*
%TO.N,Net-(Q2-Pad1)*%
X20050000Y11075000D02*
X20125000Y11000000D01*
X20050000Y13500000D02*
X20050000Y11075000D01*
X17100000Y11000000D02*
X14800000Y13300000D01*
X20125000Y11000000D02*
X17100000Y11000000D01*
X14800000Y13300000D02*
X14800000Y16900000D01*
D19*
%TO.N,/Rx*%
X36290000Y6210000D02*
X36290000Y3750000D01*
X36290000Y12040000D02*
X36290000Y6210000D01*
X38951120Y14701120D02*
X36290000Y12040000D01*
X41100000Y14701120D02*
X38951120Y14701120D01*
%TO.N,/Tx*%
X39702140Y12702140D02*
X41100000Y12702140D01*
X38830000Y11830000D02*
X39702140Y12702140D01*
X38830000Y3750000D02*
X38830000Y11830000D01*
D20*
%TO.N,/CH_PD*%
X43299080Y18699080D02*
X43300000Y18700000D01*
D19*
X41100000Y18699080D02*
X43299080Y18699080D01*
%TO.N,/GPIO2*%
X26500000Y9000000D02*
X28200620Y10700620D01*
X25875000Y9000000D02*
X26500000Y9000000D01*
X28200620Y10700620D02*
X28900000Y10700620D01*
%TO.N,/GPIO15*%
X26500000Y11000000D02*
X28202140Y12702140D01*
X25875000Y11000000D02*
X26500000Y11000000D01*
X28202140Y12702140D02*
X28900000Y12702140D01*
D20*
%TO.N,/V+*%
X16700000Y16900000D02*
X18400000Y16900000D01*
D21*
X4375000Y21835000D02*
X4375000Y20000000D01*
X4790000Y22250000D02*
X4375000Y21835000D01*
D19*
%TO.N,/GPIO0*%
X28201640Y8701640D02*
X28900000Y8701640D01*
X26500000Y7000000D02*
X28201640Y8701640D01*
X25875000Y7000000D02*
X26500000Y7000000D01*
X27425000Y6075000D02*
X26500000Y7000000D01*
X27425000Y5075000D02*
X27425000Y6075000D01*
X27425000Y925000D02*
X27425000Y5075000D01*
D22*
%TO.N,Net-(D1-Pad1)*%
X11500001Y10437499D02*
X14187500Y7750000D01*
X11500001Y13674999D02*
X11500001Y10437499D01*
D21*
X13975000Y6575000D02*
X13975000Y5405000D01*
X14187500Y6787500D02*
X13975000Y6575000D01*
X14187500Y7750000D02*
X14187500Y6787500D01*
D19*
%TO.N,/Signal*%
X25000000Y16500000D02*
X24100000Y16500000D01*
X24100000Y16500000D02*
X23000000Y17600000D01*
D21*
X18800000Y7275000D02*
X18800000Y7700000D01*
X21000000Y5075000D02*
X18800000Y7275000D01*
X21925000Y5075000D02*
X21000000Y5075000D01*
D19*
X25000000Y16675000D02*
X24912500Y16587500D01*
X25000000Y18612500D02*
X25000000Y16675000D01*
X24912500Y18700000D02*
X25000000Y18612500D01*
X21925000Y925000D02*
X21925000Y5075000D01*
D20*
%TO.N,/V-*%
X16700000Y20675000D02*
X16700000Y19100000D01*
X16625000Y20750000D02*
X16700000Y20675000D01*
X16625000Y22500000D02*
X16625000Y20750000D01*
%TD*%
D23*
%TO.N,GND*%
G36*
X9448000Y24092250D02*
G01*
X9629750Y23910500D01*
X11327000Y23910500D01*
X11327000Y23930500D01*
X11673000Y23930500D01*
X11673000Y23910500D01*
X13370250Y23910500D01*
X13552000Y24092250D01*
X13555007Y24398000D01*
X28873000Y24398000D01*
X28873000Y23500000D01*
X28876081Y23472194D01*
X28883887Y23448553D01*
X28896155Y23426889D01*
X28912414Y23408034D01*
X31012414Y21408034D01*
X31029443Y21394403D01*
X31051399Y21382667D01*
X31075224Y21375440D01*
X31100000Y21373000D01*
X38500000Y21373000D01*
X38524776Y21375440D01*
X38548601Y21382667D01*
X38570557Y21394403D01*
X38589803Y21410197D01*
X40589803Y23410197D01*
X40605597Y23429443D01*
X40617333Y23451399D01*
X40624560Y23475224D01*
X40627000Y23500000D01*
X40627000Y24398000D01*
X44398000Y24398000D01*
X44398000Y15845263D01*
X44330748Y15945913D01*
X44145913Y16130748D01*
X44127000Y16143385D01*
X44127000Y16427840D01*
X44178438Y16490517D01*
X44247588Y16619888D01*
X44290171Y16760264D01*
X44304549Y16906250D01*
X44304549Y17343750D01*
X44290171Y17489736D01*
X44247588Y17630112D01*
X44178438Y17759483D01*
X44085377Y17872877D01*
X44037097Y17912500D01*
X44085377Y17952123D01*
X44178438Y18065517D01*
X44247588Y18194888D01*
X44290171Y18335264D01*
X44304549Y18481250D01*
X44304549Y18918750D01*
X44290171Y19064736D01*
X44247588Y19205112D01*
X44178438Y19334483D01*
X44085377Y19447877D01*
X43971983Y19540938D01*
X43842612Y19610088D01*
X43702236Y19652671D01*
X43556250Y19667049D01*
X43043750Y19667049D01*
X42897764Y19652671D01*
X42757388Y19610088D01*
X42628017Y19540938D01*
X42548988Y19476080D01*
X42299499Y19476080D01*
X42290304Y19493282D01*
X42224448Y19573528D01*
X42144202Y19639384D01*
X42052650Y19688319D01*
X42018858Y19698570D01*
X42052650Y19708821D01*
X42144202Y19757756D01*
X42224448Y19823612D01*
X42290304Y19903858D01*
X42339239Y19995410D01*
X42369374Y20094750D01*
X42379549Y20198060D01*
X42379549Y21198060D01*
X42369374Y21301370D01*
X42339239Y21400710D01*
X42290304Y21492262D01*
X42224448Y21572508D01*
X42144202Y21638364D01*
X42052650Y21687299D01*
X41953310Y21717434D01*
X41850000Y21727609D01*
X40350000Y21727609D01*
X40246690Y21717434D01*
X40147350Y21687299D01*
X40055798Y21638364D01*
X39975552Y21572508D01*
X39909696Y21492262D01*
X39860761Y21400710D01*
X39830626Y21301370D01*
X39820451Y21198060D01*
X39820451Y20198060D01*
X39830626Y20094750D01*
X39860761Y19995410D01*
X39909696Y19903858D01*
X39975552Y19823612D01*
X40055798Y19757756D01*
X40147350Y19708821D01*
X40181142Y19698570D01*
X40147350Y19688319D01*
X40055798Y19639384D01*
X39975552Y19573528D01*
X39909696Y19493282D01*
X39860761Y19401730D01*
X39830626Y19302390D01*
X39820451Y19199080D01*
X39820451Y18199080D01*
X39830626Y18095770D01*
X39860761Y17996430D01*
X39909696Y17904878D01*
X39975552Y17824632D01*
X40055798Y17758776D01*
X40147350Y17709841D01*
X40185329Y17698320D01*
X40147350Y17686799D01*
X40055798Y17637864D01*
X39975552Y17572008D01*
X39909696Y17491762D01*
X39860761Y17400210D01*
X39830626Y17300870D01*
X39820451Y17197560D01*
X39820451Y16197560D01*
X39830626Y16094250D01*
X39860761Y15994910D01*
X39909696Y15903358D01*
X39975552Y15823112D01*
X40055798Y15757256D01*
X40147350Y15708321D01*
X40176956Y15699340D01*
X40147350Y15690359D01*
X40055798Y15641424D01*
X39975552Y15575568D01*
X39909696Y15495322D01*
X39900501Y15478120D01*
X38989283Y15478120D01*
X38951120Y15481879D01*
X38912956Y15478120D01*
X38912954Y15478120D01*
X38798801Y15466877D01*
X38660749Y15424999D01*
X38652336Y15422447D01*
X38517353Y15350297D01*
X38461464Y15304430D01*
X38399040Y15253200D01*
X38374712Y15223556D01*
X35767569Y12616413D01*
X35737920Y12592080D01*
X35703240Y12549821D01*
X35640823Y12473766D01*
X35638275Y12468999D01*
X35568673Y12338783D01*
X35524243Y12192318D01*
X35514146Y12089803D01*
X35509241Y12040000D01*
X35513000Y12001837D01*
X35513001Y6248175D01*
X35513000Y6248165D01*
X35513001Y4886930D01*
X35412213Y4819586D01*
X35318154Y4725527D01*
X35316481Y4742517D01*
X35274911Y4879557D01*
X35207404Y5005854D01*
X35116554Y5116554D01*
X35005854Y5207404D01*
X34879557Y5274911D01*
X34742517Y5316481D01*
X34600000Y5330518D01*
X34104750Y5327000D01*
X33923000Y5145250D01*
X33923000Y3923000D01*
X33943000Y3923000D01*
X33943000Y3577000D01*
X33923000Y3577000D01*
X33923000Y2354750D01*
X34104750Y2173000D01*
X34600000Y2169482D01*
X34742517Y2183519D01*
X34879557Y2225089D01*
X35005854Y2292596D01*
X35116554Y2383446D01*
X35207404Y2494146D01*
X35274911Y2620443D01*
X35316481Y2757483D01*
X35318154Y2774473D01*
X35412213Y2680414D01*
X35637746Y2529718D01*
X35888344Y2425917D01*
X36154377Y2373000D01*
X36425623Y2373000D01*
X36691656Y2425917D01*
X36942254Y2529718D01*
X37167787Y2680414D01*
X37359586Y2872213D01*
X37510282Y3097746D01*
X37560000Y3217776D01*
X37609718Y3097746D01*
X37760414Y2872213D01*
X37952213Y2680414D01*
X38177746Y2529718D01*
X38428344Y2425917D01*
X38694377Y2373000D01*
X38965623Y2373000D01*
X39231656Y2425917D01*
X39482254Y2529718D01*
X39707787Y2680414D01*
X39899586Y2872213D01*
X40050282Y3097746D01*
X40100000Y3217776D01*
X40149718Y3097746D01*
X40300414Y2872213D01*
X40492213Y2680414D01*
X40717746Y2529718D01*
X40968344Y2425917D01*
X41234377Y2373000D01*
X41505623Y2373000D01*
X41771656Y2425917D01*
X42022254Y2529718D01*
X42247787Y2680414D01*
X42439586Y2872213D01*
X42590282Y3097746D01*
X42694083Y3348344D01*
X42747000Y3614377D01*
X42747000Y3885623D01*
X42694083Y4151656D01*
X42590282Y4402254D01*
X42439586Y4627787D01*
X42247787Y4819586D01*
X42022254Y4970282D01*
X41771656Y5074083D01*
X41505623Y5127000D01*
X41234377Y5127000D01*
X40968344Y5074083D01*
X40717746Y4970282D01*
X40492213Y4819586D01*
X40300414Y4627787D01*
X40149718Y4402254D01*
X40100000Y4282224D01*
X40050282Y4402254D01*
X39899586Y4627787D01*
X39707787Y4819586D01*
X39607000Y4886930D01*
X39607000Y7623000D01*
X39909097Y7623000D01*
X39944146Y7594236D01*
X40070443Y7526729D01*
X40207483Y7485159D01*
X40350000Y7471122D01*
X40745250Y7474640D01*
X40927000Y7656390D01*
X40927000Y8528640D01*
X41273000Y8528640D01*
X41273000Y7656390D01*
X41454750Y7474640D01*
X41850000Y7471122D01*
X41992517Y7485159D01*
X42129557Y7526729D01*
X42255854Y7594236D01*
X42366554Y7685086D01*
X42457404Y7795786D01*
X42524911Y7922083D01*
X42566481Y8059123D01*
X42580518Y8201640D01*
X42577000Y8346890D01*
X42395250Y8528640D01*
X41273000Y8528640D01*
X40927000Y8528640D01*
X40907000Y8528640D01*
X40907000Y8874640D01*
X40927000Y8874640D01*
X40927000Y8894640D01*
X41273000Y8894640D01*
X41273000Y8874640D01*
X42395250Y8874640D01*
X42577000Y9056390D01*
X42580518Y9201640D01*
X42566481Y9344157D01*
X42524911Y9481197D01*
X42457404Y9607494D01*
X42366554Y9718194D01*
X42255854Y9809044D01*
X42224196Y9825965D01*
X42224448Y9826172D01*
X42290304Y9906418D01*
X42339239Y9997970D01*
X42369374Y10097310D01*
X42379549Y10200620D01*
X42379549Y11200620D01*
X42369374Y11303930D01*
X42339239Y11403270D01*
X42290304Y11494822D01*
X42224448Y11575068D01*
X42144202Y11640924D01*
X42052650Y11689859D01*
X42014671Y11701380D01*
X42052650Y11712901D01*
X42144202Y11761836D01*
X42224448Y11827692D01*
X42290304Y11907938D01*
X42339239Y11999490D01*
X42369374Y12098830D01*
X42379549Y12202140D01*
X42379549Y13202140D01*
X42369374Y13305450D01*
X42339239Y13404790D01*
X42290304Y13496342D01*
X42224448Y13576588D01*
X42144202Y13642444D01*
X42052650Y13691379D01*
X42018858Y13701630D01*
X42052650Y13711881D01*
X42144202Y13760816D01*
X42224448Y13826672D01*
X42290304Y13906918D01*
X42339239Y13998470D01*
X42369374Y14097810D01*
X42374409Y14148930D01*
X42454087Y14069252D01*
X42671430Y13924028D01*
X42912928Y13823996D01*
X43169302Y13773000D01*
X43430698Y13773000D01*
X43687072Y13823996D01*
X43928570Y13924028D01*
X44145913Y14069252D01*
X44330748Y14254087D01*
X44398000Y14354737D01*
X44398001Y602000D01*
X30595250Y602000D01*
X30445250Y752000D01*
X29748000Y752000D01*
X29748000Y732000D01*
X29402000Y732000D01*
X29402000Y752000D01*
X28704750Y752000D01*
X28554750Y602000D01*
X28279549Y602000D01*
X28279549Y1437772D01*
X28519584Y1437772D01*
X28523000Y1279750D01*
X28704750Y1098000D01*
X29402000Y1098000D01*
X29402000Y1995250D01*
X29748000Y1995250D01*
X29748000Y1098000D01*
X30445250Y1098000D01*
X30627000Y1279750D01*
X30630416Y1437772D01*
X30618767Y1580504D01*
X30579496Y1718220D01*
X30514112Y1845630D01*
X30425129Y1957835D01*
X30315965Y2050525D01*
X30190816Y2120136D01*
X30054490Y2163995D01*
X29929750Y2177000D01*
X29748000Y1995250D01*
X29402000Y1995250D01*
X29220250Y2177000D01*
X29095510Y2163995D01*
X28959184Y2120136D01*
X28834035Y2050525D01*
X28724871Y1957835D01*
X28635888Y1845630D01*
X28570504Y1718220D01*
X28531233Y1580504D01*
X28519584Y1437772D01*
X28279549Y1437772D01*
X28279549Y1450000D01*
X28269374Y1553310D01*
X28239239Y1652650D01*
X28202000Y1722320D01*
X28202000Y2900000D01*
X32169482Y2900000D01*
X32183519Y2757483D01*
X32225089Y2620443D01*
X32292596Y2494146D01*
X32383446Y2383446D01*
X32494146Y2292596D01*
X32620443Y2225089D01*
X32757483Y2183519D01*
X32900000Y2169482D01*
X33395250Y2173000D01*
X33577000Y2354750D01*
X33577000Y3577000D01*
X32354750Y3577000D01*
X32173000Y3395250D01*
X32169482Y2900000D01*
X28202000Y2900000D01*
X28202000Y4277680D01*
X28239239Y4347350D01*
X28269374Y4446690D01*
X28279549Y4550000D01*
X28279549Y4562228D01*
X28519584Y4562228D01*
X28531233Y4419496D01*
X28570504Y4281780D01*
X28635888Y4154370D01*
X28724871Y4042165D01*
X28834035Y3949475D01*
X28959184Y3879864D01*
X29095510Y3836005D01*
X29220250Y3823000D01*
X29402000Y4004750D01*
X29402000Y4902000D01*
X29748000Y4902000D01*
X29748000Y4004750D01*
X29929750Y3823000D01*
X30054490Y3836005D01*
X30190816Y3879864D01*
X30315965Y3949475D01*
X30425129Y4042165D01*
X30514112Y4154370D01*
X30579496Y4281780D01*
X30618767Y4419496D01*
X30630416Y4562228D01*
X30629600Y4600000D01*
X32169482Y4600000D01*
X32173000Y4104750D01*
X32354750Y3923000D01*
X33577000Y3923000D01*
X33577000Y5145250D01*
X33395250Y5327000D01*
X32900000Y5330518D01*
X32757483Y5316481D01*
X32620443Y5274911D01*
X32494146Y5207404D01*
X32383446Y5116554D01*
X32292596Y5005854D01*
X32225089Y4879557D01*
X32183519Y4742517D01*
X32169482Y4600000D01*
X30629600Y4600000D01*
X30627000Y4720250D01*
X30445250Y4902000D01*
X29748000Y4902000D01*
X29402000Y4902000D01*
X28704750Y4902000D01*
X28523000Y4720250D01*
X28519584Y4562228D01*
X28279549Y4562228D01*
X28279549Y5587772D01*
X28519584Y5587772D01*
X28523000Y5429750D01*
X28704750Y5248000D01*
X29402000Y5248000D01*
X29402000Y6145250D01*
X29748000Y6145250D01*
X29748000Y5248000D01*
X30445250Y5248000D01*
X30627000Y5429750D01*
X30630416Y5587772D01*
X30618767Y5730504D01*
X30579496Y5868220D01*
X30514112Y5995630D01*
X30425129Y6107835D01*
X30315965Y6200525D01*
X30190816Y6270136D01*
X30054490Y6313995D01*
X29929750Y6327000D01*
X29748000Y6145250D01*
X29402000Y6145250D01*
X29220250Y6327000D01*
X29095510Y6313995D01*
X28959184Y6270136D01*
X28834035Y6200525D01*
X28724871Y6107835D01*
X28635888Y5995630D01*
X28570504Y5868220D01*
X28531233Y5730504D01*
X28519584Y5587772D01*
X28279549Y5587772D01*
X28279549Y5600000D01*
X28269374Y5703310D01*
X28239239Y5802650D01*
X28202000Y5872320D01*
X28202000Y6036837D01*
X28205759Y6075000D01*
X28202000Y6113166D01*
X28190757Y6227319D01*
X28146327Y6373784D01*
X28106700Y6447921D01*
X28074178Y6508766D01*
X28001409Y6597435D01*
X28001408Y6597436D01*
X27977080Y6627080D01*
X27947436Y6651408D01*
X27598843Y7000000D01*
X28270935Y7672091D01*
X29650000Y7672091D01*
X29753310Y7682266D01*
X29852650Y7712401D01*
X29944202Y7761336D01*
X30024448Y7827192D01*
X30090304Y7907438D01*
X30139239Y7998990D01*
X30169374Y8098330D01*
X30179549Y8201640D01*
X30179549Y9201640D01*
X30169374Y9304950D01*
X30139239Y9404290D01*
X30090304Y9495842D01*
X30024448Y9576088D01*
X29944202Y9641944D01*
X29852650Y9690879D01*
X29818858Y9701130D01*
X29852650Y9711381D01*
X29944202Y9760316D01*
X30024448Y9826172D01*
X30090304Y9906418D01*
X30139239Y9997970D01*
X30169374Y10097310D01*
X30179549Y10200620D01*
X30179549Y11200620D01*
X30169374Y11303930D01*
X30139239Y11403270D01*
X30090304Y11494822D01*
X30024448Y11575068D01*
X29944202Y11640924D01*
X29852650Y11689859D01*
X29814671Y11701380D01*
X29852650Y11712901D01*
X29944202Y11761836D01*
X30024448Y11827692D01*
X30090304Y11907938D01*
X30139239Y11999490D01*
X30169374Y12098830D01*
X30179549Y12202140D01*
X30179549Y13202140D01*
X30169374Y13305450D01*
X30139239Y13404790D01*
X30090304Y13496342D01*
X30024448Y13576588D01*
X29944202Y13642444D01*
X29852650Y13691379D01*
X29818858Y13701630D01*
X29852650Y13711881D01*
X29944202Y13760816D01*
X30024448Y13826672D01*
X30090304Y13906918D01*
X30139239Y13998470D01*
X30169374Y14097810D01*
X30179549Y14201120D01*
X30179549Y15201120D01*
X30169374Y15304430D01*
X30139239Y15403770D01*
X30090304Y15495322D01*
X30024448Y15575568D01*
X29944202Y15641424D01*
X29852650Y15690359D01*
X29823044Y15699340D01*
X29852650Y15708321D01*
X29944202Y15757256D01*
X30024448Y15823112D01*
X30090304Y15903358D01*
X30139239Y15994910D01*
X30169374Y16094250D01*
X30179549Y16197560D01*
X30179549Y17197560D01*
X30169374Y17300870D01*
X30139239Y17400210D01*
X30090304Y17491762D01*
X30024448Y17572008D01*
X29944202Y17637864D01*
X29852650Y17686799D01*
X29814671Y17698320D01*
X29852650Y17709841D01*
X29944202Y17758776D01*
X30024448Y17824632D01*
X30090304Y17904878D01*
X30139239Y17996430D01*
X30169374Y18095770D01*
X30179549Y18199080D01*
X30179549Y19199080D01*
X30169374Y19302390D01*
X30139239Y19401730D01*
X30090304Y19493282D01*
X30024448Y19573528D01*
X29944202Y19639384D01*
X29852650Y19688319D01*
X29818858Y19698570D01*
X29852650Y19708821D01*
X29944202Y19757756D01*
X30024448Y19823612D01*
X30090304Y19903858D01*
X30139239Y19995410D01*
X30169374Y20094750D01*
X30179549Y20198060D01*
X30179549Y21198060D01*
X30169374Y21301370D01*
X30139239Y21400710D01*
X30090304Y21492262D01*
X30024448Y21572508D01*
X29944202Y21638364D01*
X29852650Y21687299D01*
X29753310Y21717434D01*
X29650000Y21727609D01*
X28150000Y21727609D01*
X28046690Y21717434D01*
X27947350Y21687299D01*
X27855798Y21638364D01*
X27775552Y21572508D01*
X27762287Y21556344D01*
X27809911Y21645443D01*
X27851481Y21782483D01*
X27865518Y21925000D01*
X27862000Y22095250D01*
X27680250Y22277000D01*
X26833000Y22277000D01*
X26833000Y22257000D01*
X26487000Y22257000D01*
X26487000Y22277000D01*
X24973000Y22277000D01*
X24973000Y22257000D01*
X24627000Y22257000D01*
X24627000Y22277000D01*
X23779750Y22277000D01*
X23598000Y22095250D01*
X23594482Y21925000D01*
X23608519Y21782483D01*
X23650089Y21645443D01*
X23713398Y21527000D01*
X21782254Y21527000D01*
X21779886Y21529886D01*
X21663650Y21625278D01*
X21531037Y21696161D01*
X21387144Y21739810D01*
X21237500Y21754549D01*
X20762500Y21754549D01*
X20612856Y21739810D01*
X20468963Y21696161D01*
X20336350Y21625278D01*
X20287777Y21585415D01*
X20280762Y21595913D01*
X20095927Y21780748D01*
X19878584Y21925972D01*
X19637086Y22026004D01*
X19380712Y22077000D01*
X19119316Y22077000D01*
X18862942Y22026004D01*
X18621444Y21925972D01*
X18404101Y21780748D01*
X18219266Y21595913D01*
X18074042Y21378570D01*
X17974010Y21137072D01*
X17923014Y20880698D01*
X17923014Y20619302D01*
X17974010Y20362928D01*
X18074042Y20121430D01*
X18219266Y19904087D01*
X18404101Y19719252D01*
X18621444Y19574028D01*
X18862942Y19473996D01*
X19119316Y19423000D01*
X19380712Y19423000D01*
X19637086Y19473996D01*
X19878584Y19574028D01*
X20095927Y19719252D01*
X20234765Y19858090D01*
X20275086Y19825000D01*
X20220114Y19779886D01*
X20124722Y19663650D01*
X20053839Y19531037D01*
X20010190Y19387144D01*
X19995451Y19237500D01*
X19995451Y18662500D01*
X20010190Y18512856D01*
X20053839Y18368963D01*
X20124722Y18236350D01*
X20173000Y18177522D01*
X20173000Y17760414D01*
X20159696Y17744202D01*
X20110761Y17652650D01*
X20080626Y17553310D01*
X20070451Y17450000D01*
X20070451Y15877000D01*
X19500000Y15877000D01*
X19475224Y15874560D01*
X19451399Y15867333D01*
X19429443Y15855597D01*
X19410197Y15839803D01*
X19394403Y15820557D01*
X19382667Y15798601D01*
X19375440Y15774776D01*
X19373000Y15750000D01*
X19373000Y14899499D01*
X19355798Y14890304D01*
X19275552Y14824448D01*
X19209696Y14744202D01*
X19160761Y14652650D01*
X19130626Y14553310D01*
X19120451Y14450000D01*
X19120451Y12550000D01*
X19130626Y12446690D01*
X19160761Y12347350D01*
X19209696Y12255798D01*
X19223001Y12239586D01*
X19223001Y11827000D01*
X17442554Y11827000D01*
X15627000Y13642553D01*
X15627000Y16209417D01*
X15644374Y16266690D01*
X15654549Y16370000D01*
X15654549Y16973000D01*
X15845451Y16973000D01*
X15845451Y16370000D01*
X15855626Y16266690D01*
X15885761Y16167350D01*
X15923000Y16097680D01*
X15923000Y15824750D01*
X16104750Y15643000D01*
X16229424Y15655990D01*
X16365753Y15699836D01*
X16490908Y15769436D01*
X16574561Y15840451D01*
X17025000Y15840451D01*
X17128310Y15850626D01*
X17227650Y15880761D01*
X17319202Y15929696D01*
X17399448Y15995552D01*
X17412222Y16011117D01*
X17554087Y15869252D01*
X17771430Y15724028D01*
X18012928Y15623996D01*
X18269302Y15573000D01*
X18530698Y15573000D01*
X18787072Y15623996D01*
X19028570Y15724028D01*
X19245913Y15869252D01*
X19430748Y16054087D01*
X19575972Y16271430D01*
X19676004Y16512928D01*
X19727000Y16769302D01*
X19727000Y17030698D01*
X19676004Y17287072D01*
X19575972Y17528570D01*
X19430748Y17745913D01*
X19245913Y17930748D01*
X19028570Y18075972D01*
X18787072Y18176004D01*
X18530698Y18227000D01*
X18269302Y18227000D01*
X18012928Y18176004D01*
X17771430Y18075972D01*
X17554087Y17930748D01*
X17427000Y17803661D01*
X17427000Y18229124D01*
X17465304Y18275798D01*
X17514239Y18367350D01*
X17544374Y18466690D01*
X17554549Y18570000D01*
X17554549Y19630000D01*
X17544374Y19733310D01*
X17514239Y19832650D01*
X17465304Y19924202D01*
X17438596Y19956745D01*
X17454886Y19970114D01*
X17550278Y20086350D01*
X17621161Y20218963D01*
X17664810Y20362856D01*
X17679549Y20512500D01*
X17679549Y20987500D01*
X17664810Y21137144D01*
X17621161Y21281037D01*
X17550278Y21413650D01*
X17454886Y21529886D01*
X17352000Y21614322D01*
X17352000Y21635678D01*
X17454886Y21720114D01*
X17550278Y21836350D01*
X17621161Y21968963D01*
X17664810Y22112856D01*
X17679549Y22262500D01*
X17679549Y22737500D01*
X17664810Y22887144D01*
X17638160Y22975000D01*
X23594482Y22975000D01*
X23598000Y22804750D01*
X23779750Y22623000D01*
X24627000Y22623000D01*
X24627000Y23520250D01*
X24973000Y23520250D01*
X24973000Y22623000D01*
X26487000Y22623000D01*
X26487000Y23520250D01*
X26833000Y23520250D01*
X26833000Y22623000D01*
X27680250Y22623000D01*
X27862000Y22804750D01*
X27865518Y22975000D01*
X27851481Y23117517D01*
X27809911Y23254557D01*
X27742404Y23380854D01*
X27651554Y23491554D01*
X27540854Y23582404D01*
X27414557Y23649911D01*
X27277517Y23691481D01*
X27135000Y23705518D01*
X27014750Y23702000D01*
X26833000Y23520250D01*
X26487000Y23520250D01*
X26305250Y23702000D01*
X26185000Y23705518D01*
X26042483Y23691481D01*
X25905443Y23649911D01*
X25779146Y23582404D01*
X25730000Y23542071D01*
X25680854Y23582404D01*
X25554557Y23649911D01*
X25417517Y23691481D01*
X25275000Y23705518D01*
X25154750Y23702000D01*
X24973000Y23520250D01*
X24627000Y23520250D01*
X24445250Y23702000D01*
X24325000Y23705518D01*
X24182483Y23691481D01*
X24045443Y23649911D01*
X23919146Y23582404D01*
X23808446Y23491554D01*
X23717596Y23380854D01*
X23650089Y23254557D01*
X23608519Y23117517D01*
X23594482Y22975000D01*
X17638160Y22975000D01*
X17621161Y23031037D01*
X17550278Y23163650D01*
X17454886Y23279886D01*
X17338650Y23375278D01*
X17206037Y23446161D01*
X17062144Y23489810D01*
X16912500Y23504549D01*
X16337500Y23504549D01*
X16187856Y23489810D01*
X16043963Y23446161D01*
X15981297Y23412665D01*
X15916554Y23491554D01*
X15805854Y23582404D01*
X15679557Y23649911D01*
X15542517Y23691481D01*
X15400000Y23705518D01*
X15229750Y23702000D01*
X15048000Y23520250D01*
X15048000Y22673000D01*
X15068000Y22673000D01*
X15068000Y22327000D01*
X15048000Y22327000D01*
X15048000Y22307000D01*
X14702000Y22307000D01*
X14702000Y22327000D01*
X13527000Y22327000D01*
X13527000Y22834745D01*
X13541481Y22882483D01*
X13550593Y22975000D01*
X13619482Y22975000D01*
X13623000Y22854750D01*
X13804750Y22673000D01*
X14702000Y22673000D01*
X14702000Y23520250D01*
X14520250Y23702000D01*
X14350000Y23705518D01*
X14207483Y23691481D01*
X14070443Y23649911D01*
X13944146Y23582404D01*
X13833446Y23491554D01*
X13742596Y23380854D01*
X13675089Y23254557D01*
X13633519Y23117517D01*
X13619482Y22975000D01*
X13550593Y22975000D01*
X13555518Y23025000D01*
X13552000Y23382750D01*
X13526153Y23408597D01*
X13524560Y23424776D01*
X13517333Y23448601D01*
X13505597Y23470557D01*
X13489803Y23489803D01*
X13470557Y23505597D01*
X13448601Y23517333D01*
X13424776Y23524560D01*
X13408597Y23526153D01*
X13370250Y23564500D01*
X11673000Y23564500D01*
X11673000Y23544500D01*
X11327000Y23544500D01*
X11327000Y23564500D01*
X9629750Y23564500D01*
X9591403Y23526153D01*
X9575224Y23524560D01*
X9551399Y23517333D01*
X9529443Y23505597D01*
X9510197Y23489803D01*
X9494403Y23470557D01*
X9482667Y23448601D01*
X9475440Y23424776D01*
X9473847Y23408597D01*
X9448000Y23382750D01*
X9444482Y23025000D01*
X9458519Y22882483D01*
X9473000Y22834745D01*
X9473000Y21689500D01*
X9121476Y21689500D01*
X8705274Y22105701D01*
X8707000Y22114377D01*
X8707000Y22385623D01*
X8654083Y22651656D01*
X8550282Y22902254D01*
X8399586Y23127787D01*
X8207787Y23319586D01*
X7982254Y23470282D01*
X7731656Y23574083D01*
X7465623Y23627000D01*
X7194377Y23627000D01*
X6928344Y23574083D01*
X6677746Y23470282D01*
X6452213Y23319586D01*
X6260414Y23127787D01*
X6109718Y22902254D01*
X6060000Y22782224D01*
X6010282Y22902254D01*
X5859586Y23127787D01*
X5667787Y23319586D01*
X5442254Y23470282D01*
X5191656Y23574083D01*
X4925623Y23627000D01*
X4654377Y23627000D01*
X4388344Y23574083D01*
X4137746Y23470282D01*
X3912213Y23319586D01*
X3818154Y23225527D01*
X3816481Y23242517D01*
X3774911Y23379557D01*
X3707404Y23505854D01*
X3616554Y23616554D01*
X3505854Y23707404D01*
X3379557Y23774911D01*
X3242517Y23816481D01*
X3100000Y23830518D01*
X2604750Y23827000D01*
X2423000Y23645250D01*
X2423000Y22423000D01*
X2443000Y22423000D01*
X2443000Y22077000D01*
X2423000Y22077000D01*
X2423000Y22057000D01*
X2077000Y22057000D01*
X2077000Y22077000D01*
X854750Y22077000D01*
X673000Y21895250D01*
X669482Y21400000D01*
X683519Y21257483D01*
X725089Y21120443D01*
X792596Y20994146D01*
X883446Y20883446D01*
X994146Y20792596D01*
X1120443Y20725089D01*
X1257483Y20683519D01*
X1399303Y20669551D01*
X1383519Y20617517D01*
X1369482Y20475000D01*
X1373000Y20354750D01*
X1554750Y20173000D01*
X2452000Y20173000D01*
X2452000Y20193000D01*
X2798000Y20193000D01*
X2798000Y20173000D01*
X2818000Y20173000D01*
X2818000Y19827000D01*
X2798000Y19827000D01*
X2798000Y18979750D01*
X2979750Y18798000D01*
X3150000Y18794482D01*
X3292517Y18808519D01*
X3429557Y18850089D01*
X3555854Y18917596D01*
X3666554Y19008446D01*
X3731297Y19087335D01*
X3793963Y19053839D01*
X3937856Y19010190D01*
X4087500Y18995451D01*
X4662500Y18995451D01*
X4812144Y19010190D01*
X4956037Y19053839D01*
X5088650Y19124722D01*
X5204886Y19220114D01*
X5300278Y19336350D01*
X5371161Y19468963D01*
X5414810Y19612856D01*
X5429549Y19762500D01*
X5429549Y20237500D01*
X5414810Y20387144D01*
X5371161Y20531037D01*
X5300278Y20663650D01*
X5204886Y20779886D01*
X5202000Y20782254D01*
X5202000Y20930202D01*
X5442254Y21029718D01*
X5667787Y21180414D01*
X5859586Y21372213D01*
X6010282Y21597746D01*
X6060000Y21717776D01*
X6109718Y21597746D01*
X6260414Y21372213D01*
X6452213Y21180414D01*
X6677746Y21029718D01*
X6928344Y20925917D01*
X7194377Y20873000D01*
X7316025Y20873000D01*
X8049816Y20139208D01*
X8078841Y20103841D01*
X8114208Y20074816D01*
X8114212Y20074812D01*
X8219995Y19987998D01*
X8341598Y19923000D01*
X8381036Y19901920D01*
X8555776Y19848913D01*
X8691962Y19835500D01*
X8691973Y19835500D01*
X8737500Y19831016D01*
X8783027Y19835500D01*
X9802603Y19835500D01*
X9873776Y19748776D01*
X9991906Y19651829D01*
X10126680Y19579791D01*
X10272918Y19535430D01*
X10425000Y19520451D01*
X12575000Y19520451D01*
X12727082Y19535430D01*
X12873320Y19579791D01*
X13008094Y19651829D01*
X13126224Y19748776D01*
X13223171Y19866906D01*
X13253154Y19923000D01*
X14034054Y19923000D01*
X13985761Y19832650D01*
X13955626Y19733310D01*
X13945451Y19630000D01*
X13945451Y18570000D01*
X13955626Y18466690D01*
X13985761Y18367350D01*
X14034696Y18275798D01*
X14073000Y18229124D01*
X14073000Y17770876D01*
X14034696Y17724202D01*
X13985761Y17632650D01*
X13955626Y17533310D01*
X13945451Y17430000D01*
X13945451Y16370000D01*
X13955626Y16266690D01*
X13973001Y16209414D01*
X13973000Y13340614D01*
X13969000Y13300000D01*
X13973000Y13259386D01*
X13973000Y13259377D01*
X13984966Y13137881D01*
X14032255Y12981991D01*
X14068002Y12915114D01*
X14109048Y12838321D01*
X14135773Y12805757D01*
X14212394Y12712394D01*
X14243952Y12686495D01*
X16486499Y10443947D01*
X16512394Y10412394D01*
X16543947Y10386499D01*
X16543948Y10386498D01*
X16638319Y10309048D01*
X16737985Y10255776D01*
X16781990Y10232255D01*
X16937880Y10184966D01*
X17059376Y10173000D01*
X17059385Y10173000D01*
X17099999Y10169000D01*
X17140613Y10173000D01*
X19352523Y10173000D01*
X19411350Y10124722D01*
X19543963Y10053839D01*
X19687856Y10010190D01*
X19837500Y9995451D01*
X20412500Y9995451D01*
X20562144Y10010190D01*
X20706037Y10053839D01*
X20768703Y10087335D01*
X20833446Y10008446D01*
X20944146Y9917596D01*
X21070443Y9850089D01*
X21207483Y9808519D01*
X21350000Y9794482D01*
X21520250Y9798000D01*
X21702000Y9979750D01*
X21702000Y10473000D01*
X22048000Y10473000D01*
X22048000Y9979750D01*
X22229750Y9798000D01*
X22400000Y9794482D01*
X22542517Y9808519D01*
X22679557Y9850089D01*
X22805854Y9917596D01*
X22916554Y10008446D01*
X23000000Y10110124D01*
X23083446Y10008446D01*
X23194146Y9917596D01*
X23320443Y9850089D01*
X23364407Y9836753D01*
X23295114Y9779886D01*
X23251712Y9727000D01*
X23135705Y9727000D01*
X23099999Y9730517D01*
X23064294Y9727000D01*
X23064292Y9727000D01*
X22957483Y9716480D01*
X22820443Y9674910D01*
X22694147Y9607403D01*
X22583446Y9516554D01*
X22560679Y9488812D01*
X22170966Y9099099D01*
X22030698Y9127000D01*
X21769302Y9127000D01*
X21512928Y9076004D01*
X21271430Y8975972D01*
X21054087Y8830748D01*
X20869252Y8645913D01*
X20724028Y8428570D01*
X20623996Y8187072D01*
X20573000Y7930698D01*
X20573000Y7669302D01*
X20623996Y7412928D01*
X20724028Y7171430D01*
X20869252Y6954087D01*
X21054087Y6769252D01*
X21271430Y6624028D01*
X21512928Y6523996D01*
X21769302Y6473000D01*
X22030698Y6473000D01*
X22287072Y6523996D01*
X22528570Y6624028D01*
X22745913Y6769252D01*
X22930748Y6954087D01*
X23070451Y7163167D01*
X23070451Y6762500D01*
X23085190Y6612856D01*
X23128839Y6468963D01*
X23199722Y6336350D01*
X23295114Y6220114D01*
X23326637Y6194244D01*
X23224871Y6107835D01*
X23135888Y5995630D01*
X23070504Y5868220D01*
X23031233Y5730504D01*
X23019584Y5587772D01*
X23023000Y5429750D01*
X23204750Y5248000D01*
X23902000Y5248000D01*
X23902000Y5268000D01*
X24248000Y5268000D01*
X24248000Y5248000D01*
X24945250Y5248000D01*
X25127000Y5429750D01*
X25130416Y5587772D01*
X25118767Y5730504D01*
X25079496Y5868220D01*
X25014112Y5995630D01*
X24925129Y6107835D01*
X24872512Y6152512D01*
X24954886Y6220114D01*
X25000000Y6275086D01*
X25045114Y6220114D01*
X25161350Y6124722D01*
X25293963Y6053839D01*
X25437856Y6010190D01*
X25587500Y5995451D01*
X26162500Y5995451D01*
X26312144Y6010190D01*
X26372621Y6028535D01*
X26607909Y5793248D01*
X26580626Y5703310D01*
X26570451Y5600000D01*
X26570451Y4550000D01*
X26580626Y4446690D01*
X26610761Y4347350D01*
X26648001Y4277678D01*
X26648000Y1722320D01*
X26610761Y1652650D01*
X26580626Y1553310D01*
X26570451Y1450000D01*
X26570451Y602000D01*
X25095250Y602000D01*
X24945250Y752000D01*
X24248000Y752000D01*
X24248000Y732000D01*
X23902000Y732000D01*
X23902000Y752000D01*
X23204750Y752000D01*
X23054750Y602000D01*
X22779549Y602000D01*
X22779549Y1437772D01*
X23019584Y1437772D01*
X23023000Y1279750D01*
X23204750Y1098000D01*
X23902000Y1098000D01*
X23902000Y1995250D01*
X24248000Y1995250D01*
X24248000Y1098000D01*
X24945250Y1098000D01*
X25127000Y1279750D01*
X25130416Y1437772D01*
X25118767Y1580504D01*
X25079496Y1718220D01*
X25014112Y1845630D01*
X24925129Y1957835D01*
X24815965Y2050525D01*
X24690816Y2120136D01*
X24554490Y2163995D01*
X24429750Y2177000D01*
X24248000Y1995250D01*
X23902000Y1995250D01*
X23720250Y2177000D01*
X23595510Y2163995D01*
X23459184Y2120136D01*
X23334035Y2050525D01*
X23224871Y1957835D01*
X23135888Y1845630D01*
X23070504Y1718220D01*
X23031233Y1580504D01*
X23019584Y1437772D01*
X22779549Y1437772D01*
X22779549Y1450000D01*
X22769374Y1553310D01*
X22739239Y1652650D01*
X22702000Y1722320D01*
X22702000Y4277680D01*
X22739239Y4347350D01*
X22769374Y4446690D01*
X22779549Y4550000D01*
X22779549Y4562228D01*
X23019584Y4562228D01*
X23031233Y4419496D01*
X23070504Y4281780D01*
X23135888Y4154370D01*
X23224871Y4042165D01*
X23334035Y3949475D01*
X23459184Y3879864D01*
X23595510Y3836005D01*
X23720250Y3823000D01*
X23902000Y4004750D01*
X23902000Y4902000D01*
X24248000Y4902000D01*
X24248000Y4004750D01*
X24429750Y3823000D01*
X24554490Y3836005D01*
X24690816Y3879864D01*
X24815965Y3949475D01*
X24925129Y4042165D01*
X25014112Y4154370D01*
X25079496Y4281780D01*
X25118767Y4419496D01*
X25130416Y4562228D01*
X25127000Y4720250D01*
X24945250Y4902000D01*
X24248000Y4902000D01*
X23902000Y4902000D01*
X23204750Y4902000D01*
X23023000Y4720250D01*
X23019584Y4562228D01*
X22779549Y4562228D01*
X22779549Y5600000D01*
X22769374Y5703310D01*
X22739239Y5802650D01*
X22690304Y5894202D01*
X22624448Y5974448D01*
X22544202Y6040304D01*
X22452650Y6089239D01*
X22353310Y6119374D01*
X22250000Y6129549D01*
X21600000Y6129549D01*
X21496690Y6119374D01*
X21397350Y6089239D01*
X21305798Y6040304D01*
X21250023Y5994531D01*
X20033716Y7210837D01*
X20076004Y7312928D01*
X20127000Y7569302D01*
X20127000Y7830698D01*
X20076004Y8087072D01*
X19975972Y8328570D01*
X19830748Y8545913D01*
X19645913Y8730748D01*
X19428570Y8875972D01*
X19187072Y8976004D01*
X18930698Y9027000D01*
X18669302Y9027000D01*
X18412928Y8976004D01*
X18171430Y8875972D01*
X17954087Y8730748D01*
X17769252Y8545913D01*
X17624028Y8328570D01*
X17523996Y8087072D01*
X17473000Y7830698D01*
X17473000Y7569302D01*
X17523996Y7312928D01*
X17624028Y7071430D01*
X17769252Y6854087D01*
X17954087Y6669252D01*
X18171430Y6524028D01*
X18412928Y6423996D01*
X18498465Y6406982D01*
X18975290Y5930156D01*
X18104750Y5927000D01*
X17923000Y5745250D01*
X17923000Y4660500D01*
X19620250Y4660500D01*
X19802000Y4842250D01*
X19804544Y5100903D01*
X20386499Y4518947D01*
X20412394Y4487394D01*
X20443947Y4461499D01*
X20443948Y4461498D01*
X20538320Y4384048D01*
X20595148Y4353673D01*
X20681990Y4307255D01*
X20837880Y4259966D01*
X20959376Y4248000D01*
X20959386Y4248000D01*
X21000000Y4244000D01*
X21040614Y4248000D01*
X21148001Y4248000D01*
X21148000Y1722320D01*
X21110761Y1652650D01*
X21080626Y1553310D01*
X21070451Y1450000D01*
X21070451Y602000D01*
X19460938Y602000D01*
X19473171Y616906D01*
X19545209Y751680D01*
X19589570Y897918D01*
X19604549Y1050000D01*
X19604549Y1678166D01*
X19605597Y1679443D01*
X19617333Y1701399D01*
X19624560Y1725224D01*
X19627000Y1750000D01*
X19627000Y3301637D01*
X19682404Y3369146D01*
X19749911Y3495443D01*
X19791481Y3632483D01*
X19805518Y3775000D01*
X19802000Y4132750D01*
X19620250Y4314500D01*
X17923000Y4314500D01*
X17923000Y4294500D01*
X17577000Y4294500D01*
X17577000Y4314500D01*
X17557000Y4314500D01*
X17557000Y4660500D01*
X17577000Y4660500D01*
X17577000Y5745250D01*
X17395250Y5927000D01*
X16425000Y5930518D01*
X16389282Y5927000D01*
X15377000Y5927000D01*
X15377000Y6596898D01*
X15457750Y6598000D01*
X15639500Y6779750D01*
X15639500Y7577000D01*
X15985500Y7577000D01*
X15985500Y6779750D01*
X16167250Y6598000D01*
X16425000Y6594482D01*
X16567517Y6608519D01*
X16704557Y6650089D01*
X16830854Y6717596D01*
X16941554Y6808446D01*
X17032404Y6919146D01*
X17099911Y7045443D01*
X17141481Y7182483D01*
X17155518Y7325000D01*
X17152000Y7395250D01*
X16970250Y7577000D01*
X15985500Y7577000D01*
X15639500Y7577000D01*
X15619500Y7577000D01*
X15619500Y7923000D01*
X15639500Y7923000D01*
X15639500Y8720250D01*
X15985500Y8720250D01*
X15985500Y7923000D01*
X16970250Y7923000D01*
X17152000Y8104750D01*
X17155518Y8175000D01*
X17141481Y8317517D01*
X17099911Y8454557D01*
X17032404Y8580854D01*
X16941554Y8691554D01*
X16830854Y8782404D01*
X16704557Y8849911D01*
X16567517Y8891481D01*
X16425000Y8905518D01*
X16167250Y8902000D01*
X15985500Y8720250D01*
X15639500Y8720250D01*
X15457750Y8902000D01*
X15200000Y8905518D01*
X15057483Y8891481D01*
X14920443Y8849911D01*
X14794146Y8782404D01*
X14687303Y8694719D01*
X14587500Y8704549D01*
X14543927Y8704549D01*
X12427001Y10821474D01*
X12427001Y11395450D01*
X12500001Y11395450D01*
X12603311Y11405625D01*
X12702651Y11435760D01*
X12794203Y11484695D01*
X12874449Y11550551D01*
X12940305Y11630797D01*
X12989240Y11722349D01*
X13019375Y11821689D01*
X13029550Y11924999D01*
X13029550Y15424999D01*
X13019375Y15528309D01*
X12989240Y15627649D01*
X12940305Y15719201D01*
X12874449Y15799447D01*
X12794203Y15865303D01*
X12702651Y15914238D01*
X12603311Y15944373D01*
X12500001Y15954548D01*
X10500001Y15954548D01*
X10396691Y15944373D01*
X10297351Y15914238D01*
X10205799Y15865303D01*
X10125553Y15799447D01*
X10059697Y15719201D01*
X10010762Y15627649D01*
X9980627Y15528309D01*
X9970452Y15424999D01*
X9970452Y11924999D01*
X9980627Y11821689D01*
X10010762Y11722349D01*
X10059697Y11630797D01*
X10125553Y11550551D01*
X10205799Y11484695D01*
X10297351Y11435760D01*
X10396691Y11405625D01*
X10500001Y11395450D01*
X10573002Y11395450D01*
X10573002Y10483036D01*
X10568517Y10437499D01*
X10573002Y10391962D01*
X10573002Y10391961D01*
X10586415Y10255775D01*
X10593550Y10232255D01*
X10639421Y10081036D01*
X10725500Y9919994D01*
X10812313Y9814212D01*
X10812318Y9814207D01*
X10841343Y9778840D01*
X10876709Y9749816D01*
X13045451Y7581073D01*
X13045451Y7537500D01*
X13059709Y7392733D01*
X13101936Y7253530D01*
X13170509Y7125240D01*
X13262792Y7012792D01*
X13268692Y7007950D01*
X13254209Y6980854D01*
X13207255Y6893009D01*
X13159966Y6737119D01*
X13148000Y6615623D01*
X13148000Y6615614D01*
X13144000Y6575000D01*
X13148000Y6534386D01*
X13148000Y6377000D01*
X12578279Y6377000D01*
X12676004Y6612928D01*
X12727000Y6869302D01*
X12727000Y7130698D01*
X12676004Y7387072D01*
X12575972Y7628570D01*
X12430748Y7845913D01*
X12245913Y8030748D01*
X12028570Y8175972D01*
X11787072Y8276004D01*
X11530698Y8327000D01*
X11269302Y8327000D01*
X11012928Y8276004D01*
X10771430Y8175972D01*
X10554087Y8030748D01*
X10369252Y7845913D01*
X10224028Y7628570D01*
X10123996Y7387072D01*
X10073000Y7130698D01*
X10073000Y6869302D01*
X10123996Y6612928D01*
X10221721Y6377000D01*
X7750000Y6377000D01*
X7725224Y6374560D01*
X7701399Y6367333D01*
X7679443Y6355597D01*
X7660197Y6339803D01*
X7644403Y6320557D01*
X7632667Y6298601D01*
X7625440Y6274776D01*
X7623328Y6253333D01*
X7595913Y6280748D01*
X7378570Y6425972D01*
X7137072Y6526004D01*
X6880698Y6577000D01*
X6619302Y6577000D01*
X6362928Y6526004D01*
X6215756Y6465043D01*
X6214570Y6477082D01*
X6170209Y6623320D01*
X6098171Y6758094D01*
X6001224Y6876224D01*
X5914500Y6947397D01*
X5914500Y8366973D01*
X5918984Y8412500D01*
X5914500Y8458027D01*
X5914500Y8458038D01*
X5901087Y8594224D01*
X5848080Y8768964D01*
X5840896Y8782404D01*
X5762001Y8930006D01*
X5675188Y9035788D01*
X5675184Y9035792D01*
X5646159Y9071159D01*
X5610793Y9100183D01*
X3427001Y11283974D01*
X3427001Y11395450D01*
X3500001Y11395450D01*
X3603311Y11405625D01*
X3702651Y11435760D01*
X3794203Y11484695D01*
X3874449Y11550551D01*
X3940305Y11630797D01*
X3989240Y11722349D01*
X4019375Y11821689D01*
X4029550Y11924999D01*
X4029550Y15424999D01*
X4019375Y15528309D01*
X3989240Y15627649D01*
X3940305Y15719201D01*
X3874449Y15799447D01*
X3794203Y15865303D01*
X3702651Y15914238D01*
X3603311Y15944373D01*
X3500001Y15954548D01*
X1500001Y15954548D01*
X1396691Y15944373D01*
X1297351Y15914238D01*
X1205799Y15865303D01*
X1125553Y15799447D01*
X1059697Y15719201D01*
X1010762Y15627649D01*
X980627Y15528309D01*
X970452Y15424999D01*
X970452Y11924999D01*
X980627Y11821689D01*
X1010762Y11722349D01*
X1059697Y11630797D01*
X1125553Y11550551D01*
X1205799Y11484695D01*
X1297351Y11435760D01*
X1396691Y11405625D01*
X1500001Y11395450D01*
X1573002Y11395450D01*
X1573002Y10945536D01*
X1568517Y10899999D01*
X1586415Y10718276D01*
X1639421Y10543536D01*
X1725500Y10382494D01*
X1812313Y10276712D01*
X1812318Y10276707D01*
X1841343Y10241340D01*
X1876709Y10212316D01*
X4060500Y8028524D01*
X4060500Y7302000D01*
X2800000Y7302000D01*
X2781776Y7299926D01*
X2725000Y7305518D01*
X2367250Y7302000D01*
X2185500Y7120250D01*
X2185500Y5423000D01*
X2205500Y5423000D01*
X2205500Y5077000D01*
X2185500Y5077000D01*
X2185500Y2173000D01*
X2205500Y2173000D01*
X2205500Y1827000D01*
X2185500Y1827000D01*
X2185500Y1807000D01*
X1839500Y1807000D01*
X1839500Y1827000D01*
X1819500Y1827000D01*
X1819500Y2173000D01*
X1839500Y2173000D01*
X1839500Y5077000D01*
X1819500Y5077000D01*
X1819500Y5423000D01*
X1839500Y5423000D01*
X1839500Y7120250D01*
X1657750Y7302000D01*
X1300000Y7305518D01*
X1157483Y7291481D01*
X1020443Y7249911D01*
X894146Y7182404D01*
X783446Y7091554D01*
X692596Y6980854D01*
X625089Y6854557D01*
X602000Y6778442D01*
X602000Y19525000D01*
X1369482Y19525000D01*
X1383519Y19382483D01*
X1425089Y19245443D01*
X1492596Y19119146D01*
X1583446Y19008446D01*
X1694146Y18917596D01*
X1820443Y18850089D01*
X1957483Y18808519D01*
X2100000Y18794482D01*
X2270250Y18798000D01*
X2452000Y18979750D01*
X2452000Y19827000D01*
X1554750Y19827000D01*
X1373000Y19645250D01*
X1369482Y19525000D01*
X602000Y19525000D01*
X602000Y23100000D01*
X669482Y23100000D01*
X673000Y22604750D01*
X854750Y22423000D01*
X2077000Y22423000D01*
X2077000Y23645250D01*
X1895250Y23827000D01*
X1400000Y23830518D01*
X1257483Y23816481D01*
X1120443Y23774911D01*
X994146Y23707404D01*
X883446Y23616554D01*
X792596Y23505854D01*
X725089Y23379557D01*
X683519Y23242517D01*
X669482Y23100000D01*
X602000Y23100000D01*
X602000Y24398000D01*
X9444993Y24398000D01*
X9448000Y24092250D01*
G37*
X9448000Y24092250D02*
X9629750Y23910500D01*
X11327000Y23910500D01*
X11327000Y23930500D01*
X11673000Y23930500D01*
X11673000Y23910500D01*
X13370250Y23910500D01*
X13552000Y24092250D01*
X13555007Y24398000D01*
X28873000Y24398000D01*
X28873000Y23500000D01*
X28876081Y23472194D01*
X28883887Y23448553D01*
X28896155Y23426889D01*
X28912414Y23408034D01*
X31012414Y21408034D01*
X31029443Y21394403D01*
X31051399Y21382667D01*
X31075224Y21375440D01*
X31100000Y21373000D01*
X38500000Y21373000D01*
X38524776Y21375440D01*
X38548601Y21382667D01*
X38570557Y21394403D01*
X38589803Y21410197D01*
X40589803Y23410197D01*
X40605597Y23429443D01*
X40617333Y23451399D01*
X40624560Y23475224D01*
X40627000Y23500000D01*
X40627000Y24398000D01*
X44398000Y24398000D01*
X44398000Y15845263D01*
X44330748Y15945913D01*
X44145913Y16130748D01*
X44127000Y16143385D01*
X44127000Y16427840D01*
X44178438Y16490517D01*
X44247588Y16619888D01*
X44290171Y16760264D01*
X44304549Y16906250D01*
X44304549Y17343750D01*
X44290171Y17489736D01*
X44247588Y17630112D01*
X44178438Y17759483D01*
X44085377Y17872877D01*
X44037097Y17912500D01*
X44085377Y17952123D01*
X44178438Y18065517D01*
X44247588Y18194888D01*
X44290171Y18335264D01*
X44304549Y18481250D01*
X44304549Y18918750D01*
X44290171Y19064736D01*
X44247588Y19205112D01*
X44178438Y19334483D01*
X44085377Y19447877D01*
X43971983Y19540938D01*
X43842612Y19610088D01*
X43702236Y19652671D01*
X43556250Y19667049D01*
X43043750Y19667049D01*
X42897764Y19652671D01*
X42757388Y19610088D01*
X42628017Y19540938D01*
X42548988Y19476080D01*
X42299499Y19476080D01*
X42290304Y19493282D01*
X42224448Y19573528D01*
X42144202Y19639384D01*
X42052650Y19688319D01*
X42018858Y19698570D01*
X42052650Y19708821D01*
X42144202Y19757756D01*
X42224448Y19823612D01*
X42290304Y19903858D01*
X42339239Y19995410D01*
X42369374Y20094750D01*
X42379549Y20198060D01*
X42379549Y21198060D01*
X42369374Y21301370D01*
X42339239Y21400710D01*
X42290304Y21492262D01*
X42224448Y21572508D01*
X42144202Y21638364D01*
X42052650Y21687299D01*
X41953310Y21717434D01*
X41850000Y21727609D01*
X40350000Y21727609D01*
X40246690Y21717434D01*
X40147350Y21687299D01*
X40055798Y21638364D01*
X39975552Y21572508D01*
X39909696Y21492262D01*
X39860761Y21400710D01*
X39830626Y21301370D01*
X39820451Y21198060D01*
X39820451Y20198060D01*
X39830626Y20094750D01*
X39860761Y19995410D01*
X39909696Y19903858D01*
X39975552Y19823612D01*
X40055798Y19757756D01*
X40147350Y19708821D01*
X40181142Y19698570D01*
X40147350Y19688319D01*
X40055798Y19639384D01*
X39975552Y19573528D01*
X39909696Y19493282D01*
X39860761Y19401730D01*
X39830626Y19302390D01*
X39820451Y19199080D01*
X39820451Y18199080D01*
X39830626Y18095770D01*
X39860761Y17996430D01*
X39909696Y17904878D01*
X39975552Y17824632D01*
X40055798Y17758776D01*
X40147350Y17709841D01*
X40185329Y17698320D01*
X40147350Y17686799D01*
X40055798Y17637864D01*
X39975552Y17572008D01*
X39909696Y17491762D01*
X39860761Y17400210D01*
X39830626Y17300870D01*
X39820451Y17197560D01*
X39820451Y16197560D01*
X39830626Y16094250D01*
X39860761Y15994910D01*
X39909696Y15903358D01*
X39975552Y15823112D01*
X40055798Y15757256D01*
X40147350Y15708321D01*
X40176956Y15699340D01*
X40147350Y15690359D01*
X40055798Y15641424D01*
X39975552Y15575568D01*
X39909696Y15495322D01*
X39900501Y15478120D01*
X38989283Y15478120D01*
X38951120Y15481879D01*
X38912956Y15478120D01*
X38912954Y15478120D01*
X38798801Y15466877D01*
X38660749Y15424999D01*
X38652336Y15422447D01*
X38517353Y15350297D01*
X38461464Y15304430D01*
X38399040Y15253200D01*
X38374712Y15223556D01*
X35767569Y12616413D01*
X35737920Y12592080D01*
X35703240Y12549821D01*
X35640823Y12473766D01*
X35638275Y12468999D01*
X35568673Y12338783D01*
X35524243Y12192318D01*
X35514146Y12089803D01*
X35509241Y12040000D01*
X35513000Y12001837D01*
X35513001Y6248175D01*
X35513000Y6248165D01*
X35513001Y4886930D01*
X35412213Y4819586D01*
X35318154Y4725527D01*
X35316481Y4742517D01*
X35274911Y4879557D01*
X35207404Y5005854D01*
X35116554Y5116554D01*
X35005854Y5207404D01*
X34879557Y5274911D01*
X34742517Y5316481D01*
X34600000Y5330518D01*
X34104750Y5327000D01*
X33923000Y5145250D01*
X33923000Y3923000D01*
X33943000Y3923000D01*
X33943000Y3577000D01*
X33923000Y3577000D01*
X33923000Y2354750D01*
X34104750Y2173000D01*
X34600000Y2169482D01*
X34742517Y2183519D01*
X34879557Y2225089D01*
X35005854Y2292596D01*
X35116554Y2383446D01*
X35207404Y2494146D01*
X35274911Y2620443D01*
X35316481Y2757483D01*
X35318154Y2774473D01*
X35412213Y2680414D01*
X35637746Y2529718D01*
X35888344Y2425917D01*
X36154377Y2373000D01*
X36425623Y2373000D01*
X36691656Y2425917D01*
X36942254Y2529718D01*
X37167787Y2680414D01*
X37359586Y2872213D01*
X37510282Y3097746D01*
X37560000Y3217776D01*
X37609718Y3097746D01*
X37760414Y2872213D01*
X37952213Y2680414D01*
X38177746Y2529718D01*
X38428344Y2425917D01*
X38694377Y2373000D01*
X38965623Y2373000D01*
X39231656Y2425917D01*
X39482254Y2529718D01*
X39707787Y2680414D01*
X39899586Y2872213D01*
X40050282Y3097746D01*
X40100000Y3217776D01*
X40149718Y3097746D01*
X40300414Y2872213D01*
X40492213Y2680414D01*
X40717746Y2529718D01*
X40968344Y2425917D01*
X41234377Y2373000D01*
X41505623Y2373000D01*
X41771656Y2425917D01*
X42022254Y2529718D01*
X42247787Y2680414D01*
X42439586Y2872213D01*
X42590282Y3097746D01*
X42694083Y3348344D01*
X42747000Y3614377D01*
X42747000Y3885623D01*
X42694083Y4151656D01*
X42590282Y4402254D01*
X42439586Y4627787D01*
X42247787Y4819586D01*
X42022254Y4970282D01*
X41771656Y5074083D01*
X41505623Y5127000D01*
X41234377Y5127000D01*
X40968344Y5074083D01*
X40717746Y4970282D01*
X40492213Y4819586D01*
X40300414Y4627787D01*
X40149718Y4402254D01*
X40100000Y4282224D01*
X40050282Y4402254D01*
X39899586Y4627787D01*
X39707787Y4819586D01*
X39607000Y4886930D01*
X39607000Y7623000D01*
X39909097Y7623000D01*
X39944146Y7594236D01*
X40070443Y7526729D01*
X40207483Y7485159D01*
X40350000Y7471122D01*
X40745250Y7474640D01*
X40927000Y7656390D01*
X40927000Y8528640D01*
X41273000Y8528640D01*
X41273000Y7656390D01*
X41454750Y7474640D01*
X41850000Y7471122D01*
X41992517Y7485159D01*
X42129557Y7526729D01*
X42255854Y7594236D01*
X42366554Y7685086D01*
X42457404Y7795786D01*
X42524911Y7922083D01*
X42566481Y8059123D01*
X42580518Y8201640D01*
X42577000Y8346890D01*
X42395250Y8528640D01*
X41273000Y8528640D01*
X40927000Y8528640D01*
X40907000Y8528640D01*
X40907000Y8874640D01*
X40927000Y8874640D01*
X40927000Y8894640D01*
X41273000Y8894640D01*
X41273000Y8874640D01*
X42395250Y8874640D01*
X42577000Y9056390D01*
X42580518Y9201640D01*
X42566481Y9344157D01*
X42524911Y9481197D01*
X42457404Y9607494D01*
X42366554Y9718194D01*
X42255854Y9809044D01*
X42224196Y9825965D01*
X42224448Y9826172D01*
X42290304Y9906418D01*
X42339239Y9997970D01*
X42369374Y10097310D01*
X42379549Y10200620D01*
X42379549Y11200620D01*
X42369374Y11303930D01*
X42339239Y11403270D01*
X42290304Y11494822D01*
X42224448Y11575068D01*
X42144202Y11640924D01*
X42052650Y11689859D01*
X42014671Y11701380D01*
X42052650Y11712901D01*
X42144202Y11761836D01*
X42224448Y11827692D01*
X42290304Y11907938D01*
X42339239Y11999490D01*
X42369374Y12098830D01*
X42379549Y12202140D01*
X42379549Y13202140D01*
X42369374Y13305450D01*
X42339239Y13404790D01*
X42290304Y13496342D01*
X42224448Y13576588D01*
X42144202Y13642444D01*
X42052650Y13691379D01*
X42018858Y13701630D01*
X42052650Y13711881D01*
X42144202Y13760816D01*
X42224448Y13826672D01*
X42290304Y13906918D01*
X42339239Y13998470D01*
X42369374Y14097810D01*
X42374409Y14148930D01*
X42454087Y14069252D01*
X42671430Y13924028D01*
X42912928Y13823996D01*
X43169302Y13773000D01*
X43430698Y13773000D01*
X43687072Y13823996D01*
X43928570Y13924028D01*
X44145913Y14069252D01*
X44330748Y14254087D01*
X44398000Y14354737D01*
X44398001Y602000D01*
X30595250Y602000D01*
X30445250Y752000D01*
X29748000Y752000D01*
X29748000Y732000D01*
X29402000Y732000D01*
X29402000Y752000D01*
X28704750Y752000D01*
X28554750Y602000D01*
X28279549Y602000D01*
X28279549Y1437772D01*
X28519584Y1437772D01*
X28523000Y1279750D01*
X28704750Y1098000D01*
X29402000Y1098000D01*
X29402000Y1995250D01*
X29748000Y1995250D01*
X29748000Y1098000D01*
X30445250Y1098000D01*
X30627000Y1279750D01*
X30630416Y1437772D01*
X30618767Y1580504D01*
X30579496Y1718220D01*
X30514112Y1845630D01*
X30425129Y1957835D01*
X30315965Y2050525D01*
X30190816Y2120136D01*
X30054490Y2163995D01*
X29929750Y2177000D01*
X29748000Y1995250D01*
X29402000Y1995250D01*
X29220250Y2177000D01*
X29095510Y2163995D01*
X28959184Y2120136D01*
X28834035Y2050525D01*
X28724871Y1957835D01*
X28635888Y1845630D01*
X28570504Y1718220D01*
X28531233Y1580504D01*
X28519584Y1437772D01*
X28279549Y1437772D01*
X28279549Y1450000D01*
X28269374Y1553310D01*
X28239239Y1652650D01*
X28202000Y1722320D01*
X28202000Y2900000D01*
X32169482Y2900000D01*
X32183519Y2757483D01*
X32225089Y2620443D01*
X32292596Y2494146D01*
X32383446Y2383446D01*
X32494146Y2292596D01*
X32620443Y2225089D01*
X32757483Y2183519D01*
X32900000Y2169482D01*
X33395250Y2173000D01*
X33577000Y2354750D01*
X33577000Y3577000D01*
X32354750Y3577000D01*
X32173000Y3395250D01*
X32169482Y2900000D01*
X28202000Y2900000D01*
X28202000Y4277680D01*
X28239239Y4347350D01*
X28269374Y4446690D01*
X28279549Y4550000D01*
X28279549Y4562228D01*
X28519584Y4562228D01*
X28531233Y4419496D01*
X28570504Y4281780D01*
X28635888Y4154370D01*
X28724871Y4042165D01*
X28834035Y3949475D01*
X28959184Y3879864D01*
X29095510Y3836005D01*
X29220250Y3823000D01*
X29402000Y4004750D01*
X29402000Y4902000D01*
X29748000Y4902000D01*
X29748000Y4004750D01*
X29929750Y3823000D01*
X30054490Y3836005D01*
X30190816Y3879864D01*
X30315965Y3949475D01*
X30425129Y4042165D01*
X30514112Y4154370D01*
X30579496Y4281780D01*
X30618767Y4419496D01*
X30630416Y4562228D01*
X30629600Y4600000D01*
X32169482Y4600000D01*
X32173000Y4104750D01*
X32354750Y3923000D01*
X33577000Y3923000D01*
X33577000Y5145250D01*
X33395250Y5327000D01*
X32900000Y5330518D01*
X32757483Y5316481D01*
X32620443Y5274911D01*
X32494146Y5207404D01*
X32383446Y5116554D01*
X32292596Y5005854D01*
X32225089Y4879557D01*
X32183519Y4742517D01*
X32169482Y4600000D01*
X30629600Y4600000D01*
X30627000Y4720250D01*
X30445250Y4902000D01*
X29748000Y4902000D01*
X29402000Y4902000D01*
X28704750Y4902000D01*
X28523000Y4720250D01*
X28519584Y4562228D01*
X28279549Y4562228D01*
X28279549Y5587772D01*
X28519584Y5587772D01*
X28523000Y5429750D01*
X28704750Y5248000D01*
X29402000Y5248000D01*
X29402000Y6145250D01*
X29748000Y6145250D01*
X29748000Y5248000D01*
X30445250Y5248000D01*
X30627000Y5429750D01*
X30630416Y5587772D01*
X30618767Y5730504D01*
X30579496Y5868220D01*
X30514112Y5995630D01*
X30425129Y6107835D01*
X30315965Y6200525D01*
X30190816Y6270136D01*
X30054490Y6313995D01*
X29929750Y6327000D01*
X29748000Y6145250D01*
X29402000Y6145250D01*
X29220250Y6327000D01*
X29095510Y6313995D01*
X28959184Y6270136D01*
X28834035Y6200525D01*
X28724871Y6107835D01*
X28635888Y5995630D01*
X28570504Y5868220D01*
X28531233Y5730504D01*
X28519584Y5587772D01*
X28279549Y5587772D01*
X28279549Y5600000D01*
X28269374Y5703310D01*
X28239239Y5802650D01*
X28202000Y5872320D01*
X28202000Y6036837D01*
X28205759Y6075000D01*
X28202000Y6113166D01*
X28190757Y6227319D01*
X28146327Y6373784D01*
X28106700Y6447921D01*
X28074178Y6508766D01*
X28001409Y6597435D01*
X28001408Y6597436D01*
X27977080Y6627080D01*
X27947436Y6651408D01*
X27598843Y7000000D01*
X28270935Y7672091D01*
X29650000Y7672091D01*
X29753310Y7682266D01*
X29852650Y7712401D01*
X29944202Y7761336D01*
X30024448Y7827192D01*
X30090304Y7907438D01*
X30139239Y7998990D01*
X30169374Y8098330D01*
X30179549Y8201640D01*
X30179549Y9201640D01*
X30169374Y9304950D01*
X30139239Y9404290D01*
X30090304Y9495842D01*
X30024448Y9576088D01*
X29944202Y9641944D01*
X29852650Y9690879D01*
X29818858Y9701130D01*
X29852650Y9711381D01*
X29944202Y9760316D01*
X30024448Y9826172D01*
X30090304Y9906418D01*
X30139239Y9997970D01*
X30169374Y10097310D01*
X30179549Y10200620D01*
X30179549Y11200620D01*
X30169374Y11303930D01*
X30139239Y11403270D01*
X30090304Y11494822D01*
X30024448Y11575068D01*
X29944202Y11640924D01*
X29852650Y11689859D01*
X29814671Y11701380D01*
X29852650Y11712901D01*
X29944202Y11761836D01*
X30024448Y11827692D01*
X30090304Y11907938D01*
X30139239Y11999490D01*
X30169374Y12098830D01*
X30179549Y12202140D01*
X30179549Y13202140D01*
X30169374Y13305450D01*
X30139239Y13404790D01*
X30090304Y13496342D01*
X30024448Y13576588D01*
X29944202Y13642444D01*
X29852650Y13691379D01*
X29818858Y13701630D01*
X29852650Y13711881D01*
X29944202Y13760816D01*
X30024448Y13826672D01*
X30090304Y13906918D01*
X30139239Y13998470D01*
X30169374Y14097810D01*
X30179549Y14201120D01*
X30179549Y15201120D01*
X30169374Y15304430D01*
X30139239Y15403770D01*
X30090304Y15495322D01*
X30024448Y15575568D01*
X29944202Y15641424D01*
X29852650Y15690359D01*
X29823044Y15699340D01*
X29852650Y15708321D01*
X29944202Y15757256D01*
X30024448Y15823112D01*
X30090304Y15903358D01*
X30139239Y15994910D01*
X30169374Y16094250D01*
X30179549Y16197560D01*
X30179549Y17197560D01*
X30169374Y17300870D01*
X30139239Y17400210D01*
X30090304Y17491762D01*
X30024448Y17572008D01*
X29944202Y17637864D01*
X29852650Y17686799D01*
X29814671Y17698320D01*
X29852650Y17709841D01*
X29944202Y17758776D01*
X30024448Y17824632D01*
X30090304Y17904878D01*
X30139239Y17996430D01*
X30169374Y18095770D01*
X30179549Y18199080D01*
X30179549Y19199080D01*
X30169374Y19302390D01*
X30139239Y19401730D01*
X30090304Y19493282D01*
X30024448Y19573528D01*
X29944202Y19639384D01*
X29852650Y19688319D01*
X29818858Y19698570D01*
X29852650Y19708821D01*
X29944202Y19757756D01*
X30024448Y19823612D01*
X30090304Y19903858D01*
X30139239Y19995410D01*
X30169374Y20094750D01*
X30179549Y20198060D01*
X30179549Y21198060D01*
X30169374Y21301370D01*
X30139239Y21400710D01*
X30090304Y21492262D01*
X30024448Y21572508D01*
X29944202Y21638364D01*
X29852650Y21687299D01*
X29753310Y21717434D01*
X29650000Y21727609D01*
X28150000Y21727609D01*
X28046690Y21717434D01*
X27947350Y21687299D01*
X27855798Y21638364D01*
X27775552Y21572508D01*
X27762287Y21556344D01*
X27809911Y21645443D01*
X27851481Y21782483D01*
X27865518Y21925000D01*
X27862000Y22095250D01*
X27680250Y22277000D01*
X26833000Y22277000D01*
X26833000Y22257000D01*
X26487000Y22257000D01*
X26487000Y22277000D01*
X24973000Y22277000D01*
X24973000Y22257000D01*
X24627000Y22257000D01*
X24627000Y22277000D01*
X23779750Y22277000D01*
X23598000Y22095250D01*
X23594482Y21925000D01*
X23608519Y21782483D01*
X23650089Y21645443D01*
X23713398Y21527000D01*
X21782254Y21527000D01*
X21779886Y21529886D01*
X21663650Y21625278D01*
X21531037Y21696161D01*
X21387144Y21739810D01*
X21237500Y21754549D01*
X20762500Y21754549D01*
X20612856Y21739810D01*
X20468963Y21696161D01*
X20336350Y21625278D01*
X20287777Y21585415D01*
X20280762Y21595913D01*
X20095927Y21780748D01*
X19878584Y21925972D01*
X19637086Y22026004D01*
X19380712Y22077000D01*
X19119316Y22077000D01*
X18862942Y22026004D01*
X18621444Y21925972D01*
X18404101Y21780748D01*
X18219266Y21595913D01*
X18074042Y21378570D01*
X17974010Y21137072D01*
X17923014Y20880698D01*
X17923014Y20619302D01*
X17974010Y20362928D01*
X18074042Y20121430D01*
X18219266Y19904087D01*
X18404101Y19719252D01*
X18621444Y19574028D01*
X18862942Y19473996D01*
X19119316Y19423000D01*
X19380712Y19423000D01*
X19637086Y19473996D01*
X19878584Y19574028D01*
X20095927Y19719252D01*
X20234765Y19858090D01*
X20275086Y19825000D01*
X20220114Y19779886D01*
X20124722Y19663650D01*
X20053839Y19531037D01*
X20010190Y19387144D01*
X19995451Y19237500D01*
X19995451Y18662500D01*
X20010190Y18512856D01*
X20053839Y18368963D01*
X20124722Y18236350D01*
X20173000Y18177522D01*
X20173000Y17760414D01*
X20159696Y17744202D01*
X20110761Y17652650D01*
X20080626Y17553310D01*
X20070451Y17450000D01*
X20070451Y15877000D01*
X19500000Y15877000D01*
X19475224Y15874560D01*
X19451399Y15867333D01*
X19429443Y15855597D01*
X19410197Y15839803D01*
X19394403Y15820557D01*
X19382667Y15798601D01*
X19375440Y15774776D01*
X19373000Y15750000D01*
X19373000Y14899499D01*
X19355798Y14890304D01*
X19275552Y14824448D01*
X19209696Y14744202D01*
X19160761Y14652650D01*
X19130626Y14553310D01*
X19120451Y14450000D01*
X19120451Y12550000D01*
X19130626Y12446690D01*
X19160761Y12347350D01*
X19209696Y12255798D01*
X19223001Y12239586D01*
X19223001Y11827000D01*
X17442554Y11827000D01*
X15627000Y13642553D01*
X15627000Y16209417D01*
X15644374Y16266690D01*
X15654549Y16370000D01*
X15654549Y16973000D01*
X15845451Y16973000D01*
X15845451Y16370000D01*
X15855626Y16266690D01*
X15885761Y16167350D01*
X15923000Y16097680D01*
X15923000Y15824750D01*
X16104750Y15643000D01*
X16229424Y15655990D01*
X16365753Y15699836D01*
X16490908Y15769436D01*
X16574561Y15840451D01*
X17025000Y15840451D01*
X17128310Y15850626D01*
X17227650Y15880761D01*
X17319202Y15929696D01*
X17399448Y15995552D01*
X17412222Y16011117D01*
X17554087Y15869252D01*
X17771430Y15724028D01*
X18012928Y15623996D01*
X18269302Y15573000D01*
X18530698Y15573000D01*
X18787072Y15623996D01*
X19028570Y15724028D01*
X19245913Y15869252D01*
X19430748Y16054087D01*
X19575972Y16271430D01*
X19676004Y16512928D01*
X19727000Y16769302D01*
X19727000Y17030698D01*
X19676004Y17287072D01*
X19575972Y17528570D01*
X19430748Y17745913D01*
X19245913Y17930748D01*
X19028570Y18075972D01*
X18787072Y18176004D01*
X18530698Y18227000D01*
X18269302Y18227000D01*
X18012928Y18176004D01*
X17771430Y18075972D01*
X17554087Y17930748D01*
X17427000Y17803661D01*
X17427000Y18229124D01*
X17465304Y18275798D01*
X17514239Y18367350D01*
X17544374Y18466690D01*
X17554549Y18570000D01*
X17554549Y19630000D01*
X17544374Y19733310D01*
X17514239Y19832650D01*
X17465304Y19924202D01*
X17438596Y19956745D01*
X17454886Y19970114D01*
X17550278Y20086350D01*
X17621161Y20218963D01*
X17664810Y20362856D01*
X17679549Y20512500D01*
X17679549Y20987500D01*
X17664810Y21137144D01*
X17621161Y21281037D01*
X17550278Y21413650D01*
X17454886Y21529886D01*
X17352000Y21614322D01*
X17352000Y21635678D01*
X17454886Y21720114D01*
X17550278Y21836350D01*
X17621161Y21968963D01*
X17664810Y22112856D01*
X17679549Y22262500D01*
X17679549Y22737500D01*
X17664810Y22887144D01*
X17638160Y22975000D01*
X23594482Y22975000D01*
X23598000Y22804750D01*
X23779750Y22623000D01*
X24627000Y22623000D01*
X24627000Y23520250D01*
X24973000Y23520250D01*
X24973000Y22623000D01*
X26487000Y22623000D01*
X26487000Y23520250D01*
X26833000Y23520250D01*
X26833000Y22623000D01*
X27680250Y22623000D01*
X27862000Y22804750D01*
X27865518Y22975000D01*
X27851481Y23117517D01*
X27809911Y23254557D01*
X27742404Y23380854D01*
X27651554Y23491554D01*
X27540854Y23582404D01*
X27414557Y23649911D01*
X27277517Y23691481D01*
X27135000Y23705518D01*
X27014750Y23702000D01*
X26833000Y23520250D01*
X26487000Y23520250D01*
X26305250Y23702000D01*
X26185000Y23705518D01*
X26042483Y23691481D01*
X25905443Y23649911D01*
X25779146Y23582404D01*
X25730000Y23542071D01*
X25680854Y23582404D01*
X25554557Y23649911D01*
X25417517Y23691481D01*
X25275000Y23705518D01*
X25154750Y23702000D01*
X24973000Y23520250D01*
X24627000Y23520250D01*
X24445250Y23702000D01*
X24325000Y23705518D01*
X24182483Y23691481D01*
X24045443Y23649911D01*
X23919146Y23582404D01*
X23808446Y23491554D01*
X23717596Y23380854D01*
X23650089Y23254557D01*
X23608519Y23117517D01*
X23594482Y22975000D01*
X17638160Y22975000D01*
X17621161Y23031037D01*
X17550278Y23163650D01*
X17454886Y23279886D01*
X17338650Y23375278D01*
X17206037Y23446161D01*
X17062144Y23489810D01*
X16912500Y23504549D01*
X16337500Y23504549D01*
X16187856Y23489810D01*
X16043963Y23446161D01*
X15981297Y23412665D01*
X15916554Y23491554D01*
X15805854Y23582404D01*
X15679557Y23649911D01*
X15542517Y23691481D01*
X15400000Y23705518D01*
X15229750Y23702000D01*
X15048000Y23520250D01*
X15048000Y22673000D01*
X15068000Y22673000D01*
X15068000Y22327000D01*
X15048000Y22327000D01*
X15048000Y22307000D01*
X14702000Y22307000D01*
X14702000Y22327000D01*
X13527000Y22327000D01*
X13527000Y22834745D01*
X13541481Y22882483D01*
X13550593Y22975000D01*
X13619482Y22975000D01*
X13623000Y22854750D01*
X13804750Y22673000D01*
X14702000Y22673000D01*
X14702000Y23520250D01*
X14520250Y23702000D01*
X14350000Y23705518D01*
X14207483Y23691481D01*
X14070443Y23649911D01*
X13944146Y23582404D01*
X13833446Y23491554D01*
X13742596Y23380854D01*
X13675089Y23254557D01*
X13633519Y23117517D01*
X13619482Y22975000D01*
X13550593Y22975000D01*
X13555518Y23025000D01*
X13552000Y23382750D01*
X13526153Y23408597D01*
X13524560Y23424776D01*
X13517333Y23448601D01*
X13505597Y23470557D01*
X13489803Y23489803D01*
X13470557Y23505597D01*
X13448601Y23517333D01*
X13424776Y23524560D01*
X13408597Y23526153D01*
X13370250Y23564500D01*
X11673000Y23564500D01*
X11673000Y23544500D01*
X11327000Y23544500D01*
X11327000Y23564500D01*
X9629750Y23564500D01*
X9591403Y23526153D01*
X9575224Y23524560D01*
X9551399Y23517333D01*
X9529443Y23505597D01*
X9510197Y23489803D01*
X9494403Y23470557D01*
X9482667Y23448601D01*
X9475440Y23424776D01*
X9473847Y23408597D01*
X9448000Y23382750D01*
X9444482Y23025000D01*
X9458519Y22882483D01*
X9473000Y22834745D01*
X9473000Y21689500D01*
X9121476Y21689500D01*
X8705274Y22105701D01*
X8707000Y22114377D01*
X8707000Y22385623D01*
X8654083Y22651656D01*
X8550282Y22902254D01*
X8399586Y23127787D01*
X8207787Y23319586D01*
X7982254Y23470282D01*
X7731656Y23574083D01*
X7465623Y23627000D01*
X7194377Y23627000D01*
X6928344Y23574083D01*
X6677746Y23470282D01*
X6452213Y23319586D01*
X6260414Y23127787D01*
X6109718Y22902254D01*
X6060000Y22782224D01*
X6010282Y22902254D01*
X5859586Y23127787D01*
X5667787Y23319586D01*
X5442254Y23470282D01*
X5191656Y23574083D01*
X4925623Y23627000D01*
X4654377Y23627000D01*
X4388344Y23574083D01*
X4137746Y23470282D01*
X3912213Y23319586D01*
X3818154Y23225527D01*
X3816481Y23242517D01*
X3774911Y23379557D01*
X3707404Y23505854D01*
X3616554Y23616554D01*
X3505854Y23707404D01*
X3379557Y23774911D01*
X3242517Y23816481D01*
X3100000Y23830518D01*
X2604750Y23827000D01*
X2423000Y23645250D01*
X2423000Y22423000D01*
X2443000Y22423000D01*
X2443000Y22077000D01*
X2423000Y22077000D01*
X2423000Y22057000D01*
X2077000Y22057000D01*
X2077000Y22077000D01*
X854750Y22077000D01*
X673000Y21895250D01*
X669482Y21400000D01*
X683519Y21257483D01*
X725089Y21120443D01*
X792596Y20994146D01*
X883446Y20883446D01*
X994146Y20792596D01*
X1120443Y20725089D01*
X1257483Y20683519D01*
X1399303Y20669551D01*
X1383519Y20617517D01*
X1369482Y20475000D01*
X1373000Y20354750D01*
X1554750Y20173000D01*
X2452000Y20173000D01*
X2452000Y20193000D01*
X2798000Y20193000D01*
X2798000Y20173000D01*
X2818000Y20173000D01*
X2818000Y19827000D01*
X2798000Y19827000D01*
X2798000Y18979750D01*
X2979750Y18798000D01*
X3150000Y18794482D01*
X3292517Y18808519D01*
X3429557Y18850089D01*
X3555854Y18917596D01*
X3666554Y19008446D01*
X3731297Y19087335D01*
X3793963Y19053839D01*
X3937856Y19010190D01*
X4087500Y18995451D01*
X4662500Y18995451D01*
X4812144Y19010190D01*
X4956037Y19053839D01*
X5088650Y19124722D01*
X5204886Y19220114D01*
X5300278Y19336350D01*
X5371161Y19468963D01*
X5414810Y19612856D01*
X5429549Y19762500D01*
X5429549Y20237500D01*
X5414810Y20387144D01*
X5371161Y20531037D01*
X5300278Y20663650D01*
X5204886Y20779886D01*
X5202000Y20782254D01*
X5202000Y20930202D01*
X5442254Y21029718D01*
X5667787Y21180414D01*
X5859586Y21372213D01*
X6010282Y21597746D01*
X6060000Y21717776D01*
X6109718Y21597746D01*
X6260414Y21372213D01*
X6452213Y21180414D01*
X6677746Y21029718D01*
X6928344Y20925917D01*
X7194377Y20873000D01*
X7316025Y20873000D01*
X8049816Y20139208D01*
X8078841Y20103841D01*
X8114208Y20074816D01*
X8114212Y20074812D01*
X8219995Y19987998D01*
X8341598Y19923000D01*
X8381036Y19901920D01*
X8555776Y19848913D01*
X8691962Y19835500D01*
X8691973Y19835500D01*
X8737500Y19831016D01*
X8783027Y19835500D01*
X9802603Y19835500D01*
X9873776Y19748776D01*
X9991906Y19651829D01*
X10126680Y19579791D01*
X10272918Y19535430D01*
X10425000Y19520451D01*
X12575000Y19520451D01*
X12727082Y19535430D01*
X12873320Y19579791D01*
X13008094Y19651829D01*
X13126224Y19748776D01*
X13223171Y19866906D01*
X13253154Y19923000D01*
X14034054Y19923000D01*
X13985761Y19832650D01*
X13955626Y19733310D01*
X13945451Y19630000D01*
X13945451Y18570000D01*
X13955626Y18466690D01*
X13985761Y18367350D01*
X14034696Y18275798D01*
X14073000Y18229124D01*
X14073000Y17770876D01*
X14034696Y17724202D01*
X13985761Y17632650D01*
X13955626Y17533310D01*
X13945451Y17430000D01*
X13945451Y16370000D01*
X13955626Y16266690D01*
X13973001Y16209414D01*
X13973000Y13340614D01*
X13969000Y13300000D01*
X13973000Y13259386D01*
X13973000Y13259377D01*
X13984966Y13137881D01*
X14032255Y12981991D01*
X14068002Y12915114D01*
X14109048Y12838321D01*
X14135773Y12805757D01*
X14212394Y12712394D01*
X14243952Y12686495D01*
X16486499Y10443947D01*
X16512394Y10412394D01*
X16543947Y10386499D01*
X16543948Y10386498D01*
X16638319Y10309048D01*
X16737985Y10255776D01*
X16781990Y10232255D01*
X16937880Y10184966D01*
X17059376Y10173000D01*
X17059385Y10173000D01*
X17099999Y10169000D01*
X17140613Y10173000D01*
X19352523Y10173000D01*
X19411350Y10124722D01*
X19543963Y10053839D01*
X19687856Y10010190D01*
X19837500Y9995451D01*
X20412500Y9995451D01*
X20562144Y10010190D01*
X20706037Y10053839D01*
X20768703Y10087335D01*
X20833446Y10008446D01*
X20944146Y9917596D01*
X21070443Y9850089D01*
X21207483Y9808519D01*
X21350000Y9794482D01*
X21520250Y9798000D01*
X21702000Y9979750D01*
X21702000Y10473000D01*
X22048000Y10473000D01*
X22048000Y9979750D01*
X22229750Y9798000D01*
X22400000Y9794482D01*
X22542517Y9808519D01*
X22679557Y9850089D01*
X22805854Y9917596D01*
X22916554Y10008446D01*
X23000000Y10110124D01*
X23083446Y10008446D01*
X23194146Y9917596D01*
X23320443Y9850089D01*
X23364407Y9836753D01*
X23295114Y9779886D01*
X23251712Y9727000D01*
X23135705Y9727000D01*
X23099999Y9730517D01*
X23064294Y9727000D01*
X23064292Y9727000D01*
X22957483Y9716480D01*
X22820443Y9674910D01*
X22694147Y9607403D01*
X22583446Y9516554D01*
X22560679Y9488812D01*
X22170966Y9099099D01*
X22030698Y9127000D01*
X21769302Y9127000D01*
X21512928Y9076004D01*
X21271430Y8975972D01*
X21054087Y8830748D01*
X20869252Y8645913D01*
X20724028Y8428570D01*
X20623996Y8187072D01*
X20573000Y7930698D01*
X20573000Y7669302D01*
X20623996Y7412928D01*
X20724028Y7171430D01*
X20869252Y6954087D01*
X21054087Y6769252D01*
X21271430Y6624028D01*
X21512928Y6523996D01*
X21769302Y6473000D01*
X22030698Y6473000D01*
X22287072Y6523996D01*
X22528570Y6624028D01*
X22745913Y6769252D01*
X22930748Y6954087D01*
X23070451Y7163167D01*
X23070451Y6762500D01*
X23085190Y6612856D01*
X23128839Y6468963D01*
X23199722Y6336350D01*
X23295114Y6220114D01*
X23326637Y6194244D01*
X23224871Y6107835D01*
X23135888Y5995630D01*
X23070504Y5868220D01*
X23031233Y5730504D01*
X23019584Y5587772D01*
X23023000Y5429750D01*
X23204750Y5248000D01*
X23902000Y5248000D01*
X23902000Y5268000D01*
X24248000Y5268000D01*
X24248000Y5248000D01*
X24945250Y5248000D01*
X25127000Y5429750D01*
X25130416Y5587772D01*
X25118767Y5730504D01*
X25079496Y5868220D01*
X25014112Y5995630D01*
X24925129Y6107835D01*
X24872512Y6152512D01*
X24954886Y6220114D01*
X25000000Y6275086D01*
X25045114Y6220114D01*
X25161350Y6124722D01*
X25293963Y6053839D01*
X25437856Y6010190D01*
X25587500Y5995451D01*
X26162500Y5995451D01*
X26312144Y6010190D01*
X26372621Y6028535D01*
X26607909Y5793248D01*
X26580626Y5703310D01*
X26570451Y5600000D01*
X26570451Y4550000D01*
X26580626Y4446690D01*
X26610761Y4347350D01*
X26648001Y4277678D01*
X26648000Y1722320D01*
X26610761Y1652650D01*
X26580626Y1553310D01*
X26570451Y1450000D01*
X26570451Y602000D01*
X25095250Y602000D01*
X24945250Y752000D01*
X24248000Y752000D01*
X24248000Y732000D01*
X23902000Y732000D01*
X23902000Y752000D01*
X23204750Y752000D01*
X23054750Y602000D01*
X22779549Y602000D01*
X22779549Y1437772D01*
X23019584Y1437772D01*
X23023000Y1279750D01*
X23204750Y1098000D01*
X23902000Y1098000D01*
X23902000Y1995250D01*
X24248000Y1995250D01*
X24248000Y1098000D01*
X24945250Y1098000D01*
X25127000Y1279750D01*
X25130416Y1437772D01*
X25118767Y1580504D01*
X25079496Y1718220D01*
X25014112Y1845630D01*
X24925129Y1957835D01*
X24815965Y2050525D01*
X24690816Y2120136D01*
X24554490Y2163995D01*
X24429750Y2177000D01*
X24248000Y1995250D01*
X23902000Y1995250D01*
X23720250Y2177000D01*
X23595510Y2163995D01*
X23459184Y2120136D01*
X23334035Y2050525D01*
X23224871Y1957835D01*
X23135888Y1845630D01*
X23070504Y1718220D01*
X23031233Y1580504D01*
X23019584Y1437772D01*
X22779549Y1437772D01*
X22779549Y1450000D01*
X22769374Y1553310D01*
X22739239Y1652650D01*
X22702000Y1722320D01*
X22702000Y4277680D01*
X22739239Y4347350D01*
X22769374Y4446690D01*
X22779549Y4550000D01*
X22779549Y4562228D01*
X23019584Y4562228D01*
X23031233Y4419496D01*
X23070504Y4281780D01*
X23135888Y4154370D01*
X23224871Y4042165D01*
X23334035Y3949475D01*
X23459184Y3879864D01*
X23595510Y3836005D01*
X23720250Y3823000D01*
X23902000Y4004750D01*
X23902000Y4902000D01*
X24248000Y4902000D01*
X24248000Y4004750D01*
X24429750Y3823000D01*
X24554490Y3836005D01*
X24690816Y3879864D01*
X24815965Y3949475D01*
X24925129Y4042165D01*
X25014112Y4154370D01*
X25079496Y4281780D01*
X25118767Y4419496D01*
X25130416Y4562228D01*
X25127000Y4720250D01*
X24945250Y4902000D01*
X24248000Y4902000D01*
X23902000Y4902000D01*
X23204750Y4902000D01*
X23023000Y4720250D01*
X23019584Y4562228D01*
X22779549Y4562228D01*
X22779549Y5600000D01*
X22769374Y5703310D01*
X22739239Y5802650D01*
X22690304Y5894202D01*
X22624448Y5974448D01*
X22544202Y6040304D01*
X22452650Y6089239D01*
X22353310Y6119374D01*
X22250000Y6129549D01*
X21600000Y6129549D01*
X21496690Y6119374D01*
X21397350Y6089239D01*
X21305798Y6040304D01*
X21250023Y5994531D01*
X20033716Y7210837D01*
X20076004Y7312928D01*
X20127000Y7569302D01*
X20127000Y7830698D01*
X20076004Y8087072D01*
X19975972Y8328570D01*
X19830748Y8545913D01*
X19645913Y8730748D01*
X19428570Y8875972D01*
X19187072Y8976004D01*
X18930698Y9027000D01*
X18669302Y9027000D01*
X18412928Y8976004D01*
X18171430Y8875972D01*
X17954087Y8730748D01*
X17769252Y8545913D01*
X17624028Y8328570D01*
X17523996Y8087072D01*
X17473000Y7830698D01*
X17473000Y7569302D01*
X17523996Y7312928D01*
X17624028Y7071430D01*
X17769252Y6854087D01*
X17954087Y6669252D01*
X18171430Y6524028D01*
X18412928Y6423996D01*
X18498465Y6406982D01*
X18975290Y5930156D01*
X18104750Y5927000D01*
X17923000Y5745250D01*
X17923000Y4660500D01*
X19620250Y4660500D01*
X19802000Y4842250D01*
X19804544Y5100903D01*
X20386499Y4518947D01*
X20412394Y4487394D01*
X20443947Y4461499D01*
X20443948Y4461498D01*
X20538320Y4384048D01*
X20595148Y4353673D01*
X20681990Y4307255D01*
X20837880Y4259966D01*
X20959376Y4248000D01*
X20959386Y4248000D01*
X21000000Y4244000D01*
X21040614Y4248000D01*
X21148001Y4248000D01*
X21148000Y1722320D01*
X21110761Y1652650D01*
X21080626Y1553310D01*
X21070451Y1450000D01*
X21070451Y602000D01*
X19460938Y602000D01*
X19473171Y616906D01*
X19545209Y751680D01*
X19589570Y897918D01*
X19604549Y1050000D01*
X19604549Y1678166D01*
X19605597Y1679443D01*
X19617333Y1701399D01*
X19624560Y1725224D01*
X19627000Y1750000D01*
X19627000Y3301637D01*
X19682404Y3369146D01*
X19749911Y3495443D01*
X19791481Y3632483D01*
X19805518Y3775000D01*
X19802000Y4132750D01*
X19620250Y4314500D01*
X17923000Y4314500D01*
X17923000Y4294500D01*
X17577000Y4294500D01*
X17577000Y4314500D01*
X17557000Y4314500D01*
X17557000Y4660500D01*
X17577000Y4660500D01*
X17577000Y5745250D01*
X17395250Y5927000D01*
X16425000Y5930518D01*
X16389282Y5927000D01*
X15377000Y5927000D01*
X15377000Y6596898D01*
X15457750Y6598000D01*
X15639500Y6779750D01*
X15639500Y7577000D01*
X15985500Y7577000D01*
X15985500Y6779750D01*
X16167250Y6598000D01*
X16425000Y6594482D01*
X16567517Y6608519D01*
X16704557Y6650089D01*
X16830854Y6717596D01*
X16941554Y6808446D01*
X17032404Y6919146D01*
X17099911Y7045443D01*
X17141481Y7182483D01*
X17155518Y7325000D01*
X17152000Y7395250D01*
X16970250Y7577000D01*
X15985500Y7577000D01*
X15639500Y7577000D01*
X15619500Y7577000D01*
X15619500Y7923000D01*
X15639500Y7923000D01*
X15639500Y8720250D01*
X15985500Y8720250D01*
X15985500Y7923000D01*
X16970250Y7923000D01*
X17152000Y8104750D01*
X17155518Y8175000D01*
X17141481Y8317517D01*
X17099911Y8454557D01*
X17032404Y8580854D01*
X16941554Y8691554D01*
X16830854Y8782404D01*
X16704557Y8849911D01*
X16567517Y8891481D01*
X16425000Y8905518D01*
X16167250Y8902000D01*
X15985500Y8720250D01*
X15639500Y8720250D01*
X15457750Y8902000D01*
X15200000Y8905518D01*
X15057483Y8891481D01*
X14920443Y8849911D01*
X14794146Y8782404D01*
X14687303Y8694719D01*
X14587500Y8704549D01*
X14543927Y8704549D01*
X12427001Y10821474D01*
X12427001Y11395450D01*
X12500001Y11395450D01*
X12603311Y11405625D01*
X12702651Y11435760D01*
X12794203Y11484695D01*
X12874449Y11550551D01*
X12940305Y11630797D01*
X12989240Y11722349D01*
X13019375Y11821689D01*
X13029550Y11924999D01*
X13029550Y15424999D01*
X13019375Y15528309D01*
X12989240Y15627649D01*
X12940305Y15719201D01*
X12874449Y15799447D01*
X12794203Y15865303D01*
X12702651Y15914238D01*
X12603311Y15944373D01*
X12500001Y15954548D01*
X10500001Y15954548D01*
X10396691Y15944373D01*
X10297351Y15914238D01*
X10205799Y15865303D01*
X10125553Y15799447D01*
X10059697Y15719201D01*
X10010762Y15627649D01*
X9980627Y15528309D01*
X9970452Y15424999D01*
X9970452Y11924999D01*
X9980627Y11821689D01*
X10010762Y11722349D01*
X10059697Y11630797D01*
X10125553Y11550551D01*
X10205799Y11484695D01*
X10297351Y11435760D01*
X10396691Y11405625D01*
X10500001Y11395450D01*
X10573002Y11395450D01*
X10573002Y10483036D01*
X10568517Y10437499D01*
X10573002Y10391962D01*
X10573002Y10391961D01*
X10586415Y10255775D01*
X10593550Y10232255D01*
X10639421Y10081036D01*
X10725500Y9919994D01*
X10812313Y9814212D01*
X10812318Y9814207D01*
X10841343Y9778840D01*
X10876709Y9749816D01*
X13045451Y7581073D01*
X13045451Y7537500D01*
X13059709Y7392733D01*
X13101936Y7253530D01*
X13170509Y7125240D01*
X13262792Y7012792D01*
X13268692Y7007950D01*
X13254209Y6980854D01*
X13207255Y6893009D01*
X13159966Y6737119D01*
X13148000Y6615623D01*
X13148000Y6615614D01*
X13144000Y6575000D01*
X13148000Y6534386D01*
X13148000Y6377000D01*
X12578279Y6377000D01*
X12676004Y6612928D01*
X12727000Y6869302D01*
X12727000Y7130698D01*
X12676004Y7387072D01*
X12575972Y7628570D01*
X12430748Y7845913D01*
X12245913Y8030748D01*
X12028570Y8175972D01*
X11787072Y8276004D01*
X11530698Y8327000D01*
X11269302Y8327000D01*
X11012928Y8276004D01*
X10771430Y8175972D01*
X10554087Y8030748D01*
X10369252Y7845913D01*
X10224028Y7628570D01*
X10123996Y7387072D01*
X10073000Y7130698D01*
X10073000Y6869302D01*
X10123996Y6612928D01*
X10221721Y6377000D01*
X7750000Y6377000D01*
X7725224Y6374560D01*
X7701399Y6367333D01*
X7679443Y6355597D01*
X7660197Y6339803D01*
X7644403Y6320557D01*
X7632667Y6298601D01*
X7625440Y6274776D01*
X7623328Y6253333D01*
X7595913Y6280748D01*
X7378570Y6425972D01*
X7137072Y6526004D01*
X6880698Y6577000D01*
X6619302Y6577000D01*
X6362928Y6526004D01*
X6215756Y6465043D01*
X6214570Y6477082D01*
X6170209Y6623320D01*
X6098171Y6758094D01*
X6001224Y6876224D01*
X5914500Y6947397D01*
X5914500Y8366973D01*
X5918984Y8412500D01*
X5914500Y8458027D01*
X5914500Y8458038D01*
X5901087Y8594224D01*
X5848080Y8768964D01*
X5840896Y8782404D01*
X5762001Y8930006D01*
X5675188Y9035788D01*
X5675184Y9035792D01*
X5646159Y9071159D01*
X5610793Y9100183D01*
X3427001Y11283974D01*
X3427001Y11395450D01*
X3500001Y11395450D01*
X3603311Y11405625D01*
X3702651Y11435760D01*
X3794203Y11484695D01*
X3874449Y11550551D01*
X3940305Y11630797D01*
X3989240Y11722349D01*
X4019375Y11821689D01*
X4029550Y11924999D01*
X4029550Y15424999D01*
X4019375Y15528309D01*
X3989240Y15627649D01*
X3940305Y15719201D01*
X3874449Y15799447D01*
X3794203Y15865303D01*
X3702651Y15914238D01*
X3603311Y15944373D01*
X3500001Y15954548D01*
X1500001Y15954548D01*
X1396691Y15944373D01*
X1297351Y15914238D01*
X1205799Y15865303D01*
X1125553Y15799447D01*
X1059697Y15719201D01*
X1010762Y15627649D01*
X980627Y15528309D01*
X970452Y15424999D01*
X970452Y11924999D01*
X980627Y11821689D01*
X1010762Y11722349D01*
X1059697Y11630797D01*
X1125553Y11550551D01*
X1205799Y11484695D01*
X1297351Y11435760D01*
X1396691Y11405625D01*
X1500001Y11395450D01*
X1573002Y11395450D01*
X1573002Y10945536D01*
X1568517Y10899999D01*
X1586415Y10718276D01*
X1639421Y10543536D01*
X1725500Y10382494D01*
X1812313Y10276712D01*
X1812318Y10276707D01*
X1841343Y10241340D01*
X1876709Y10212316D01*
X4060500Y8028524D01*
X4060500Y7302000D01*
X2800000Y7302000D01*
X2781776Y7299926D01*
X2725000Y7305518D01*
X2367250Y7302000D01*
X2185500Y7120250D01*
X2185500Y5423000D01*
X2205500Y5423000D01*
X2205500Y5077000D01*
X2185500Y5077000D01*
X2185500Y2173000D01*
X2205500Y2173000D01*
X2205500Y1827000D01*
X2185500Y1827000D01*
X2185500Y1807000D01*
X1839500Y1807000D01*
X1839500Y1827000D01*
X1819500Y1827000D01*
X1819500Y2173000D01*
X1839500Y2173000D01*
X1839500Y5077000D01*
X1819500Y5077000D01*
X1819500Y5423000D01*
X1839500Y5423000D01*
X1839500Y7120250D01*
X1657750Y7302000D01*
X1300000Y7305518D01*
X1157483Y7291481D01*
X1020443Y7249911D01*
X894146Y7182404D01*
X783446Y7091554D01*
X692596Y6980854D01*
X625089Y6854557D01*
X602000Y6778442D01*
X602000Y19525000D01*
X1369482Y19525000D01*
X1383519Y19382483D01*
X1425089Y19245443D01*
X1492596Y19119146D01*
X1583446Y19008446D01*
X1694146Y18917596D01*
X1820443Y18850089D01*
X1957483Y18808519D01*
X2100000Y18794482D01*
X2270250Y18798000D01*
X2452000Y18979750D01*
X2452000Y19827000D01*
X1554750Y19827000D01*
X1373000Y19645250D01*
X1369482Y19525000D01*
X602000Y19525000D01*
X602000Y23100000D01*
X669482Y23100000D01*
X673000Y22604750D01*
X854750Y22423000D01*
X2077000Y22423000D01*
X2077000Y23645250D01*
X1895250Y23827000D01*
X1400000Y23830518D01*
X1257483Y23816481D01*
X1120443Y23774911D01*
X994146Y23707404D01*
X883446Y23616554D01*
X792596Y23505854D01*
X725089Y23379557D01*
X683519Y23242517D01*
X669482Y23100000D01*
X602000Y23100000D01*
X602000Y24398000D01*
X9444993Y24398000D01*
X9448000Y24092250D01*
%TD*%
M02*
